M48
;Layer_Color=9474304
;FILE_FORMAT=4:3
METRIC,TZ
;TYPE=PLATED
T1F00S00C0.300
T2F00S00C0.700
T3F00S00C1.100
T4F00S00C4.400
%
T01
X500Y3000
Y4000
Y5000
Y6000
Y7000
Y8000
Y9000
Y10000
Y11000
Y12000
X13150Y11350
Y9350
Y7350
Y5350
Y3350
X13000Y500
X14000
X12000
X11000
X10000
X9000
X8000
X7000
X6000
X5000
X4000
X15000
X16000
X17000
X18000
X19000
X20000
X21000
X22000
X23000
X24000
X25000
X26000
X27000
X28000
X29000
X30000
X31000
X32000
X33000
X34000
X35000
X36000
X37000
X38000
X39000
X40000
X41000
X42000
X43000
X43200Y4200
X40200
X37200
X34200
X31200
X28200
X25200
X22200
X19200
X21000Y7850
X20350Y10050
X23350
X24000Y7850
X27000
X26350Y10050
X29350
X30000Y7850
X33000
X32350Y10050
X35350
X36000Y7850
X39000
X38350Y10050
X41350
X42000Y7850
X45000
X44350Y10050
X43250Y12100
X40250
X37250
X34250
X31250
X28250
X25250
X22250
X19250
X50362Y11418
X52411Y13368
X51489Y5674
X50465Y4195
X50450Y1750
X49450
X52599Y2856
X53607Y3563
X55950Y3250
X56168Y500
X55168
X54168
X57168
X58168
X59168
X60168
X61168
X62168
X63168
X64168
X65168
X66168
X69500Y3000
Y4000
Y5000
Y6000
Y7000
Y8000
Y9000
Y10000
Y11000
Y12000
X59353Y9308
X57235Y11419
X57303Y5640
X61269Y4376
X61168Y14500
X60168
X59168
X58168
X57168
X56168
X55168
X54168
X62168
X63168
X64168
X65168
X66168
X53168
X52168
X51000
X50000
X49000
X48000
X47000
X46000
X45000
X44000
X43000
X42000
X41000
X40000
X39000
X38000
X37000
X36000
X35000
X34000
X33000
X32000
X31000
X30000
X29000
X28000
X27000
X26000
X25000
X24000
X23000
X22000
X21000
X20000
X19000
X18000
X17000
X16000
X15000
X14000
X13000
X12000
X11000
X10000
X9000
X8000
X7000
X6000
X5000
X4000
T02
X16865Y4960
Y6230
Y7500
Y8770
X18135
Y7500
Y6230
Y4960
Y10040
X16865
T03
X47140Y3690
Y6230
Y8770
Y11310
T04
X5000Y7500
X65000
M30
