G04*
G04 #@! TF.GenerationSoftware,Altium Limited,Altium Designer,22.10.1 (41)*
G04*
G04 Layer_Color=8388736*
%FSLAX43Y43*%
%MOMM*%
G71*
G04*
G04 #@! TF.SameCoordinates,A06D47DE-3B52-4099-82B1-BC196321E02B*
G04*
G04*
G04 #@! TF.FilePolarity,Negative*
G04*
G01*
G75*
G04:AMPARAMS|DCode=15|XSize=0.58mm|YSize=0.48mm|CornerRadius=0mm|HoleSize=0mm|Usage=FLASHONLY|Rotation=135.000|XOffset=0mm|YOffset=0mm|HoleType=Round|Shape=Rectangle|*
%AMROTATEDRECTD15*
4,1,4,0.375,-0.035,0.035,-0.375,-0.375,0.035,-0.035,0.375,0.375,-0.035,0.0*
%
%ADD15ROTATEDRECTD15*%

G04:AMPARAMS|DCode=16|XSize=2.1mm|YSize=1.9mm|CornerRadius=0.095mm|HoleSize=0mm|Usage=FLASHONLY|Rotation=315.000|XOffset=0mm|YOffset=0mm|HoleType=Round|Shape=RoundedRectangle|*
%AMROUNDEDRECTD16*
21,1,2.100,1.710,0,0,315.0*
21,1,1.910,1.900,0,0,315.0*
1,1,0.190,0.071,-1.280*
1,1,0.190,-1.280,0.071*
1,1,0.190,-0.071,1.280*
1,1,0.190,1.280,-0.071*
%
%ADD16ROUNDEDRECTD16*%
G04:AMPARAMS|DCode=17|XSize=1.45mm|YSize=1.1mm|CornerRadius=0.1mm|HoleSize=0mm|Usage=FLASHONLY|Rotation=315.000|XOffset=0mm|YOffset=0mm|HoleType=Round|Shape=RoundedRectangle|*
%AMROUNDEDRECTD17*
21,1,1.450,0.900,0,0,315.0*
21,1,1.250,1.100,0,0,315.0*
1,1,0.200,0.124,-0.760*
1,1,0.200,-0.760,0.124*
1,1,0.200,-0.124,0.760*
1,1,0.200,0.760,-0.124*
%
%ADD17ROUNDEDRECTD17*%
%ADD18C,7.500*%
%ADD19C,1.100*%
%ADD20R,1.100X1.100*%
%ADD21C,0.850*%
%ADD22C,1.150*%
%ADD23C,1.800*%
G04:AMPARAMS|DCode=24|XSize=1.8mm|YSize=1.8mm|CornerRadius=0.22mm|HoleSize=0mm|Usage=FLASHONLY|Rotation=180.000|XOffset=0mm|YOffset=0mm|HoleType=Round|Shape=RoundedRectangle|*
%AMROUNDEDRECTD24*
21,1,1.800,1.360,0,0,180.0*
21,1,1.360,1.800,0,0,180.0*
1,1,0.440,-0.680,0.680*
1,1,0.440,0.680,0.680*
1,1,0.440,0.680,-0.680*
1,1,0.440,-0.680,-0.680*
%
%ADD24ROUNDEDRECTD24*%
D15*
X60879Y3979D02*
D03*
X60321Y3421D02*
D03*
X52679Y12329D02*
D03*
X52121Y11771D02*
D03*
X52021Y12971D02*
D03*
X51462Y12412D02*
D03*
X60229Y4629D02*
D03*
X59671Y4071D02*
D03*
X50579Y10379D02*
D03*
X50021Y9821D02*
D03*
X49972Y11021D02*
D03*
X49413Y10462D02*
D03*
X52861Y1817D02*
D03*
X52302Y1258D02*
D03*
X52209Y2459D02*
D03*
X51650Y1900D02*
D03*
X51559Y3109D02*
D03*
X51000Y2550D02*
D03*
X50909Y3759D02*
D03*
X50350Y3200D02*
D03*
D16*
X52566Y4636D02*
D03*
X58294Y10364D02*
D03*
D17*
X57056Y3858D02*
D03*
X58064Y4866D02*
D03*
X59072Y5874D02*
D03*
X51788Y9126D02*
D03*
X52796Y10134D02*
D03*
X53804Y11142D02*
D03*
D18*
X5000Y7500D02*
D03*
X65000D02*
D03*
D19*
X16865Y8770D02*
D03*
Y7500D02*
D03*
X18135Y8770D02*
D03*
Y7500D02*
D03*
X16865Y10040D02*
D03*
X18135D02*
D03*
X16865Y6230D02*
D03*
X18135D02*
D03*
Y4960D02*
D03*
D20*
X16865D02*
D03*
D21*
X56773Y8844D02*
D03*
D22*
X54086Y6156D02*
D03*
D23*
X47140Y3690D02*
D03*
Y6230D02*
D03*
Y8770D02*
D03*
D24*
Y11310D02*
D03*
M02*
