G04*
G04 #@! TF.GenerationSoftware,Altium Limited,Altium Designer,22.10.1 (41)*
G04*
G04 Layer_Physical_Order=1*
G04 Layer_Color=255*
%FSLAX43Y43*%
%MOMM*%
G71*
G04*
G04 #@! TF.SameCoordinates,A06D47DE-3B52-4099-82B1-BC196321E02B*
G04*
G04*
G04 #@! TF.FilePolarity,Positive*
G04*
G01*
G75*
%ADD10C,0.200*%
G04:AMPARAMS|DCode=12|XSize=0.48mm|YSize=0.38mm|CornerRadius=0mm|HoleSize=0mm|Usage=FLASHONLY|Rotation=135.000|XOffset=0mm|YOffset=0mm|HoleType=Round|Shape=Rectangle|*
%AMROTATEDRECTD12*
4,1,4,0.304,-0.035,0.035,-0.304,-0.304,0.035,-0.035,0.304,0.304,-0.035,0.0*
%
%ADD12ROTATEDRECTD12*%

G04:AMPARAMS|DCode=13|XSize=2mm|YSize=1.8mm|CornerRadius=0.045mm|HoleSize=0mm|Usage=FLASHONLY|Rotation=315.000|XOffset=0mm|YOffset=0mm|HoleType=Round|Shape=RoundedRectangle|*
%AMROUNDEDRECTD13*
21,1,2.000,1.710,0,0,315.0*
21,1,1.910,1.800,0,0,315.0*
1,1,0.090,0.071,-1.280*
1,1,0.090,-1.280,0.071*
1,1,0.090,-0.071,1.280*
1,1,0.090,1.280,-0.071*
%
%ADD13ROUNDEDRECTD13*%
G04:AMPARAMS|DCode=14|XSize=1.35mm|YSize=1mm|CornerRadius=0.05mm|HoleSize=0mm|Usage=FLASHONLY|Rotation=315.000|XOffset=0mm|YOffset=0mm|HoleType=Round|Shape=RoundedRectangle|*
%AMROUNDEDRECTD14*
21,1,1.350,0.900,0,0,315.0*
21,1,1.250,1.000,0,0,315.0*
1,1,0.100,0.124,-0.760*
1,1,0.100,-0.760,0.124*
1,1,0.100,-0.124,0.760*
1,1,0.100,0.760,-0.124*
%
%ADD14ROUNDEDRECTD14*%
%ADD25C,0.500*%
%ADD26C,0.150*%
%ADD27C,0.350*%
%ADD28C,7.400*%
%ADD29C,1.000*%
%ADD30R,1.000X1.000*%
%ADD31C,0.750*%
%ADD32C,1.050*%
%ADD33C,1.700*%
G04:AMPARAMS|DCode=34|XSize=1.7mm|YSize=1.7mm|CornerRadius=0.17mm|HoleSize=0mm|Usage=FLASHONLY|Rotation=180.000|XOffset=0mm|YOffset=0mm|HoleType=Round|Shape=RoundedRectangle|*
%AMROUNDEDRECTD34*
21,1,1.700,1.360,0,0,180.0*
21,1,1.360,1.700,0,0,180.0*
1,1,0.340,-0.680,0.680*
1,1,0.340,0.680,0.680*
1,1,0.340,0.680,-0.680*
1,1,0.340,-0.680,-0.680*
%
%ADD34ROUNDEDRECTD34*%
%ADD35C,0.600*%
G36*
X67547Y14748D02*
X67901Y14653D01*
X68239Y14513D01*
X68557Y14330D01*
X68848Y14107D01*
X69107Y13848D01*
X69330Y13557D01*
X69513Y13239D01*
X69653Y12901D01*
X69748Y12547D01*
X69796Y12183D01*
Y12000D01*
Y3000D01*
Y2817D01*
X69748Y2453D01*
X69653Y2099D01*
X69513Y1761D01*
X69330Y1443D01*
X69107Y1152D01*
X68848Y893D01*
X68557Y670D01*
X68239Y487D01*
X67901Y347D01*
X67547Y252D01*
X67183Y204D01*
X2817D01*
X2453Y252D01*
X2099Y347D01*
X1761Y487D01*
X1443Y670D01*
X1152Y893D01*
X893Y1152D01*
X670Y1443D01*
X487Y1761D01*
X347Y2099D01*
X252Y2453D01*
X204Y2817D01*
Y3000D01*
Y12000D01*
Y12183D01*
X252Y12547D01*
X347Y12901D01*
X487Y13239D01*
X670Y13557D01*
X893Y13848D01*
X1152Y14107D01*
X1443Y14330D01*
X1761Y14513D01*
X2099Y14653D01*
X2453Y14748D01*
X2817Y14796D01*
X67183D01*
X67547Y14748D01*
D02*
G37*
%LPC*%
G36*
X51427Y12893D02*
X51147Y12613D01*
X48798D01*
X48594Y12817D01*
X48564Y12842D01*
X48529Y12860D01*
X48491Y12872D01*
X48452Y12876D01*
X45675D01*
X45635Y12872D01*
X45598Y12860D01*
X45563Y12842D01*
X45532Y12817D01*
X43861Y11145D01*
X17769D01*
X17730Y11141D01*
X17692Y11129D01*
X17657Y11111D01*
X17627Y11086D01*
X17141Y10601D01*
X17105Y10618D01*
X17038Y10642D01*
X16970Y10657D01*
X16900Y10665D01*
X16830D01*
X16760Y10657D01*
X16692Y10642D01*
X16625Y10618D01*
X16562Y10588D01*
X16503Y10551D01*
X16448Y10507D01*
X16398Y10457D01*
X16354Y10402D01*
X16317Y10343D01*
X16287Y10280D01*
X16263Y10213D01*
X16248Y10145D01*
X16240Y10075D01*
Y10005D01*
X16248Y9935D01*
X16263Y9867D01*
X16287Y9800D01*
X16317Y9737D01*
X16354Y9678D01*
X16398Y9623D01*
X16448Y9573D01*
X16503Y9529D01*
X16562Y9492D01*
X16573Y9487D01*
X16578Y9473D01*
Y9337D01*
X16573Y9323D01*
X16562Y9318D01*
X16503Y9281D01*
X16448Y9237D01*
X16398Y9187D01*
X16354Y9132D01*
X16317Y9073D01*
X16287Y9010D01*
X16263Y8943D01*
X16248Y8875D01*
X16240Y8805D01*
Y8735D01*
X16248Y8665D01*
X16263Y8597D01*
X16287Y8530D01*
X16304Y8494D01*
X14764Y6953D01*
X14739Y6923D01*
X14720Y6888D01*
X14709Y6850D01*
X14705Y6811D01*
Y4194D01*
X14709Y4155D01*
X14720Y4117D01*
X14739Y4082D01*
X14764Y4052D01*
X17010Y1806D01*
X17040Y1781D01*
X17075Y1763D01*
X17112Y1751D01*
X17152Y1747D01*
X43103D01*
X44269Y581D01*
X44299Y556D01*
X44334Y538D01*
X44372Y526D01*
X44411Y522D01*
X53326D01*
X53366Y526D01*
X53403Y538D01*
X53438Y556D01*
X53468Y581D01*
X55348Y2461D01*
X57495D01*
X57535Y2465D01*
X57572Y2476D01*
X57607Y2495D01*
X57637Y2520D01*
X58071Y2954D01*
X59902D01*
X59941Y2958D01*
X59979Y2969D01*
X60013Y2988D01*
X60044Y3013D01*
X60163Y3132D01*
X60356Y2940D01*
X60802Y3385D01*
X60285Y3902D01*
X60205Y3821D01*
X60071Y3955D01*
X60152Y4035D01*
X59635Y4552D01*
X59190Y4106D01*
X59706Y3590D01*
X59706D01*
X59831Y3503D01*
X59813Y3432D01*
X59731Y3356D01*
X57988D01*
X57949Y3352D01*
X57911Y3341D01*
X57877Y3322D01*
X57846Y3297D01*
X57519Y2970D01*
X57514Y2971D01*
X57466Y3136D01*
X57941Y3610D01*
X57963Y3637D01*
X57979Y3667D01*
X57989Y3700D01*
X57992Y3735D01*
X57989Y3769D01*
X57979Y3802D01*
X57963Y3832D01*
X57941Y3859D01*
X57057Y4743D01*
X57030Y4765D01*
X57000Y4781D01*
X56967Y4791D01*
X56933Y4794D01*
X56898Y4791D01*
X56865Y4781D01*
X56835Y4765D01*
X56808Y4743D01*
X56198Y4133D01*
X55662D01*
X55622Y4129D01*
X55585Y4118D01*
X55556Y4128D01*
X55484Y4176D01*
X55452Y4213D01*
Y7679D01*
X55448Y7718D01*
X55437Y7756D01*
X55418Y7790D01*
X55393Y7821D01*
X53504Y9710D01*
X53681Y9886D01*
X53702Y9913D01*
X53719Y9943D01*
X53729Y9976D01*
X53732Y10010D01*
X53729Y10045D01*
X53719Y10078D01*
X53702Y10108D01*
X53681Y10135D01*
X52797Y11018D01*
X52770Y11040D01*
X52740Y11057D01*
X52707Y11067D01*
X52672Y11070D01*
X52638Y11067D01*
X52605Y11057D01*
X52575Y11040D01*
X52548Y11018D01*
X51912Y10382D01*
X51890Y10355D01*
X51873Y10325D01*
X51863Y10292D01*
X51860Y10258D01*
X51863Y10223D01*
X51873Y10190D01*
X51890Y10160D01*
X51912Y10133D01*
X52795Y9249D01*
X52822Y9228D01*
X52852Y9211D01*
X52885Y9201D01*
X52920Y9198D01*
X52954Y9201D01*
X52987Y9211D01*
X53017Y9228D01*
X53044Y9249D01*
X53220Y9426D01*
X55050Y7595D01*
Y4289D01*
X52942Y2181D01*
X52825Y2297D01*
X52463Y1936D01*
X51795Y2604D01*
Y2829D01*
X52039Y3073D01*
X51523Y3589D01*
X51078Y3144D01*
X51300Y2922D01*
X51297Y2910D01*
X51135Y2861D01*
X50965Y3031D01*
X50884Y2950D01*
X50750Y3084D01*
X50831Y3165D01*
X50315Y3681D01*
X50070Y3436D01*
X50027D01*
X49987Y3432D01*
X49950Y3421D01*
X49915Y3402D01*
X49885Y3377D01*
X49564Y3057D01*
X49414Y3119D01*
Y3830D01*
X49780Y4196D01*
X49805Y4226D01*
X49824Y4261D01*
X49835Y4299D01*
X49839Y4338D01*
Y8412D01*
X49835Y8451D01*
X49824Y8489D01*
X49805Y8524D01*
X49780Y8554D01*
X49251Y9083D01*
Y9967D01*
X49392Y10039D01*
X49449Y9982D01*
X49521Y10054D01*
X49629Y9945D01*
X49540Y9856D01*
X50056Y9340D01*
X50502Y9785D01*
X49985Y10302D01*
X49913Y10229D01*
X49805Y10338D01*
X49894Y10427D01*
X49378Y10943D01*
X48932Y10498D01*
X49048Y10382D01*
X48908Y10241D01*
X48883Y10211D01*
X48864Y10176D01*
X48853Y10138D01*
X48849Y10099D01*
Y9000D01*
X48853Y8961D01*
X48864Y8923D01*
X48883Y8888D01*
X48908Y8858D01*
X49437Y8329D01*
Y7517D01*
X49363Y7476D01*
X49287Y7465D01*
X49273Y7482D01*
X48108Y8647D01*
X48115Y8727D01*
Y8813D01*
X48108Y8897D01*
X48093Y8981D01*
X48071Y9063D01*
X48042Y9143D01*
X48006Y9221D01*
X47963Y9294D01*
X47914Y9364D01*
X47860Y9429D01*
X47799Y9490D01*
X47734Y9544D01*
X47664Y9593D01*
X47591Y9636D01*
X47513Y9672D01*
X47433Y9701D01*
X47351Y9723D01*
X47267Y9738D01*
X47183Y9745D01*
X47097D01*
X47013Y9738D01*
X46929Y9723D01*
X46847Y9701D01*
X46767Y9672D01*
X46689Y9636D01*
X46616Y9593D01*
X46546Y9544D01*
X46481Y9490D01*
X46420Y9429D01*
X46366Y9364D01*
X46317Y9294D01*
X46274Y9221D01*
X46238Y9143D01*
X46209Y9063D01*
X46187Y8981D01*
X46172Y8897D01*
X46165Y8813D01*
Y8727D01*
X46172Y8643D01*
X46187Y8559D01*
X46209Y8477D01*
X46238Y8397D01*
X46274Y8319D01*
X46317Y8246D01*
X46366Y8176D01*
X46420Y8111D01*
X46481Y8050D01*
X46546Y7996D01*
X46616Y7947D01*
X46689Y7904D01*
X46767Y7868D01*
X46814Y7851D01*
X46788Y7701D01*
X46550D01*
X46511Y7697D01*
X46473Y7686D01*
X46438Y7667D01*
X46408Y7642D01*
X45767Y7001D01*
X20701D01*
X19589Y8113D01*
X19558Y8138D01*
X19523Y8156D01*
X19486Y8168D01*
X19446Y8172D01*
X19017D01*
X18696Y8494D01*
X18713Y8530D01*
X18737Y8597D01*
X18752Y8665D01*
X18760Y8735D01*
Y8805D01*
X18752Y8875D01*
X18737Y8943D01*
X18713Y9010D01*
X18683Y9073D01*
X18646Y9132D01*
X18602Y9187D01*
X18552Y9237D01*
X18497Y9281D01*
X18438Y9318D01*
X18375Y9348D01*
X18308Y9372D01*
X18240Y9387D01*
X18170Y9395D01*
X18100D01*
X18030Y9387D01*
X17962Y9372D01*
X17895Y9348D01*
X17832Y9318D01*
X17773Y9281D01*
X17718Y9237D01*
X17668Y9187D01*
X17624Y9132D01*
X17587Y9073D01*
X17582Y9062D01*
X17568Y9057D01*
X17432D01*
X17418Y9062D01*
X17413Y9073D01*
X17376Y9132D01*
X17332Y9187D01*
X17282Y9237D01*
X17227Y9281D01*
X17168Y9318D01*
X17157Y9323D01*
X17152Y9337D01*
Y9473D01*
X17157Y9487D01*
X17168Y9492D01*
X17227Y9529D01*
X17282Y9573D01*
X17332Y9623D01*
X17376Y9678D01*
X17413Y9737D01*
X17443Y9800D01*
X17467Y9867D01*
X17482Y9935D01*
X17490Y10005D01*
Y10075D01*
X17482Y10145D01*
X17467Y10213D01*
X17443Y10280D01*
X17426Y10316D01*
X17852Y10743D01*
X43944D01*
X43983Y10747D01*
X44021Y10758D01*
X44055Y10777D01*
X44086Y10802D01*
X45758Y12474D01*
X48369D01*
X48572Y12270D01*
X48603Y12245D01*
X48638Y12227D01*
X48675Y12215D01*
X48714Y12211D01*
X51218D01*
X51498Y11931D01*
X51582Y12016D01*
X51716Y11882D01*
X51640Y11806D01*
X52156Y11290D01*
X52602Y11735D01*
X52085Y12252D01*
X52000Y12167D01*
X51867Y12300D01*
X51943Y12377D01*
X51427Y12893D01*
D02*
G37*
G36*
X52644Y12810D02*
X52198Y12365D01*
X52715Y11848D01*
X52778Y11912D01*
X53109Y11580D01*
X52919Y11390D01*
X52897Y11363D01*
X52881Y11333D01*
X52871Y11300D01*
X52868Y11265D01*
X52871Y11231D01*
X52881Y11198D01*
X52897Y11168D01*
X52919Y11141D01*
X53803Y10257D01*
X53830Y10235D01*
X53860Y10219D01*
X53893Y10209D01*
X53927Y10206D01*
X53962Y10209D01*
X53995Y10219D01*
X54025Y10235D01*
X54052Y10257D01*
X54688Y10894D01*
X54710Y10920D01*
X54726Y10951D01*
X54736Y10984D01*
X54740Y11018D01*
X54736Y11052D01*
X54726Y11085D01*
X54710Y11116D01*
X54688Y11142D01*
X53804Y12026D01*
X53778Y12048D01*
X53747Y12064D01*
X53714Y12074D01*
X53680Y12078D01*
X53646Y12074D01*
X53613Y12064D01*
X53582Y12048D01*
X53556Y12026D01*
X53429Y11899D01*
X53097Y12231D01*
X53160Y12294D01*
X52644Y12810D01*
D02*
G37*
G36*
X56802Y9344D02*
X56745D01*
X56690Y9337D01*
X56635Y9325D01*
X56582Y9306D01*
X56531Y9282D01*
X56484Y9252D01*
X56440Y9217D01*
X56400Y9177D01*
X56365Y9133D01*
X56335Y9086D01*
X56311Y9035D01*
X56292Y8982D01*
X56280Y8927D01*
X56273Y8872D01*
Y8815D01*
X56280Y8760D01*
X56292Y8705D01*
X56311Y8652D01*
X56335Y8601D01*
X56365Y8554D01*
X56400Y8510D01*
X56440Y8470D01*
X56484Y8435D01*
X56531Y8405D01*
X56582Y8381D01*
X56635Y8362D01*
X56690Y8350D01*
X56745Y8344D01*
X56802D01*
X56857Y8350D01*
X56912Y8362D01*
X56965Y8381D01*
X57016Y8405D01*
X57063Y8435D01*
X57107Y8470D01*
X57147Y8510D01*
X57182Y8554D01*
X57212Y8601D01*
X57236Y8652D01*
X57255Y8705D01*
X57267Y8760D01*
X57273Y8815D01*
Y8872D01*
X57267Y8927D01*
X57255Y8982D01*
X57236Y9035D01*
X57212Y9086D01*
X57182Y9133D01*
X57147Y9177D01*
X57107Y9217D01*
X57063Y9252D01*
X57016Y9282D01*
X56965Y9306D01*
X56912Y9325D01*
X56857Y9337D01*
X56802Y9344D01*
D02*
G37*
G36*
X50544Y10860D02*
X50098Y10415D01*
X50615Y9898D01*
X50648Y9932D01*
X51055Y9526D01*
X50904Y9374D01*
X50882Y9348D01*
X50866Y9317D01*
X50856Y9284D01*
X50852Y9250D01*
X50856Y9216D01*
X50866Y9183D01*
X50882Y9152D01*
X50904Y9126D01*
X51788Y8242D01*
X51814Y8220D01*
X51845Y8204D01*
X51878Y8194D01*
X51912Y8190D01*
X51946Y8194D01*
X51979Y8204D01*
X52010Y8220D01*
X52036Y8242D01*
X52673Y8878D01*
X52695Y8905D01*
X52711Y8935D01*
X52721Y8968D01*
X52724Y9003D01*
X52721Y9037D01*
X52711Y9070D01*
X52695Y9100D01*
X52673Y9127D01*
X51789Y10011D01*
X51762Y10033D01*
X51732Y10049D01*
X51699Y10059D01*
X51665Y10062D01*
X51630Y10059D01*
X51597Y10049D01*
X51567Y10033D01*
X51540Y10011D01*
X51374Y9845D01*
X50968Y10251D01*
X51060Y10344D01*
X50544Y10860D01*
D02*
G37*
G36*
X54118Y6806D02*
X54055D01*
X53991Y6800D01*
X53928Y6788D01*
X53867Y6769D01*
X53808Y6745D01*
X53752Y6715D01*
X53699Y6679D01*
X53649Y6639D01*
X53604Y6594D01*
X53564Y6544D01*
X53528Y6491D01*
X53498Y6435D01*
X53474Y6376D01*
X53455Y6315D01*
X53443Y6252D01*
X53437Y6188D01*
Y6125D01*
X53443Y6061D01*
X53455Y5998D01*
X53474Y5937D01*
X53498Y5878D01*
X53528Y5822D01*
X53564Y5769D01*
X53604Y5719D01*
X53649Y5674D01*
X53699Y5634D01*
X53752Y5598D01*
X53808Y5568D01*
X53867Y5544D01*
X53928Y5525D01*
X53991Y5513D01*
X54055Y5506D01*
X54118D01*
X54182Y5513D01*
X54245Y5525D01*
X54306Y5544D01*
X54365Y5568D01*
X54421Y5598D01*
X54474Y5634D01*
X54524Y5674D01*
X54569Y5719D01*
X54609Y5769D01*
X54645Y5822D01*
X54675Y5878D01*
X54699Y5937D01*
X54718Y5998D01*
X54730Y6061D01*
X54736Y6125D01*
Y6188D01*
X54730Y6252D01*
X54718Y6315D01*
X54699Y6376D01*
X54675Y6435D01*
X54645Y6491D01*
X54609Y6544D01*
X54569Y6594D01*
X54524Y6639D01*
X54474Y6679D01*
X54421Y6715D01*
X54365Y6745D01*
X54306Y6769D01*
X54245Y6788D01*
X54182Y6800D01*
X54118Y6806D01*
D02*
G37*
G36*
X58948Y6810D02*
X58914Y6806D01*
X58881Y6796D01*
X58850Y6780D01*
X58824Y6758D01*
X58187Y6122D01*
X58165Y6095D01*
X58149Y6065D01*
X58139Y6032D01*
X58136Y5997D01*
X58139Y5963D01*
X58149Y5930D01*
X58165Y5900D01*
X58187Y5873D01*
X59071Y4989D01*
X59098Y4967D01*
X59128Y4951D01*
X59161Y4941D01*
X59195Y4938D01*
X59230Y4941D01*
X59263Y4951D01*
X59293Y4967D01*
X59320Y4989D01*
X59416Y5086D01*
X59793Y4709D01*
X59748Y4665D01*
X60265Y4148D01*
X60403Y4287D01*
X60426Y4296D01*
X60456Y4315D01*
X60483Y4338D01*
X60506Y4365D01*
X60524Y4395D01*
X60534Y4418D01*
X60710Y4594D01*
X60194Y5110D01*
X60112Y5028D01*
X59735Y5405D01*
X59956Y5626D01*
X59978Y5652D01*
X59994Y5683D01*
X60004Y5716D01*
X60008Y5750D01*
X60004Y5784D01*
X59994Y5817D01*
X59978Y5848D01*
X59956Y5874D01*
X59072Y6758D01*
X59046Y6780D01*
X59015Y6796D01*
X58982Y6806D01*
X58948Y6810D01*
D02*
G37*
%LPD*%
G36*
X19777Y5232D02*
X19814Y5199D01*
X19855Y5172D01*
X19899Y5150D01*
X19945Y5135D01*
X19993Y5125D01*
X20042Y5122D01*
X44647D01*
X45274Y4494D01*
Y3200D01*
X45277Y3151D01*
X45287Y3103D01*
X45303Y3056D01*
X45325Y3012D01*
X45352Y2971D01*
X45384Y2934D01*
X46129Y2190D01*
X46066Y2040D01*
X45594D01*
X44142Y3492D01*
X44112Y3517D01*
X44077Y3536D01*
X44039Y3547D01*
X44000Y3551D01*
X17550D01*
X17066Y4035D01*
Y4335D01*
X17490D01*
Y4530D01*
X17573Y4572D01*
X17640Y4578D01*
X17668Y4543D01*
X17718Y4493D01*
X17773Y4449D01*
X17832Y4412D01*
X17895Y4382D01*
X17962Y4358D01*
X18030Y4343D01*
X18100Y4335D01*
X18170D01*
X18240Y4343D01*
X18308Y4358D01*
X18375Y4382D01*
X18438Y4412D01*
X18497Y4449D01*
X18552Y4493D01*
X18602Y4543D01*
X18646Y4598D01*
X18683Y4657D01*
X18713Y4720D01*
X18737Y4787D01*
X18752Y4855D01*
X18760Y4925D01*
Y4995D01*
X18752Y5065D01*
X18737Y5133D01*
X18713Y5200D01*
X18683Y5263D01*
X18646Y5322D01*
X18602Y5377D01*
X18552Y5427D01*
X18497Y5471D01*
X18438Y5508D01*
X18427Y5513D01*
X18422Y5527D01*
Y5663D01*
X18427Y5677D01*
X18438Y5682D01*
X18497Y5719D01*
X18552Y5763D01*
X18602Y5813D01*
X18635Y5854D01*
X19154D01*
X19777Y5232D01*
D02*
G37*
G36*
X50385Y2719D02*
X50466Y2800D01*
X50600Y2666D01*
X50519Y2585D01*
X51035Y2069D01*
X51232Y2266D01*
X51405Y2226D01*
X51419Y2185D01*
X51169Y1935D01*
X51285Y1819D01*
X50763Y1297D01*
X48585D01*
X48523Y1447D01*
X50090Y3014D01*
X50385Y2719D01*
D02*
G37*
G36*
X57017Y3013D02*
X56964Y2870D01*
X56958Y2863D01*
X55265D01*
X55226Y2859D01*
X55188Y2848D01*
X55154Y2829D01*
X55123Y2804D01*
X53243Y924D01*
X53026D01*
X53019Y1074D01*
X53043Y1077D01*
X53080Y1088D01*
X53115Y1107D01*
X53146Y1132D01*
X55745Y3731D01*
X56299D01*
X57017Y3013D01*
D02*
G37*
D10*
X57056Y3794D02*
Y3858D01*
X52679Y12329D02*
X53804Y11205D01*
Y11142D02*
Y11205D01*
X50471Y10429D02*
X51774Y9126D01*
X51788D01*
X59072Y5749D02*
X60323Y4498D01*
X59072Y5749D02*
Y5874D01*
D12*
X60879Y3979D02*
D03*
X60321Y3421D02*
D03*
X52679Y12329D02*
D03*
X52121Y11771D02*
D03*
X52021Y12971D02*
D03*
X51462Y12412D02*
D03*
X60229Y4629D02*
D03*
X59671Y4071D02*
D03*
X50579Y10379D02*
D03*
X50021Y9821D02*
D03*
X49972Y11021D02*
D03*
X49413Y10462D02*
D03*
X52861Y1817D02*
D03*
X52302Y1258D02*
D03*
X52209Y2459D02*
D03*
X51650Y1900D02*
D03*
X51559Y3109D02*
D03*
X51000Y2550D02*
D03*
X50909Y3759D02*
D03*
X50350Y3200D02*
D03*
D13*
X52566Y4636D02*
D03*
X58294Y10364D02*
D03*
D14*
X57056Y3858D02*
D03*
X58064Y4866D02*
D03*
X59072Y5874D02*
D03*
X51788Y9126D02*
D03*
X52796Y10134D02*
D03*
X53804Y11142D02*
D03*
D25*
X20042Y5498D02*
X44802D01*
X45650Y4650D01*
Y3200D02*
Y4650D01*
Y3200D02*
X46450Y2400D01*
X19310Y6230D02*
X20042Y5498D01*
X46450Y2400D02*
X47859D01*
X48602Y3143D01*
Y4178D01*
X47453Y8770D02*
X49007Y7216D01*
Y4583D02*
Y7216D01*
X48602Y4178D02*
X49007Y4583D01*
X18135Y6230D02*
X19310D01*
X47140Y8770D02*
X47453D01*
D26*
X44000Y3350D02*
X45511Y1839D01*
X48133D02*
X49213Y2919D01*
X45511Y1839D02*
X48133D01*
X48255Y1464D02*
X50027Y3235D01*
X43682Y2868D02*
X45086Y1464D01*
X48255D01*
X44721Y1096D02*
X50846D01*
X51650Y1900D01*
X43414Y2403D02*
X44721Y1096D01*
X43186Y1948D02*
X44411Y723D01*
X53326D02*
X55265Y2662D01*
X44411Y723D02*
X53326D01*
X55265Y2662D02*
X57495D01*
X17249Y2403D02*
X43414D01*
X17152Y1948D02*
X43186D01*
X17359Y2868D02*
X43682D01*
X17467Y3350D02*
X44000D01*
X49213Y2919D02*
Y3913D01*
X50315Y3235D02*
X50350Y3200D01*
X51594Y2521D02*
Y3073D01*
Y2521D02*
X52841Y1274D01*
X49213Y3913D02*
X49638Y4338D01*
Y8412D01*
X50027Y3235D02*
X50315D01*
X15358Y4293D02*
X17249Y2403D01*
X14906Y4194D02*
X17152Y1948D01*
X15790Y4438D02*
X17359Y2868D01*
X16865Y3952D02*
X17467Y3350D01*
X16865Y3952D02*
Y4960D01*
X49050Y9000D02*
X49638Y8412D01*
X47140Y3690D02*
X48420Y4970D01*
Y6763D01*
X47682Y7500D02*
X48420Y6763D01*
X45675Y12675D02*
X48452D01*
X48714Y12412D02*
X51462D01*
X48452Y12675D02*
X48714Y12412D01*
X43944Y10944D02*
X45675Y12675D01*
X17769Y10944D02*
X43944D01*
X16865Y10040D02*
X17769Y10944D01*
X14906Y4194D02*
Y6811D01*
X16865Y8770D01*
X15358Y4293D02*
Y5993D01*
X16865Y7500D01*
X15790Y5409D02*
X16375Y5995D01*
X15790Y4438D02*
Y5409D01*
X16400Y5995D02*
X16635Y6230D01*
X16375Y5995D02*
X16400D01*
X16635Y6230D02*
X16865D01*
X52302Y1251D02*
Y1258D01*
X57495Y2662D02*
X57988Y3155D01*
X59902D01*
X60167Y3421D02*
X60321D01*
X59671Y4071D02*
X60321Y3421D01*
X60321D01*
X59902Y3155D02*
X60167Y3421D01*
X51650Y1900D02*
X51655D01*
X52297Y1258D02*
X52302D01*
X51655Y1900D02*
X52297Y1258D01*
X52841Y1274D02*
X53003D01*
X55662Y3932D01*
X56983D01*
X57056Y3858D01*
X52850Y1805D02*
X55251Y4206D01*
X52796Y10134D02*
X55251Y7679D01*
Y4206D02*
Y7679D01*
X50350Y3200D02*
X51000Y2550D01*
X50350Y3200D02*
Y3200D01*
X51559Y3109D02*
X51594Y3073D01*
X52796Y10134D02*
Y10134D01*
X51471Y12412D02*
X52112Y11771D01*
X52121D01*
X49413Y10445D02*
Y10462D01*
X50021Y9821D02*
Y9838D01*
X49413Y10445D02*
X50021Y9838D01*
X49050Y10099D02*
X49413Y10462D01*
X49050Y9000D02*
Y10099D01*
X46550Y7500D02*
X47682D01*
X18934Y7971D02*
X19446D01*
X20617Y6800D01*
X18135Y7500D02*
X19217D01*
X20487Y6230D02*
X47140D01*
X20617Y6800D02*
X45850D01*
X19217Y7500D02*
X20487Y6230D01*
X45850Y6800D02*
X46550Y7500D01*
X18135Y8770D02*
X18934Y7971D01*
D27*
X57238Y11419D02*
X58294Y10364D01*
X59349Y9308D01*
X52548Y4618D02*
X53604Y3563D01*
X57307Y5640D02*
X58072Y4874D01*
X51493Y5674D02*
X52548Y4618D01*
X50469Y4195D02*
X50905Y3759D01*
X50905D01*
X50465Y4195D02*
X50469D01*
X52209Y2462D02*
X52599Y2852D01*
X49972Y11025D02*
X50362Y11415D01*
X52021Y12974D02*
X52411Y13364D01*
X60879Y3983D02*
X61269Y4373D01*
D28*
X5000Y7500D02*
D03*
X65000D02*
D03*
D29*
X16865Y8770D02*
D03*
Y7500D02*
D03*
X18135Y8770D02*
D03*
Y7500D02*
D03*
X16865Y10040D02*
D03*
X18135D02*
D03*
X16865Y6230D02*
D03*
X18135D02*
D03*
Y4960D02*
D03*
D30*
X16865D02*
D03*
D31*
X56773Y8844D02*
D03*
D32*
X54086Y6156D02*
D03*
D33*
X47140Y3690D02*
D03*
Y6230D02*
D03*
Y8770D02*
D03*
D34*
Y11310D02*
D03*
D35*
X13150Y3350D02*
D03*
Y5350D02*
D03*
Y7350D02*
D03*
Y11350D02*
D03*
Y9350D02*
D03*
X69500Y4000D02*
D03*
Y3000D02*
D03*
Y5000D02*
D03*
Y7000D02*
D03*
Y6000D02*
D03*
Y10000D02*
D03*
Y11000D02*
D03*
Y9000D02*
D03*
Y8000D02*
D03*
Y12000D02*
D03*
X500D02*
D03*
Y8000D02*
D03*
Y9000D02*
D03*
Y11000D02*
D03*
Y10000D02*
D03*
Y6000D02*
D03*
Y7000D02*
D03*
Y5000D02*
D03*
Y3000D02*
D03*
Y4000D02*
D03*
X19250Y12100D02*
D03*
X22250D02*
D03*
X25250D02*
D03*
X31250D02*
D03*
X28250D02*
D03*
X34250D02*
D03*
X37250D02*
D03*
X43250D02*
D03*
X40250D02*
D03*
X20350Y10050D02*
D03*
X23350D02*
D03*
X26350D02*
D03*
X32350D02*
D03*
X29350D02*
D03*
X35350D02*
D03*
X38350D02*
D03*
X44350D02*
D03*
X41350D02*
D03*
X21000Y7850D02*
D03*
X24000D02*
D03*
X27000D02*
D03*
X33000D02*
D03*
X30000D02*
D03*
X36000D02*
D03*
X39000D02*
D03*
X45000D02*
D03*
X42000D02*
D03*
X40200Y4200D02*
D03*
X43200D02*
D03*
X37200D02*
D03*
X34200D02*
D03*
X28200D02*
D03*
X31200D02*
D03*
X25200D02*
D03*
X22200D02*
D03*
X19200D02*
D03*
X55950Y3250D02*
D03*
X50450Y1750D02*
D03*
X49450D02*
D03*
X4000Y500D02*
D03*
X5000D02*
D03*
X7000D02*
D03*
X6000D02*
D03*
X10000D02*
D03*
X11000D02*
D03*
X9000D02*
D03*
X8000D02*
D03*
X14000D02*
D03*
X15000D02*
D03*
X13000D02*
D03*
X12000D02*
D03*
X18000D02*
D03*
X19000D02*
D03*
X17000D02*
D03*
X16000D02*
D03*
X22000D02*
D03*
X23000D02*
D03*
X21000D02*
D03*
X20000D02*
D03*
X26000D02*
D03*
X27000D02*
D03*
X25000D02*
D03*
X24000D02*
D03*
X30000D02*
D03*
X31000D02*
D03*
X29000D02*
D03*
X28000D02*
D03*
X34000D02*
D03*
X35000D02*
D03*
X33000D02*
D03*
X32000D02*
D03*
X38000D02*
D03*
X39000D02*
D03*
X37000D02*
D03*
X36000D02*
D03*
X42000D02*
D03*
X43000D02*
D03*
X41000D02*
D03*
X40000D02*
D03*
X54168D02*
D03*
X55168D02*
D03*
X58168D02*
D03*
X59168D02*
D03*
X57168D02*
D03*
X56168D02*
D03*
X62168D02*
D03*
X63168D02*
D03*
X61168D02*
D03*
X60168D02*
D03*
X66168D02*
D03*
X65168D02*
D03*
X64168D02*
D03*
Y14500D02*
D03*
X65168D02*
D03*
X66168D02*
D03*
X60168D02*
D03*
X61168D02*
D03*
X63168D02*
D03*
X62168D02*
D03*
X56168D02*
D03*
X57168D02*
D03*
X59168D02*
D03*
X58168D02*
D03*
X52168D02*
D03*
X53168D02*
D03*
X55168D02*
D03*
X54168D02*
D03*
X48000D02*
D03*
X49000D02*
D03*
X51000D02*
D03*
X50000D02*
D03*
X44000D02*
D03*
X45000D02*
D03*
X47000D02*
D03*
X46000D02*
D03*
X40000D02*
D03*
X41000D02*
D03*
X43000D02*
D03*
X42000D02*
D03*
X36000D02*
D03*
X37000D02*
D03*
X39000D02*
D03*
X38000D02*
D03*
X32000D02*
D03*
X33000D02*
D03*
X35000D02*
D03*
X34000D02*
D03*
X28000D02*
D03*
X29000D02*
D03*
X31000D02*
D03*
X30000D02*
D03*
X24000D02*
D03*
X25000D02*
D03*
X27000D02*
D03*
X26000D02*
D03*
X20000D02*
D03*
X21000D02*
D03*
X23000D02*
D03*
X22000D02*
D03*
X16000D02*
D03*
X17000D02*
D03*
X19000D02*
D03*
X18000D02*
D03*
X12000D02*
D03*
X13000D02*
D03*
X15000D02*
D03*
X14000D02*
D03*
X8000D02*
D03*
X9000D02*
D03*
X11000D02*
D03*
X10000D02*
D03*
X6000D02*
D03*
X7000D02*
D03*
X5000D02*
D03*
X4000D02*
D03*
X57235Y11419D02*
D03*
X59353Y9308D02*
D03*
X53607Y3563D02*
D03*
X51489Y5674D02*
D03*
X50465Y4195D02*
D03*
X52599Y2856D02*
D03*
X57303Y5640D02*
D03*
X50362Y11418D02*
D03*
X52411Y13368D02*
D03*
X61269Y4376D02*
D03*
M02*
