G04*
G04 #@! TF.GenerationSoftware,Altium Limited,Altium Designer,22.10.1 (41)*
G04*
G04 Layer_Color=32896*
%FSLAX43Y43*%
%MOMM*%
G71*
G04*
G04 #@! TF.SameCoordinates,A06D47DE-3B52-4099-82B1-BC196321E02B*
G04*
G04*
G04 #@! TF.FilePolarity,Positive*
G04*
G01*
G75*
%ADD10C,0.200*%
G36*
X42254Y11238D02*
X42091D01*
Y11231D01*
X42020D01*
Y11224D01*
X41963D01*
Y11217D01*
X41921D01*
Y11210D01*
X41871D01*
Y11203D01*
X41836D01*
Y11195D01*
X41800D01*
Y11188D01*
X41772D01*
Y11181D01*
X41744D01*
Y11174D01*
X41715D01*
Y11167D01*
X41687D01*
Y11160D01*
X41658D01*
Y11153D01*
X41637D01*
Y11146D01*
X41616D01*
Y11139D01*
X41588D01*
Y11132D01*
X41566D01*
Y11125D01*
X41545D01*
Y11117D01*
X41531D01*
Y11110D01*
X41510D01*
Y11103D01*
X41488D01*
Y11096D01*
X41474D01*
Y11089D01*
X41453D01*
Y11082D01*
X41439D01*
Y11075D01*
X41417D01*
Y11068D01*
X41403D01*
Y11061D01*
X41389D01*
Y11054D01*
X41375D01*
Y11047D01*
X41353D01*
Y11039D01*
X41339D01*
Y11032D01*
X41325D01*
Y11025D01*
X41311D01*
Y11018D01*
X41297D01*
Y11011D01*
X41283D01*
Y11004D01*
X41268D01*
Y10997D01*
X41261D01*
Y10990D01*
X41247D01*
Y10983D01*
X41233D01*
Y10976D01*
X41219D01*
Y10969D01*
X41204D01*
Y10961D01*
X41197D01*
Y10954D01*
X41183D01*
Y10947D01*
X41169D01*
Y10940D01*
X41155D01*
Y10933D01*
X41148D01*
Y10926D01*
X41134D01*
Y10919D01*
X41126D01*
Y10912D01*
X41112D01*
Y10905D01*
X41105D01*
Y10898D01*
X41091D01*
Y10890D01*
X41077D01*
Y10883D01*
X41070D01*
Y10876D01*
X41063D01*
Y10869D01*
X41048D01*
Y10862D01*
X41041D01*
Y10855D01*
X41027D01*
Y10848D01*
X41020D01*
Y10841D01*
X41013D01*
Y10834D01*
X40999D01*
Y10827D01*
X40992D01*
Y10820D01*
X40985D01*
Y10812D01*
X40970D01*
Y10805D01*
X40963D01*
Y10798D01*
X40956D01*
Y10791D01*
X40942D01*
Y10784D01*
X40935D01*
Y10777D01*
X40928D01*
Y10770D01*
X40921D01*
Y10763D01*
X40907D01*
Y10756D01*
X40899D01*
Y10749D01*
X40892D01*
Y10742D01*
X40885D01*
Y10734D01*
X40878D01*
Y10727D01*
X40871D01*
Y10720D01*
X40864D01*
Y10713D01*
X40850D01*
Y10706D01*
X40843D01*
Y10699D01*
X40836D01*
Y10692D01*
X40829D01*
Y10685D01*
X40821D01*
Y10678D01*
X40814D01*
Y10671D01*
X40807D01*
Y10663D01*
X40800D01*
Y10656D01*
X40793D01*
Y10649D01*
X40786D01*
Y10642D01*
X40779D01*
Y10635D01*
X40772D01*
Y10628D01*
X40765D01*
Y10621D01*
X40758D01*
Y10614D01*
X40751D01*
Y10607D01*
X40743D01*
Y10600D01*
X40736D01*
Y10593D01*
X40729D01*
Y10585D01*
Y10578D01*
X40722D01*
Y10571D01*
X40715D01*
Y10564D01*
X40708D01*
Y10557D01*
X40701D01*
Y10550D01*
X40694D01*
Y10543D01*
X40687D01*
Y10536D01*
X40680D01*
Y10529D01*
X40673D01*
Y10522D01*
Y10515D01*
X40665D01*
Y10507D01*
X40658D01*
Y10500D01*
X40651D01*
Y10493D01*
X40644D01*
Y10486D01*
Y10479D01*
X40637D01*
Y10472D01*
X40630D01*
Y10465D01*
X40623D01*
Y10458D01*
X40616D01*
Y10451D01*
Y10444D01*
X40609D01*
Y10436D01*
X40602D01*
Y10429D01*
X40594D01*
Y10422D01*
Y10415D01*
X40587D01*
Y10408D01*
X40580D01*
Y10401D01*
Y10394D01*
X40573D01*
Y10387D01*
X40566D01*
Y10380D01*
X40559D01*
Y10373D01*
Y10366D01*
X40552D01*
Y10358D01*
X40545D01*
Y10351D01*
Y10344D01*
X40538D01*
Y10337D01*
X40531D01*
Y10330D01*
Y10323D01*
X40524D01*
Y10316D01*
X40516D01*
Y10309D01*
Y10302D01*
X40509D01*
Y10295D01*
Y10288D01*
X40502D01*
Y10280D01*
X40495D01*
Y10273D01*
Y10266D01*
X40488D01*
Y10259D01*
Y10252D01*
X40481D01*
Y10245D01*
X40474D01*
Y10238D01*
Y10231D01*
X40467D01*
Y10224D01*
Y10217D01*
X40460D01*
Y10210D01*
Y10202D01*
X40453D01*
Y10195D01*
X40446D01*
Y10188D01*
Y10181D01*
X40438D01*
Y10174D01*
Y10167D01*
X40431D01*
Y10160D01*
Y10153D01*
X40424D01*
Y10146D01*
Y10139D01*
X40417D01*
Y10131D01*
Y10124D01*
X40410D01*
Y10117D01*
Y10110D01*
X40403D01*
Y10103D01*
Y10096D01*
X40396D01*
Y10089D01*
Y10082D01*
X40389D01*
Y10075D01*
Y10068D01*
Y10061D01*
X40382D01*
Y10053D01*
Y10046D01*
X40375D01*
Y10039D01*
Y10032D01*
X40367D01*
Y10025D01*
Y10018D01*
X40360D01*
Y10011D01*
Y10004D01*
Y9997D01*
X40353D01*
Y9990D01*
Y9983D01*
X40346D01*
Y9975D01*
Y9968D01*
Y9961D01*
X40339D01*
Y9954D01*
Y9947D01*
X40332D01*
Y9940D01*
Y9933D01*
Y9926D01*
X40325D01*
Y9919D01*
Y9912D01*
Y9904D01*
X40318D01*
Y9897D01*
Y9890D01*
Y9883D01*
X40311D01*
Y9876D01*
Y9869D01*
Y9862D01*
X40304D01*
Y9855D01*
Y9848D01*
Y9841D01*
X40297D01*
Y9834D01*
Y9826D01*
Y9819D01*
X40289D01*
Y9812D01*
Y9805D01*
Y9798D01*
Y9791D01*
X40282D01*
Y9784D01*
Y9777D01*
Y9770D01*
X40275D01*
Y9763D01*
Y9756D01*
Y9748D01*
Y9741D01*
X40268D01*
Y9734D01*
Y9727D01*
Y9720D01*
Y9713D01*
X40261D01*
Y9706D01*
Y9699D01*
Y9692D01*
Y9685D01*
X40254D01*
Y9677D01*
Y9670D01*
Y9663D01*
Y9656D01*
Y9649D01*
X40247D01*
Y9642D01*
Y9635D01*
Y9628D01*
Y9621D01*
Y9614D01*
X40240D01*
Y9607D01*
Y9599D01*
Y9592D01*
Y9585D01*
Y9578D01*
Y9571D01*
X40233D01*
Y9564D01*
Y9557D01*
Y9550D01*
Y9543D01*
Y9536D01*
Y9529D01*
X40226D01*
Y9521D01*
Y9514D01*
Y9507D01*
Y9500D01*
Y9493D01*
Y9486D01*
Y9479D01*
X40219D01*
Y9472D01*
Y9465D01*
Y9458D01*
Y9451D01*
Y9443D01*
Y9436D01*
Y9429D01*
Y9422D01*
Y9415D01*
Y9408D01*
X40211D01*
Y9401D01*
Y9394D01*
Y9387D01*
Y9380D01*
Y9372D01*
Y9365D01*
Y9358D01*
Y9351D01*
Y9344D01*
Y9337D01*
Y9330D01*
Y9323D01*
Y9316D01*
Y9309D01*
Y9302D01*
Y9294D01*
Y9287D01*
Y9280D01*
X40204D01*
Y9273D01*
Y9266D01*
Y9259D01*
Y9252D01*
Y9245D01*
Y9238D01*
Y9231D01*
Y9224D01*
Y9216D01*
Y9209D01*
Y9202D01*
Y9195D01*
Y9188D01*
Y9181D01*
Y9174D01*
Y9167D01*
Y9160D01*
Y9153D01*
Y9146D01*
Y9138D01*
Y9131D01*
Y9124D01*
X40211D01*
Y9117D01*
Y9110D01*
Y9103D01*
Y9096D01*
Y9089D01*
Y9082D01*
Y9075D01*
Y9067D01*
Y9060D01*
Y9053D01*
Y9046D01*
Y9039D01*
Y9032D01*
Y9025D01*
Y9018D01*
Y9011D01*
Y9004D01*
Y8997D01*
Y8989D01*
X40219D01*
Y8982D01*
Y8975D01*
Y8968D01*
Y8961D01*
Y8954D01*
Y8947D01*
Y8940D01*
Y8933D01*
Y8926D01*
X40226D01*
Y8919D01*
Y8911D01*
Y8904D01*
Y8897D01*
Y8890D01*
Y8883D01*
Y8876D01*
Y8869D01*
X40233D01*
Y8862D01*
Y8855D01*
Y8848D01*
Y8840D01*
Y8833D01*
Y8826D01*
X40240D01*
Y8819D01*
Y8812D01*
Y8805D01*
Y8798D01*
Y8791D01*
Y8784D01*
X40247D01*
Y8777D01*
Y8770D01*
Y8762D01*
Y8755D01*
Y8748D01*
X40254D01*
Y8741D01*
Y8734D01*
Y8727D01*
Y8720D01*
Y8713D01*
X40261D01*
Y8706D01*
Y8699D01*
Y8692D01*
Y8684D01*
X40268D01*
Y8677D01*
Y8670D01*
Y8663D01*
Y8656D01*
X40275D01*
Y8649D01*
Y8642D01*
Y8635D01*
Y8628D01*
X40282D01*
Y8621D01*
Y8613D01*
Y8606D01*
X40289D01*
Y8599D01*
Y8592D01*
Y8585D01*
Y8578D01*
X40297D01*
Y8571D01*
Y8564D01*
Y8557D01*
X40304D01*
Y8550D01*
Y8543D01*
Y8535D01*
X40311D01*
Y8528D01*
Y8521D01*
Y8514D01*
X40318D01*
Y8507D01*
Y8500D01*
Y8493D01*
X40325D01*
Y8486D01*
Y8479D01*
Y8472D01*
X40332D01*
Y8465D01*
Y8457D01*
Y8450D01*
X40339D01*
Y8443D01*
Y8436D01*
X40346D01*
Y8429D01*
Y8422D01*
Y8415D01*
X40353D01*
Y8408D01*
Y8401D01*
X40360D01*
Y8394D01*
Y8387D01*
Y8379D01*
X40367D01*
Y8372D01*
Y8365D01*
X40375D01*
Y8358D01*
Y8351D01*
X40382D01*
Y8344D01*
Y8337D01*
X40389D01*
Y8330D01*
Y8323D01*
Y8316D01*
X40396D01*
Y8308D01*
Y8301D01*
X40403D01*
Y8294D01*
Y8287D01*
X40410D01*
Y8280D01*
Y8273D01*
X40417D01*
Y8266D01*
Y8259D01*
X40424D01*
Y8252D01*
Y8245D01*
X40431D01*
Y8238D01*
Y8230D01*
X40438D01*
Y8223D01*
X40446D01*
Y8216D01*
Y8209D01*
X40453D01*
Y8202D01*
Y8195D01*
X40460D01*
Y8188D01*
Y8181D01*
X40467D01*
Y8174D01*
Y8167D01*
X40474D01*
Y8160D01*
X40481D01*
Y8152D01*
Y8145D01*
X40488D01*
Y8138D01*
Y8131D01*
X40495D01*
Y8124D01*
X40502D01*
Y8117D01*
Y8110D01*
X40509D01*
Y8103D01*
X40516D01*
Y8096D01*
Y8089D01*
X40524D01*
Y8081D01*
X40531D01*
Y8074D01*
Y8067D01*
X40538D01*
Y8060D01*
X40545D01*
Y8053D01*
Y8046D01*
X40552D01*
Y8039D01*
X40559D01*
Y8032D01*
Y8025D01*
X40566D01*
Y8018D01*
X40573D01*
Y8011D01*
X40580D01*
Y8003D01*
Y7996D01*
X40587D01*
Y7989D01*
X40594D01*
Y7982D01*
X40602D01*
Y7975D01*
Y7968D01*
X40609D01*
Y7961D01*
X40616D01*
Y7954D01*
X40623D01*
Y7947D01*
Y7940D01*
X40630D01*
Y7933D01*
X40637D01*
Y7925D01*
X40644D01*
Y7918D01*
X40651D01*
Y7911D01*
X40658D01*
Y7904D01*
Y7897D01*
X40665D01*
Y7890D01*
X40673D01*
Y7883D01*
X40680D01*
Y7876D01*
X40687D01*
Y7869D01*
X40694D01*
Y7862D01*
X40701D01*
Y7854D01*
X40708D01*
Y7847D01*
Y7840D01*
X40715D01*
Y7833D01*
X40722D01*
Y7826D01*
X40729D01*
Y7819D01*
X40736D01*
Y7812D01*
X40743D01*
Y7805D01*
X40751D01*
Y7798D01*
X40758D01*
Y7791D01*
X40765D01*
Y7784D01*
X40772D01*
Y7776D01*
X40779D01*
Y7769D01*
X40786D01*
Y7762D01*
X40793D01*
Y7755D01*
X40800D01*
Y7748D01*
X40807D01*
Y7741D01*
X40814D01*
Y7734D01*
X40821D01*
Y7727D01*
X40829D01*
Y7720D01*
X40836D01*
Y7713D01*
X40843D01*
Y7706D01*
X40850D01*
Y7698D01*
X40857D01*
Y7691D01*
X40871D01*
Y7684D01*
X40878D01*
Y7677D01*
X40885D01*
Y7670D01*
X40892D01*
Y7663D01*
X40899D01*
Y7656D01*
X40907D01*
Y7649D01*
X40914D01*
Y7642D01*
X40928D01*
Y7635D01*
X40935D01*
Y7628D01*
X40942D01*
Y7620D01*
X40949D01*
Y7613D01*
X40963D01*
Y7606D01*
X40970D01*
Y7599D01*
X40978D01*
Y7592D01*
X40985D01*
Y7585D01*
X40999D01*
Y7578D01*
X41006D01*
Y7571D01*
X41013D01*
Y7564D01*
X41027D01*
Y7557D01*
X41034D01*
Y7549D01*
X41041D01*
Y7542D01*
X41056D01*
Y7535D01*
X41063D01*
Y7528D01*
X41077D01*
Y7521D01*
X41084D01*
Y7514D01*
X41098D01*
Y7507D01*
X41105D01*
Y7500D01*
X41119D01*
Y7493D01*
X41126D01*
Y7486D01*
X41141D01*
Y7479D01*
X41148D01*
Y7471D01*
X41162D01*
Y7464D01*
X41176D01*
Y7457D01*
X41183D01*
Y7450D01*
X41197D01*
Y7443D01*
X41212D01*
Y7436D01*
X41219D01*
Y7429D01*
X41233D01*
Y7422D01*
X41247D01*
Y7415D01*
X41261D01*
Y7408D01*
X41275D01*
Y7401D01*
X41290D01*
Y7393D01*
X41304D01*
Y7386D01*
X41318D01*
Y7379D01*
X41332D01*
Y7372D01*
X41346D01*
Y7365D01*
X41361D01*
Y7358D01*
X41375D01*
Y7351D01*
X41389D01*
Y7344D01*
X41403D01*
Y7337D01*
X41424D01*
Y7330D01*
X41439D01*
Y7323D01*
X41460D01*
Y7315D01*
X41474D01*
Y7308D01*
X41495D01*
Y7301D01*
X41510D01*
Y7294D01*
X41531D01*
Y7287D01*
X41552D01*
Y7280D01*
X41573D01*
Y7273D01*
X41595D01*
Y7266D01*
X41616D01*
Y7259D01*
X41637D01*
Y7252D01*
X41666D01*
Y7244D01*
X41694D01*
Y7237D01*
X41715D01*
Y7230D01*
X41744D01*
Y7223D01*
X41779D01*
Y7216D01*
X41815D01*
Y7209D01*
X41850D01*
Y7202D01*
X41885D01*
Y7195D01*
X41935D01*
Y7188D01*
X41985D01*
Y7181D01*
X42049D01*
Y7174D01*
X42134D01*
Y7166D01*
X43297D01*
Y7159D01*
Y7152D01*
Y7145D01*
Y7138D01*
Y7131D01*
Y7124D01*
Y7117D01*
Y7110D01*
Y7103D01*
Y7096D01*
Y7088D01*
Y7081D01*
Y7074D01*
Y7067D01*
Y7060D01*
Y7053D01*
Y7046D01*
Y7039D01*
Y7032D01*
Y7025D01*
Y7017D01*
Y7010D01*
Y7003D01*
Y6996D01*
Y6989D01*
Y6982D01*
Y6975D01*
Y6968D01*
Y6961D01*
Y6954D01*
Y6947D01*
Y6939D01*
Y6932D01*
Y6925D01*
Y6918D01*
Y6911D01*
Y6904D01*
Y6897D01*
Y6890D01*
Y6883D01*
Y6876D01*
Y6869D01*
Y6861D01*
Y6854D01*
Y6847D01*
Y6840D01*
Y6833D01*
Y6826D01*
Y6819D01*
Y6812D01*
Y6805D01*
Y6798D01*
Y6791D01*
Y6783D01*
Y6776D01*
Y6769D01*
Y6762D01*
Y6755D01*
Y6748D01*
Y6741D01*
Y6734D01*
Y6727D01*
Y6720D01*
Y6712D01*
Y6705D01*
Y6698D01*
Y6691D01*
Y6684D01*
Y6677D01*
Y6670D01*
Y6663D01*
Y6656D01*
Y6649D01*
Y6642D01*
Y6634D01*
Y6627D01*
Y6620D01*
Y6613D01*
Y6606D01*
Y6599D01*
Y6592D01*
Y6585D01*
Y6578D01*
Y6571D01*
Y6564D01*
Y6556D01*
Y6549D01*
Y6542D01*
Y6535D01*
Y6528D01*
Y6521D01*
Y6514D01*
Y6507D01*
Y6500D01*
Y6493D01*
Y6485D01*
Y6478D01*
Y6471D01*
Y6464D01*
Y6457D01*
Y6450D01*
Y6443D01*
Y6436D01*
Y6429D01*
Y6422D01*
Y6415D01*
Y6407D01*
Y6400D01*
Y6393D01*
Y6386D01*
Y6379D01*
Y6372D01*
Y6365D01*
Y6358D01*
Y6351D01*
Y6344D01*
Y6337D01*
Y6329D01*
Y6322D01*
Y6315D01*
Y6308D01*
Y6301D01*
Y6294D01*
Y6287D01*
Y6280D01*
Y6273D01*
Y6266D01*
Y6258D01*
Y6251D01*
Y6244D01*
Y6237D01*
Y6230D01*
Y6223D01*
Y6216D01*
Y6209D01*
Y6202D01*
Y6195D01*
Y6188D01*
Y6180D01*
Y6173D01*
Y6166D01*
Y6159D01*
Y6152D01*
Y6145D01*
Y6138D01*
Y6131D01*
Y6124D01*
Y6117D01*
Y6110D01*
Y6102D01*
Y6095D01*
Y6088D01*
Y6081D01*
Y6074D01*
Y6067D01*
Y6060D01*
Y6053D01*
Y6046D01*
Y6039D01*
Y6032D01*
Y6024D01*
Y6017D01*
Y6010D01*
Y6003D01*
Y5996D01*
Y5989D01*
Y5982D01*
Y5975D01*
Y5968D01*
Y5961D01*
Y5953D01*
Y5946D01*
Y5939D01*
Y5932D01*
Y5925D01*
Y5918D01*
Y5911D01*
Y5904D01*
Y5897D01*
Y5890D01*
Y5883D01*
Y5875D01*
Y5868D01*
Y5861D01*
Y5854D01*
Y5847D01*
Y5840D01*
Y5833D01*
Y5826D01*
Y5819D01*
Y5812D01*
Y5805D01*
Y5797D01*
Y5790D01*
Y5783D01*
Y5776D01*
Y5769D01*
Y5762D01*
Y5755D01*
Y5748D01*
Y5741D01*
Y5734D01*
Y5726D01*
Y5719D01*
Y5712D01*
Y5705D01*
Y5698D01*
Y5691D01*
Y5684D01*
Y5677D01*
Y5670D01*
Y5663D01*
Y5656D01*
Y5648D01*
Y5641D01*
Y5634D01*
Y5627D01*
Y5620D01*
Y5613D01*
Y5606D01*
Y5599D01*
Y5592D01*
Y5585D01*
Y5578D01*
Y5570D01*
Y5563D01*
Y5556D01*
Y5549D01*
Y5542D01*
Y5535D01*
Y5528D01*
Y5521D01*
Y5514D01*
Y5507D01*
Y5499D01*
Y5492D01*
Y5485D01*
Y5478D01*
Y5471D01*
Y5464D01*
Y5457D01*
Y5450D01*
Y5443D01*
Y5436D01*
Y5429D01*
Y5421D01*
Y5414D01*
Y5407D01*
Y5400D01*
Y5393D01*
Y5386D01*
Y5379D01*
Y5372D01*
Y5365D01*
Y5358D01*
Y5351D01*
Y5343D01*
Y5336D01*
Y5329D01*
Y5322D01*
Y5315D01*
X44581D01*
Y5322D01*
Y5329D01*
Y5336D01*
Y5343D01*
Y5351D01*
Y5358D01*
Y5365D01*
Y5372D01*
Y5379D01*
Y5386D01*
Y5393D01*
Y5400D01*
Y5407D01*
Y5414D01*
Y5421D01*
Y5429D01*
Y5436D01*
Y5443D01*
Y5450D01*
Y5457D01*
Y5464D01*
Y5471D01*
Y5478D01*
Y5485D01*
Y5492D01*
Y5499D01*
Y5507D01*
Y5514D01*
Y5521D01*
Y5528D01*
Y5535D01*
Y5542D01*
Y5549D01*
Y5556D01*
Y5563D01*
Y5570D01*
Y5578D01*
Y5585D01*
Y5592D01*
Y5599D01*
Y5606D01*
Y5613D01*
Y5620D01*
Y5627D01*
Y5634D01*
Y5641D01*
Y5648D01*
Y5656D01*
Y5663D01*
Y5670D01*
Y5677D01*
Y5684D01*
Y5691D01*
Y5698D01*
Y5705D01*
Y5712D01*
Y5719D01*
Y5726D01*
Y5734D01*
Y5741D01*
Y5748D01*
Y5755D01*
Y5762D01*
Y5769D01*
Y5776D01*
Y5783D01*
Y5790D01*
Y5797D01*
Y5805D01*
Y5812D01*
Y5819D01*
Y5826D01*
Y5833D01*
Y5840D01*
Y5847D01*
Y5854D01*
Y5861D01*
Y5868D01*
Y5875D01*
Y5883D01*
Y5890D01*
Y5897D01*
Y5904D01*
Y5911D01*
Y5918D01*
Y5925D01*
Y5932D01*
Y5939D01*
Y5946D01*
Y5953D01*
Y5961D01*
Y5968D01*
Y5975D01*
Y5982D01*
Y5989D01*
Y5996D01*
Y6003D01*
Y6010D01*
Y6017D01*
Y6024D01*
Y6032D01*
Y6039D01*
Y6046D01*
Y6053D01*
Y6060D01*
Y6067D01*
Y6074D01*
Y6081D01*
Y6088D01*
Y6095D01*
Y6102D01*
Y6110D01*
Y6117D01*
Y6124D01*
Y6131D01*
Y6138D01*
Y6145D01*
Y6152D01*
Y6159D01*
Y6166D01*
Y6173D01*
Y6180D01*
Y6188D01*
Y6195D01*
Y6202D01*
Y6209D01*
Y6216D01*
Y6223D01*
Y6230D01*
Y6237D01*
Y6244D01*
Y6251D01*
Y6258D01*
Y6266D01*
Y6273D01*
Y6280D01*
Y6287D01*
Y6294D01*
Y6301D01*
Y6308D01*
Y6315D01*
Y6322D01*
Y6329D01*
Y6337D01*
Y6344D01*
Y6351D01*
Y6358D01*
Y6365D01*
Y6372D01*
Y6379D01*
Y6386D01*
Y6393D01*
Y6400D01*
Y6407D01*
Y6415D01*
Y6422D01*
Y6429D01*
Y6436D01*
Y6443D01*
Y6450D01*
Y6457D01*
Y6464D01*
Y6471D01*
Y6478D01*
Y6485D01*
Y6493D01*
Y6500D01*
Y6507D01*
Y6514D01*
Y6521D01*
Y6528D01*
Y6535D01*
Y6542D01*
Y6549D01*
Y6556D01*
Y6564D01*
Y6571D01*
Y6578D01*
Y6585D01*
Y6592D01*
Y6599D01*
Y6606D01*
Y6613D01*
Y6620D01*
Y6627D01*
Y6634D01*
Y6642D01*
Y6649D01*
Y6656D01*
Y6663D01*
Y6670D01*
Y6677D01*
Y6684D01*
Y6691D01*
Y6698D01*
Y6705D01*
Y6712D01*
Y6720D01*
Y6727D01*
Y6734D01*
Y6741D01*
Y6748D01*
Y6755D01*
Y6762D01*
Y6769D01*
Y6776D01*
Y6783D01*
Y6791D01*
Y6798D01*
Y6805D01*
Y6812D01*
Y6819D01*
Y6826D01*
Y6833D01*
Y6840D01*
Y6847D01*
Y6854D01*
Y6861D01*
Y6869D01*
Y6876D01*
Y6883D01*
Y6890D01*
Y6897D01*
Y6904D01*
Y6911D01*
Y6918D01*
Y6925D01*
Y6932D01*
Y6939D01*
Y6947D01*
Y6954D01*
Y6961D01*
Y6968D01*
Y6975D01*
Y6982D01*
Y6989D01*
Y6996D01*
Y7003D01*
Y7010D01*
Y7017D01*
Y7025D01*
Y7032D01*
Y7039D01*
Y7046D01*
Y7053D01*
Y7060D01*
Y7067D01*
Y7074D01*
Y7081D01*
Y7088D01*
Y7096D01*
Y7103D01*
Y7110D01*
Y7117D01*
Y7124D01*
Y7131D01*
Y7138D01*
Y7145D01*
Y7152D01*
Y7159D01*
Y7166D01*
Y7174D01*
Y7181D01*
Y7188D01*
Y7195D01*
Y7202D01*
Y7209D01*
Y7216D01*
Y7223D01*
Y7230D01*
Y7237D01*
Y7244D01*
Y7252D01*
Y7259D01*
Y7266D01*
Y7273D01*
Y7280D01*
Y7287D01*
Y7294D01*
Y7301D01*
Y7308D01*
Y7315D01*
Y7323D01*
Y7330D01*
Y7337D01*
Y7344D01*
Y7351D01*
Y7358D01*
Y7365D01*
Y7372D01*
Y7379D01*
Y7386D01*
Y7393D01*
Y7401D01*
Y7408D01*
Y7415D01*
Y7422D01*
Y7429D01*
Y7436D01*
Y7443D01*
Y7450D01*
Y7457D01*
Y7464D01*
Y7471D01*
Y7479D01*
Y7486D01*
Y7493D01*
Y7500D01*
Y7507D01*
Y7514D01*
Y7521D01*
Y7528D01*
Y7535D01*
Y7542D01*
Y7549D01*
Y7557D01*
Y7564D01*
Y7571D01*
Y7578D01*
Y7585D01*
Y7592D01*
Y7599D01*
Y7606D01*
Y7613D01*
Y7620D01*
Y7628D01*
Y7635D01*
Y7642D01*
Y7649D01*
Y7656D01*
Y7663D01*
Y7670D01*
Y7677D01*
Y7684D01*
Y7691D01*
Y7698D01*
Y7706D01*
Y7713D01*
Y7720D01*
Y7727D01*
Y7734D01*
Y7741D01*
Y7748D01*
Y7755D01*
Y7762D01*
Y7769D01*
Y7776D01*
Y7784D01*
Y7791D01*
Y7798D01*
Y7805D01*
Y7812D01*
Y7819D01*
Y7826D01*
Y7833D01*
Y7840D01*
Y7847D01*
Y7854D01*
Y7862D01*
Y7869D01*
Y7876D01*
Y7883D01*
Y7890D01*
Y7897D01*
Y7904D01*
Y7911D01*
Y7918D01*
Y7925D01*
Y7933D01*
Y7940D01*
Y7947D01*
Y7954D01*
Y7961D01*
Y7968D01*
Y7975D01*
Y7982D01*
Y7989D01*
Y7996D01*
Y8003D01*
Y8011D01*
Y8018D01*
Y8025D01*
Y8032D01*
Y8039D01*
Y8046D01*
Y8053D01*
Y8060D01*
Y8067D01*
Y8074D01*
Y8081D01*
Y8089D01*
Y8096D01*
Y8103D01*
Y8110D01*
Y8117D01*
Y8124D01*
Y8131D01*
Y8138D01*
Y8145D01*
Y8152D01*
Y8160D01*
Y8167D01*
Y8174D01*
Y8181D01*
Y8188D01*
Y8195D01*
Y8202D01*
Y8209D01*
Y8216D01*
Y8223D01*
Y8230D01*
Y8238D01*
Y8245D01*
Y8252D01*
Y8259D01*
Y8266D01*
Y8273D01*
Y8280D01*
Y8287D01*
Y8294D01*
Y8301D01*
Y8308D01*
Y8316D01*
Y8323D01*
Y8330D01*
Y8337D01*
Y8344D01*
Y8351D01*
X42354D01*
Y8358D01*
X42233D01*
Y8365D01*
X42183D01*
Y8372D01*
X42148D01*
Y8379D01*
X42112D01*
Y8387D01*
X42091D01*
Y8394D01*
X42063D01*
Y8401D01*
X42042D01*
Y8408D01*
X42027D01*
Y8415D01*
X42006D01*
Y8422D01*
X41992D01*
Y8429D01*
X41971D01*
Y8436D01*
X41956D01*
Y8443D01*
X41942D01*
Y8450D01*
X41928D01*
Y8457D01*
X41921D01*
Y8465D01*
X41907D01*
Y8472D01*
X41893D01*
Y8479D01*
X41885D01*
Y8486D01*
X41871D01*
Y8493D01*
X41864D01*
Y8500D01*
X41850D01*
Y8507D01*
X41843D01*
Y8514D01*
X41829D01*
Y8521D01*
X41822D01*
Y8528D01*
X41815D01*
Y8535D01*
X41807D01*
Y8543D01*
X41793D01*
Y8550D01*
X41786D01*
Y8557D01*
X41779D01*
Y8564D01*
X41772D01*
Y8571D01*
X41765D01*
Y8578D01*
X41758D01*
Y8585D01*
X41751D01*
Y8592D01*
X41744D01*
Y8599D01*
X41737D01*
Y8606D01*
X41729D01*
Y8613D01*
X41722D01*
Y8621D01*
X41715D01*
Y8628D01*
X41708D01*
Y8635D01*
Y8642D01*
X41701D01*
Y8649D01*
X41694D01*
Y8656D01*
X41687D01*
Y8663D01*
X41680D01*
Y8670D01*
X41673D01*
Y8677D01*
Y8684D01*
X41666D01*
Y8692D01*
X41658D01*
Y8699D01*
Y8706D01*
X41651D01*
Y8713D01*
X41644D01*
Y8720D01*
Y8727D01*
X41637D01*
Y8734D01*
X41630D01*
Y8741D01*
Y8748D01*
X41623D01*
Y8755D01*
Y8762D01*
X41616D01*
Y8770D01*
X41609D01*
Y8777D01*
Y8784D01*
X41602D01*
Y8791D01*
Y8798D01*
X41595D01*
Y8805D01*
Y8812D01*
X41588D01*
Y8819D01*
Y8826D01*
Y8833D01*
X41580D01*
Y8840D01*
Y8848D01*
X41573D01*
Y8855D01*
Y8862D01*
X41566D01*
Y8869D01*
Y8876D01*
Y8883D01*
X41559D01*
Y8890D01*
Y8897D01*
Y8904D01*
X41552D01*
Y8911D01*
Y8919D01*
Y8926D01*
X41545D01*
Y8933D01*
Y8940D01*
Y8947D01*
Y8954D01*
X41538D01*
Y8961D01*
Y8968D01*
Y8975D01*
Y8982D01*
X41531D01*
Y8989D01*
Y8997D01*
Y9004D01*
Y9011D01*
Y9018D01*
X41524D01*
Y9025D01*
Y9032D01*
Y9039D01*
Y9046D01*
Y9053D01*
Y9060D01*
X41517D01*
Y9067D01*
Y9075D01*
Y9082D01*
Y9089D01*
Y9096D01*
Y9103D01*
Y9110D01*
Y9117D01*
Y9124D01*
Y9131D01*
X41510D01*
Y9138D01*
Y9146D01*
Y9153D01*
Y9160D01*
Y9167D01*
Y9174D01*
Y9181D01*
Y9188D01*
Y9195D01*
Y9202D01*
Y9209D01*
Y9216D01*
Y9224D01*
Y9231D01*
Y9238D01*
Y9245D01*
Y9252D01*
Y9259D01*
Y9266D01*
Y9273D01*
Y9280D01*
X41517D01*
Y9287D01*
Y9294D01*
Y9302D01*
Y9309D01*
Y9316D01*
Y9323D01*
Y9330D01*
Y9337D01*
Y9344D01*
Y9351D01*
X41524D01*
Y9358D01*
Y9365D01*
Y9372D01*
Y9380D01*
Y9387D01*
Y9394D01*
X41531D01*
Y9401D01*
Y9408D01*
Y9415D01*
Y9422D01*
Y9429D01*
X41538D01*
Y9436D01*
Y9443D01*
Y9451D01*
Y9458D01*
X41545D01*
Y9465D01*
Y9472D01*
Y9479D01*
X41552D01*
Y9486D01*
Y9493D01*
Y9500D01*
Y9507D01*
X41559D01*
Y9514D01*
Y9521D01*
X41566D01*
Y9529D01*
Y9536D01*
Y9543D01*
X41573D01*
Y9550D01*
Y9557D01*
Y9564D01*
X41580D01*
Y9571D01*
Y9578D01*
X41588D01*
Y9585D01*
Y9592D01*
X41595D01*
Y9599D01*
Y9607D01*
X41602D01*
Y9614D01*
Y9621D01*
X41609D01*
Y9628D01*
Y9635D01*
X41616D01*
Y9642D01*
Y9649D01*
X41623D01*
Y9656D01*
Y9663D01*
X41630D01*
Y9670D01*
X41637D01*
Y9677D01*
Y9685D01*
X41644D01*
Y9692D01*
X41651D01*
Y9699D01*
Y9706D01*
X41658D01*
Y9713D01*
X41666D01*
Y9720D01*
Y9727D01*
X41673D01*
Y9734D01*
X41680D01*
Y9741D01*
X41687D01*
Y9748D01*
Y9756D01*
X41694D01*
Y9763D01*
X41701D01*
Y9770D01*
X41708D01*
Y9777D01*
X41715D01*
Y9784D01*
X41722D01*
Y9791D01*
X41729D01*
Y9798D01*
X41737D01*
Y9805D01*
X41744D01*
Y9812D01*
X41751D01*
Y9819D01*
X41758D01*
Y9826D01*
X41765D01*
Y9834D01*
X41772D01*
Y9841D01*
X41779D01*
Y9848D01*
X41786D01*
Y9855D01*
X41793D01*
Y9862D01*
X41800D01*
Y9869D01*
X41807D01*
Y9876D01*
X41822D01*
Y9883D01*
X41829D01*
Y9890D01*
X41836D01*
Y9897D01*
X41850D01*
Y9904D01*
X41857D01*
Y9912D01*
X41871D01*
Y9919D01*
X41878D01*
Y9926D01*
X41893D01*
Y9933D01*
X41900D01*
Y9940D01*
X41914D01*
Y9947D01*
X41928D01*
Y9954D01*
X41942D01*
Y9961D01*
X41956D01*
Y9968D01*
X41971D01*
Y9975D01*
X41985D01*
Y9983D01*
X41999D01*
Y9990D01*
X42020D01*
Y9997D01*
X42042D01*
Y10004D01*
X42063D01*
Y10011D01*
X42084D01*
Y10018D01*
X42112D01*
Y10025D01*
X42141D01*
Y10032D01*
X42176D01*
Y10039D01*
X42233D01*
Y10046D01*
X42347D01*
Y10053D01*
X45234D01*
Y10061D01*
X45226D01*
Y10068D01*
Y10075D01*
Y10082D01*
X45219D01*
Y10089D01*
Y10096D01*
X45212D01*
Y10103D01*
Y10110D01*
Y10117D01*
X45205D01*
Y10124D01*
Y10131D01*
X45198D01*
Y10139D01*
Y10146D01*
Y10153D01*
X45191D01*
Y10160D01*
Y10167D01*
X45184D01*
Y10174D01*
Y10181D01*
X45177D01*
Y10188D01*
Y10195D01*
Y10202D01*
X45170D01*
Y10210D01*
Y10217D01*
X45163D01*
Y10224D01*
Y10231D01*
Y10238D01*
X45156D01*
Y10245D01*
Y10252D01*
X45148D01*
Y10259D01*
Y10266D01*
X45141D01*
Y10273D01*
Y10280D01*
Y10288D01*
X45134D01*
Y10295D01*
Y10302D01*
X45127D01*
Y10309D01*
Y10316D01*
Y10323D01*
X45120D01*
Y10330D01*
Y10337D01*
X45113D01*
Y10344D01*
Y10351D01*
X45106D01*
Y10358D01*
Y10366D01*
Y10373D01*
X45099D01*
Y10380D01*
Y10387D01*
X45092D01*
Y10394D01*
Y10401D01*
Y10408D01*
X45085D01*
Y10415D01*
Y10422D01*
X45077D01*
Y10429D01*
Y10436D01*
Y10444D01*
X45070D01*
Y10451D01*
Y10458D01*
X45063D01*
Y10465D01*
Y10472D01*
X45056D01*
Y10479D01*
Y10486D01*
Y10493D01*
X45049D01*
Y10500D01*
Y10507D01*
X45042D01*
Y10515D01*
Y10522D01*
Y10529D01*
X45035D01*
Y10536D01*
Y10543D01*
X45028D01*
Y10550D01*
Y10557D01*
X45021D01*
Y10564D01*
Y10571D01*
Y10578D01*
X45014D01*
Y10585D01*
Y10593D01*
X45007D01*
Y10600D01*
Y10607D01*
Y10614D01*
X44999D01*
Y10621D01*
Y10628D01*
X44992D01*
Y10635D01*
Y10642D01*
X44985D01*
Y10649D01*
Y10656D01*
Y10663D01*
X44978D01*
Y10671D01*
Y10678D01*
X44971D01*
Y10685D01*
Y10692D01*
Y10699D01*
X44964D01*
Y10706D01*
Y10713D01*
X44957D01*
Y10720D01*
Y10727D01*
Y10734D01*
X44950D01*
Y10742D01*
Y10749D01*
X44943D01*
Y10756D01*
Y10763D01*
X44936D01*
Y10770D01*
Y10777D01*
Y10784D01*
X44929D01*
Y10791D01*
Y10798D01*
X44921D01*
Y10805D01*
Y10812D01*
Y10820D01*
X44914D01*
Y10827D01*
Y10834D01*
X44907D01*
Y10841D01*
Y10848D01*
X44900D01*
Y10855D01*
Y10862D01*
Y10869D01*
X44893D01*
Y10876D01*
Y10883D01*
X44886D01*
Y10890D01*
Y10898D01*
Y10905D01*
X44879D01*
Y10912D01*
Y10919D01*
X44872D01*
Y10926D01*
Y10933D01*
X44865D01*
Y10940D01*
Y10947D01*
Y10954D01*
X44858D01*
Y10961D01*
Y10969D01*
X44850D01*
Y10976D01*
Y10983D01*
Y10990D01*
X44843D01*
Y10997D01*
Y11004D01*
X44836D01*
Y11011D01*
Y11018D01*
Y11025D01*
X44829D01*
Y11032D01*
Y11039D01*
X44822D01*
Y11047D01*
Y11054D01*
X44815D01*
Y11061D01*
Y11068D01*
Y11075D01*
X44808D01*
Y11082D01*
Y11089D01*
X44801D01*
Y11096D01*
Y11103D01*
Y11110D01*
X44794D01*
Y11117D01*
Y11125D01*
X44787D01*
Y11132D01*
Y11139D01*
X44780D01*
Y11146D01*
Y11153D01*
Y11160D01*
X44772D01*
Y11167D01*
Y11174D01*
X44765D01*
Y11181D01*
Y11188D01*
Y11195D01*
X44758D01*
Y11203D01*
Y11210D01*
X44751D01*
Y11217D01*
Y11224D01*
X44744D01*
Y11231D01*
Y11238D01*
X44737D01*
Y11245D01*
X42254D01*
Y11238D01*
D02*
G37*
G36*
X36205Y2068D02*
X35977D01*
Y2203D01*
X35955Y2175D01*
X35932Y2151D01*
X35910Y2132D01*
X35890Y2116D01*
X35871Y2103D01*
X35857Y2094D01*
X35847Y2088D01*
X35844Y2086D01*
X35814Y2073D01*
X35786Y2064D01*
X35760Y2057D01*
X35736Y2053D01*
X35716Y2049D01*
X35699Y2047D01*
X35686D01*
X35657Y2049D01*
X35627Y2053D01*
X35601Y2058D01*
X35575Y2068D01*
X35527Y2088D01*
X35507Y2099D01*
X35486Y2112D01*
X35470Y2123D01*
X35455Y2134D01*
X35442Y2145D01*
X35431Y2155D01*
X35421Y2164D01*
X35416Y2170D01*
X35412Y2173D01*
X35410Y2175D01*
X35390Y2201D01*
X35373Y2227D01*
X35357Y2257D01*
X35344Y2286D01*
X35333Y2318D01*
X35323Y2347D01*
X35310Y2407D01*
X35305Y2434D01*
X35301Y2460D01*
X35299Y2482D01*
X35297Y2503D01*
X35295Y2519D01*
Y2531D01*
Y2540D01*
Y2542D01*
X35297Y2584D01*
X35301Y2623D01*
X35307Y2660D01*
X35312Y2694D01*
X35321Y2725D01*
X35331Y2755D01*
X35342Y2781D01*
X35351Y2805D01*
X35362Y2825D01*
X35373Y2843D01*
X35383Y2858D01*
X35390Y2871D01*
X35397Y2881D01*
X35403Y2888D01*
X35407Y2892D01*
X35408Y2894D01*
X35431Y2916D01*
X35453Y2934D01*
X35475Y2951D01*
X35499Y2966D01*
X35523Y2977D01*
X35545Y2988D01*
X35590Y3003D01*
X35612Y3006D01*
X35631Y3010D01*
X35647Y3014D01*
X35662Y3016D01*
X35673Y3018D01*
X35690D01*
X35718Y3016D01*
X35745Y3012D01*
X35773Y3006D01*
X35797Y2997D01*
X35844Y2977D01*
X35882Y2953D01*
X35899Y2942D01*
X35914Y2929D01*
X35927Y2918D01*
X35938Y2908D01*
X35947Y2899D01*
X35953Y2894D01*
X35957Y2890D01*
X35958Y2888D01*
Y3349D01*
X36205D01*
Y2068D01*
D02*
G37*
G36*
X34599D02*
X34340D01*
Y2629D01*
X33835D01*
Y2068D01*
X33575D01*
Y3349D01*
X33835D01*
Y2845D01*
X34340D01*
Y3349D01*
X34599D01*
Y2068D01*
D02*
G37*
G36*
X30465Y3314D02*
X30489Y3275D01*
X30515Y3238D01*
X30540Y3208D01*
X30563Y3184D01*
X30583Y3166D01*
X30590Y3158D01*
X30596Y3153D01*
X30600Y3151D01*
X30602Y3149D01*
X30642Y3119D01*
X30681Y3093D01*
X30716Y3073D01*
X30748Y3058D01*
X30774Y3047D01*
X30792Y3038D01*
X30800Y3036D01*
X30805Y3034D01*
X30807Y3032D01*
X30809D01*
Y2810D01*
X30742Y2836D01*
X30683Y2864D01*
X30655Y2879D01*
X30629Y2895D01*
X30605Y2910D01*
X30583Y2925D01*
X30563Y2940D01*
X30544Y2953D01*
X30529Y2964D01*
X30516Y2975D01*
X30505Y2984D01*
X30498Y2990D01*
X30494Y2993D01*
X30492Y2995D01*
Y2068D01*
X30246D01*
Y3356D01*
X30446D01*
X30465Y3314D01*
D02*
G37*
G36*
X44452Y2068D02*
X44193D01*
Y2455D01*
X43983Y2669D01*
X43630Y2068D01*
X43295D01*
X43804Y2849D01*
X43319Y3349D01*
X43667D01*
X44193Y2779D01*
Y3349D01*
X44452D01*
Y2068D01*
D02*
G37*
G36*
X36892Y3014D02*
X36921Y3012D01*
X36947Y3006D01*
X36973Y3003D01*
X36995Y2997D01*
X37016Y2990D01*
X37034Y2984D01*
X37049Y2979D01*
X37064Y2971D01*
X37075Y2966D01*
X37086Y2962D01*
X37093Y2956D01*
X37099Y2955D01*
X37101Y2951D01*
X37103D01*
X37134Y2923D01*
X37160Y2892D01*
X37182Y2858D01*
X37201Y2827D01*
X37214Y2797D01*
X37219Y2784D01*
X37223Y2773D01*
X37227Y2764D01*
X37229Y2756D01*
X37230Y2753D01*
Y2751D01*
X37010Y2710D01*
X37001Y2732D01*
X36992Y2751D01*
X36982Y2768D01*
X36971Y2781D01*
X36964Y2790D01*
X36956Y2795D01*
X36953Y2799D01*
X36951Y2801D01*
X36936Y2810D01*
X36919Y2818D01*
X36901Y2821D01*
X36884Y2825D01*
X36869Y2827D01*
X36858Y2829D01*
X36847D01*
X36814Y2827D01*
X36786Y2823D01*
X36764Y2819D01*
X36745Y2814D01*
X36732Y2806D01*
X36723Y2803D01*
X36718Y2799D01*
X36716Y2797D01*
X36703Y2784D01*
X36694Y2769D01*
X36688Y2753D01*
X36682Y2736D01*
X36681Y2719D01*
X36679Y2706D01*
Y2699D01*
Y2695D01*
Y2671D01*
X36692Y2666D01*
X36708Y2660D01*
X36743Y2649D01*
X36784Y2640D01*
X36823Y2631D01*
X36860Y2621D01*
X36877Y2618D01*
X36892Y2616D01*
X36903Y2614D01*
X36912Y2612D01*
X36918Y2610D01*
X36919D01*
X36964Y2601D01*
X37005Y2592D01*
X37038Y2582D01*
X37066Y2573D01*
X37088Y2564D01*
X37103Y2558D01*
X37112Y2555D01*
X37116Y2553D01*
X37140Y2540D01*
X37160Y2525D01*
X37179Y2508D01*
X37192Y2494D01*
X37205Y2481D01*
X37212Y2469D01*
X37218Y2462D01*
X37219Y2458D01*
X37232Y2434D01*
X37242Y2410D01*
X37247Y2388D01*
X37251Y2366D01*
X37255Y2347D01*
X37256Y2332D01*
Y2323D01*
Y2319D01*
X37255Y2297D01*
X37253Y2277D01*
X37243Y2238D01*
X37230Y2205D01*
X37216Y2177D01*
X37201Y2155D01*
X37188Y2138D01*
X37179Y2127D01*
X37175Y2125D01*
Y2123D01*
X37142Y2097D01*
X37105Y2079D01*
X37068Y2066D01*
X37030Y2057D01*
X36999Y2051D01*
X36984Y2049D01*
X36973D01*
X36962Y2047D01*
X36949D01*
X36919Y2049D01*
X36890Y2053D01*
X36864Y2057D01*
X36842Y2062D01*
X36823Y2068D01*
X36808Y2073D01*
X36799Y2075D01*
X36795Y2077D01*
X36769Y2090D01*
X36743Y2103D01*
X36721Y2119D01*
X36701Y2134D01*
X36684Y2147D01*
X36671Y2158D01*
X36664Y2166D01*
X36660Y2168D01*
X36658Y2160D01*
X36655Y2151D01*
X36653Y2144D01*
X36651Y2142D01*
Y2140D01*
X36645Y2123D01*
X36642Y2108D01*
X36638Y2095D01*
X36634Y2086D01*
X36631Y2079D01*
X36629Y2071D01*
X36627Y2070D01*
Y2068D01*
X36384D01*
X36395Y2092D01*
X36405Y2114D01*
X36412Y2134D01*
X36419Y2153D01*
X36423Y2168D01*
X36427Y2181D01*
X36429Y2188D01*
Y2190D01*
X36432Y2214D01*
X36434Y2244D01*
X36438Y2273D01*
Y2303D01*
X36440Y2329D01*
Y2351D01*
Y2360D01*
Y2366D01*
Y2369D01*
Y2371D01*
X36436Y2658D01*
Y2688D01*
X36438Y2714D01*
X36440Y2738D01*
X36442Y2760D01*
X36444Y2781D01*
X36447Y2799D01*
X36449Y2816D01*
X36453Y2829D01*
X36456Y2842D01*
X36458Y2851D01*
X36464Y2868D01*
X36468Y2875D01*
X36469Y2879D01*
X36484Y2899D01*
X36501Y2919D01*
X36519Y2936D01*
X36540Y2951D01*
X36556Y2962D01*
X36571Y2969D01*
X36581Y2975D01*
X36582Y2977D01*
X36584D01*
X36601Y2984D01*
X36618Y2990D01*
X36656Y3001D01*
X36697Y3008D01*
X36736Y3012D01*
X36773Y3016D01*
X36788D01*
X36801Y3018D01*
X36862D01*
X36892Y3014D01*
D02*
G37*
G36*
X33311Y2068D02*
X33072D01*
Y3075D01*
X32820Y2068D01*
X32570D01*
X32318Y3075D01*
X32316Y2068D01*
X32077D01*
Y3349D01*
X32466D01*
X32694Y2473D01*
X32924Y3349D01*
X33311D01*
Y2068D01*
D02*
G37*
G36*
X40562Y3182D02*
Y2997D01*
X40675D01*
Y2801D01*
X40562D01*
Y2395D01*
Y2371D01*
Y2351D01*
Y2331D01*
X40560Y2314D01*
Y2284D01*
X40558Y2260D01*
X40556Y2242D01*
Y2231D01*
X40554Y2223D01*
Y2221D01*
X40551Y2201D01*
X40545Y2182D01*
X40539Y2166D01*
X40534Y2153D01*
X40528Y2142D01*
X40525Y2134D01*
X40523Y2129D01*
X40521Y2127D01*
X40510Y2114D01*
X40497Y2103D01*
X40471Y2084D01*
X40460Y2079D01*
X40451Y2073D01*
X40443Y2071D01*
X40441Y2070D01*
X40421Y2062D01*
X40401Y2057D01*
X40380Y2053D01*
X40362Y2051D01*
X40345Y2049D01*
X40332Y2047D01*
X40321D01*
X40282Y2049D01*
X40245Y2053D01*
X40212Y2058D01*
X40184Y2066D01*
X40160Y2071D01*
X40141Y2077D01*
X40130Y2081D01*
X40128Y2082D01*
X40126D01*
X40149Y2273D01*
X40171Y2266D01*
X40191Y2260D01*
X40208Y2257D01*
X40223Y2255D01*
X40234Y2253D01*
X40241Y2251D01*
X40249D01*
X40265Y2253D01*
X40278Y2257D01*
X40286Y2260D01*
X40289Y2262D01*
X40301Y2273D01*
X40306Y2282D01*
X40310Y2290D01*
X40312Y2294D01*
Y2297D01*
X40313Y2305D01*
Y2321D01*
Y2344D01*
X40315Y2366D01*
Y2388D01*
Y2407D01*
Y2414D01*
Y2419D01*
Y2423D01*
Y2425D01*
Y2801D01*
X40147D01*
Y2997D01*
X40315D01*
Y3327D01*
X40562Y3182D01*
D02*
G37*
G36*
X42669Y2408D02*
X42667Y2362D01*
X42663Y2321D01*
X42658Y2286D01*
X42652Y2257D01*
X42647Y2232D01*
X42641Y2216D01*
X42637Y2207D01*
X42635Y2203D01*
X42621Y2177D01*
X42604Y2153D01*
X42587Y2134D01*
X42569Y2118D01*
X42554Y2105D01*
X42539Y2095D01*
X42532Y2090D01*
X42528Y2088D01*
X42500Y2075D01*
X42471Y2064D01*
X42443Y2057D01*
X42415Y2053D01*
X42393Y2049D01*
X42376Y2047D01*
X42360D01*
X42326Y2049D01*
X42295Y2053D01*
X42265Y2060D01*
X42239Y2068D01*
X42217Y2075D01*
X42200Y2082D01*
X42189Y2086D01*
X42186Y2088D01*
X42156Y2105D01*
X42130Y2125D01*
X42106Y2144D01*
X42087Y2164D01*
X42071Y2181D01*
X42060Y2194D01*
X42052Y2203D01*
X42050Y2207D01*
Y2068D01*
X41823D01*
Y2997D01*
X42069D01*
Y2605D01*
Y2569D01*
Y2538D01*
X42071Y2508D01*
X42073Y2482D01*
Y2458D01*
X42074Y2438D01*
X42076Y2421D01*
X42078Y2405D01*
X42080Y2392D01*
X42082Y2382D01*
X42084Y2373D01*
Y2366D01*
X42087Y2357D01*
Y2355D01*
X42095Y2336D01*
X42106Y2319D01*
X42117Y2307D01*
X42128Y2294D01*
X42139Y2282D01*
X42148Y2275D01*
X42154Y2271D01*
X42156Y2269D01*
X42174Y2258D01*
X42195Y2251D01*
X42213Y2244D01*
X42232Y2240D01*
X42247Y2238D01*
X42258Y2236D01*
X42269D01*
X42289Y2238D01*
X42306Y2240D01*
X42323Y2244D01*
X42336Y2249D01*
X42347Y2253D01*
X42354Y2257D01*
X42360Y2258D01*
X42361Y2260D01*
X42374Y2271D01*
X42384Y2282D01*
X42393Y2294D01*
X42398Y2305D01*
X42404Y2316D01*
X42408Y2323D01*
X42410Y2329D01*
Y2331D01*
X42411Y2340D01*
X42413Y2353D01*
X42415Y2369D01*
X42417Y2386D01*
X42419Y2425D01*
X42421Y2468D01*
X42423Y2507D01*
Y2523D01*
Y2538D01*
Y2551D01*
Y2560D01*
Y2568D01*
Y2569D01*
Y2997D01*
X42669D01*
Y2408D01*
D02*
G37*
G36*
X39658Y3016D02*
X39689Y3012D01*
X39721Y3005D01*
X39749Y2997D01*
X39777Y2988D01*
X39801Y2977D01*
X39825Y2964D01*
X39845Y2953D01*
X39864Y2940D01*
X39880Y2927D01*
X39895Y2916D01*
X39906Y2906D01*
X39915Y2899D01*
X39923Y2892D01*
X39926Y2888D01*
X39928Y2886D01*
X39949Y2860D01*
X39967Y2832D01*
X39984Y2805D01*
X39999Y2775D01*
X40010Y2744D01*
X40019Y2714D01*
X40034Y2656D01*
X40039Y2629D01*
X40043Y2605D01*
X40045Y2582D01*
X40047Y2564D01*
X40049Y2547D01*
Y2534D01*
Y2527D01*
Y2525D01*
X40047Y2490D01*
X40045Y2455D01*
X40039Y2423D01*
X40034Y2394D01*
X40028Y2364D01*
X40019Y2338D01*
X40012Y2314D01*
X40002Y2292D01*
X39995Y2271D01*
X39986Y2255D01*
X39978Y2240D01*
X39973Y2227D01*
X39965Y2218D01*
X39962Y2210D01*
X39960Y2207D01*
X39958Y2205D01*
X39934Y2177D01*
X39910Y2153D01*
X39882Y2132D01*
X39852Y2114D01*
X39823Y2099D01*
X39793Y2086D01*
X39764Y2075D01*
X39734Y2068D01*
X39708Y2060D01*
X39682Y2057D01*
X39658Y2053D01*
X39638Y2049D01*
X39621D01*
X39610Y2047D01*
X39599D01*
X39545Y2051D01*
X39495Y2058D01*
X39452Y2070D01*
X39415Y2082D01*
X39399Y2090D01*
X39386Y2095D01*
X39373Y2101D01*
X39364Y2107D01*
X39356Y2112D01*
X39349Y2114D01*
X39347Y2118D01*
X39345D01*
X39310Y2147D01*
X39278Y2179D01*
X39252Y2214D01*
X39232Y2247D01*
X39215Y2277D01*
X39210Y2290D01*
X39204Y2301D01*
X39201Y2310D01*
X39197Y2318D01*
X39195Y2321D01*
Y2323D01*
X39440Y2364D01*
X39449Y2340D01*
X39458Y2318D01*
X39467Y2301D01*
X39478Y2286D01*
X39486Y2275D01*
X39493Y2268D01*
X39499Y2264D01*
X39501Y2262D01*
X39515Y2251D01*
X39532Y2244D01*
X39549Y2238D01*
X39564Y2234D01*
X39577Y2232D01*
X39588Y2231D01*
X39597D01*
X39627Y2232D01*
X39654Y2240D01*
X39680Y2249D01*
X39701Y2260D01*
X39717Y2271D01*
X39728Y2281D01*
X39738Y2288D01*
X39739Y2290D01*
X39758Y2314D01*
X39771Y2342D01*
X39782Y2371D01*
X39789Y2397D01*
X39793Y2423D01*
X39795Y2442D01*
X39797Y2449D01*
Y2455D01*
Y2458D01*
Y2460D01*
X39182D01*
Y2512D01*
X39186Y2558D01*
X39191Y2603D01*
X39199Y2644D01*
X39208Y2682D01*
X39217Y2716D01*
X39228Y2747D01*
X39240Y2775D01*
X39251Y2799D01*
X39262Y2821D01*
X39271Y2838D01*
X39280Y2853D01*
X39288Y2864D01*
X39293Y2873D01*
X39297Y2877D01*
X39299Y2879D01*
X39321Y2903D01*
X39347Y2925D01*
X39373Y2943D01*
X39399Y2958D01*
X39427Y2973D01*
X39454Y2984D01*
X39480Y2993D01*
X39506Y3001D01*
X39530Y3006D01*
X39552Y3010D01*
X39573Y3014D01*
X39589Y3016D01*
X39604Y3018D01*
X39625D01*
X39658Y3016D01*
D02*
G37*
G36*
X43163Y2068D02*
X42917D01*
Y3349D01*
X43163D01*
Y2068D01*
D02*
G37*
G36*
X38577Y3016D02*
X38595Y3014D01*
X38614Y3008D01*
X38628Y3003D01*
X38641Y2997D01*
X38653Y2993D01*
X38658Y2990D01*
X38660Y2988D01*
X38678Y2975D01*
X38695Y2956D01*
X38714Y2936D01*
X38728Y2916D01*
X38743Y2895D01*
X38754Y2879D01*
X38762Y2868D01*
X38764Y2866D01*
Y2997D01*
X38991D01*
Y2068D01*
X38745D01*
Y2353D01*
Y2395D01*
Y2434D01*
X38743Y2469D01*
X38741Y2501D01*
Y2531D01*
X38740Y2555D01*
X38738Y2579D01*
X38736Y2597D01*
X38734Y2614D01*
X38732Y2629D01*
X38730Y2640D01*
Y2649D01*
X38728Y2655D01*
X38727Y2660D01*
Y2664D01*
X38719Y2690D01*
X38710Y2712D01*
X38701Y2731D01*
X38691Y2744D01*
X38684Y2755D01*
X38677Y2762D01*
X38673Y2766D01*
X38671Y2768D01*
X38656Y2777D01*
X38641Y2784D01*
X38627Y2790D01*
X38614Y2794D01*
X38603Y2795D01*
X38591Y2797D01*
X38584D01*
X38564Y2795D01*
X38543Y2792D01*
X38525Y2784D01*
X38506Y2777D01*
X38491Y2769D01*
X38480Y2762D01*
X38471Y2758D01*
X38469Y2756D01*
X38391Y2969D01*
X38421Y2986D01*
X38449Y2997D01*
X38477Y3006D01*
X38503Y3012D01*
X38523Y3016D01*
X38540Y3018D01*
X38554D01*
X38577Y3016D01*
D02*
G37*
G36*
X38277Y2068D02*
X37373D01*
Y2284D01*
X38017D01*
Y3340D01*
X38277D01*
Y2068D01*
D02*
G37*
G36*
X31824Y2068D02*
X31564D01*
Y3349D01*
X31824D01*
Y2068D01*
D02*
G37*
G36*
X29826D02*
X29579D01*
Y2314D01*
X29826D01*
Y2068D01*
D02*
G37*
G36*
X41302Y3014D02*
X41334Y3010D01*
X41363Y3005D01*
X41389Y2999D01*
X41413Y2992D01*
X41436Y2984D01*
X41456Y2977D01*
X41473Y2968D01*
X41487Y2960D01*
X41500Y2953D01*
X41510Y2947D01*
X41519Y2942D01*
X41524Y2938D01*
X41526Y2936D01*
X41528Y2934D01*
X41545Y2919D01*
X41560Y2903D01*
X41573Y2886D01*
X41582Y2868D01*
X41600Y2834D01*
X41612Y2803D01*
X41617Y2775D01*
X41619Y2762D01*
X41621Y2753D01*
X41623Y2744D01*
Y2738D01*
Y2734D01*
Y2732D01*
X41621Y2708D01*
X41617Y2686D01*
X41613Y2664D01*
X41606Y2644D01*
X41587Y2608D01*
X41567Y2579D01*
X41549Y2555D01*
X41530Y2538D01*
X41523Y2531D01*
X41519Y2527D01*
X41515Y2525D01*
X41513Y2523D01*
X41497Y2514D01*
X41474Y2503D01*
X41449Y2492D01*
X41421Y2482D01*
X41391Y2471D01*
X41360Y2462D01*
X41295Y2444D01*
X41263Y2434D01*
X41234Y2427D01*
X41208Y2419D01*
X41184Y2414D01*
X41163Y2410D01*
X41149Y2407D01*
X41139Y2403D01*
X41136D01*
X41113Y2397D01*
X41097Y2392D01*
X41082Y2386D01*
X41071Y2382D01*
X41063Y2377D01*
X41058Y2375D01*
X41054Y2371D01*
X41043Y2357D01*
X41037Y2342D01*
X41036Y2331D01*
Y2327D01*
Y2325D01*
X41037Y2310D01*
X41041Y2297D01*
X41047Y2286D01*
X41052Y2277D01*
X41058Y2269D01*
X41063Y2264D01*
X41067Y2260D01*
X41069Y2258D01*
X41089Y2247D01*
X41112Y2240D01*
X41136Y2232D01*
X41158Y2229D01*
X41178Y2227D01*
X41197Y2225D01*
X41212D01*
X41243Y2227D01*
X41269Y2231D01*
X41293Y2236D01*
X41312Y2244D01*
X41326Y2249D01*
X41337Y2255D01*
X41345Y2258D01*
X41347Y2260D01*
X41363Y2275D01*
X41376Y2294D01*
X41387Y2310D01*
X41397Y2329D01*
X41402Y2345D01*
X41406Y2358D01*
X41410Y2366D01*
Y2369D01*
X41656Y2332D01*
X41639Y2286D01*
X41619Y2244D01*
X41597Y2208D01*
X41573Y2179D01*
X41550Y2155D01*
X41530Y2138D01*
X41524Y2131D01*
X41519Y2127D01*
X41515Y2125D01*
X41513Y2123D01*
X41491Y2110D01*
X41469Y2097D01*
X41419Y2079D01*
X41369Y2066D01*
X41321Y2057D01*
X41299Y2053D01*
X41278Y2051D01*
X41260Y2049D01*
X41243D01*
X41230Y2047D01*
X41212D01*
X41175Y2049D01*
X41139Y2051D01*
X41106Y2057D01*
X41075Y2062D01*
X41047Y2068D01*
X41021Y2077D01*
X40997Y2084D01*
X40976Y2094D01*
X40958Y2101D01*
X40941Y2110D01*
X40928Y2118D01*
X40917Y2123D01*
X40908Y2131D01*
X40902Y2134D01*
X40899Y2136D01*
X40897Y2138D01*
X40878Y2157D01*
X40862Y2175D01*
X40847Y2194D01*
X40834Y2212D01*
X40825Y2231D01*
X40815Y2249D01*
X40802Y2282D01*
X40795Y2314D01*
X40793Y2327D01*
X40791Y2336D01*
X40789Y2345D01*
Y2353D01*
Y2357D01*
Y2358D01*
X40793Y2399D01*
X40802Y2436D01*
X40813Y2468D01*
X40828Y2494D01*
X40843Y2514D01*
X40854Y2529D01*
X40863Y2536D01*
X40867Y2540D01*
X40884Y2551D01*
X40900Y2564D01*
X40921Y2573D01*
X40943Y2584D01*
X40987Y2603D01*
X41034Y2619D01*
X41075Y2632D01*
X41093Y2636D01*
X41110Y2642D01*
X41123Y2645D01*
X41132Y2647D01*
X41139Y2649D01*
X41141D01*
X41176Y2658D01*
X41208Y2666D01*
X41236Y2673D01*
X41260Y2681D01*
X41282Y2686D01*
X41300Y2692D01*
X41315Y2697D01*
X41330Y2701D01*
X41341Y2706D01*
X41350Y2710D01*
X41358Y2712D01*
X41362Y2716D01*
X41369Y2718D01*
X41371Y2719D01*
X41378Y2727D01*
X41384Y2734D01*
X41391Y2749D01*
X41395Y2760D01*
Y2762D01*
Y2764D01*
X41393Y2775D01*
X41391Y2784D01*
X41380Y2801D01*
X41371Y2810D01*
X41369Y2814D01*
X41367D01*
X41349Y2823D01*
X41328Y2831D01*
X41306Y2834D01*
X41282Y2838D01*
X41262Y2840D01*
X41245Y2842D01*
X41228D01*
X41200Y2840D01*
X41176Y2838D01*
X41156Y2832D01*
X41139Y2827D01*
X41126Y2821D01*
X41117Y2818D01*
X41112Y2814D01*
X41110Y2812D01*
X41095Y2801D01*
X41084Y2788D01*
X41073Y2775D01*
X41065Y2760D01*
X41060Y2749D01*
X41056Y2740D01*
X41052Y2732D01*
Y2731D01*
X40821Y2773D01*
X40836Y2816D01*
X40856Y2853D01*
X40876Y2884D01*
X40899Y2908D01*
X40917Y2929D01*
X40934Y2943D01*
X40945Y2951D01*
X40947Y2955D01*
X40949D01*
X40967Y2966D01*
X40987Y2975D01*
X41032Y2992D01*
X41078Y3003D01*
X41125Y3010D01*
X41147Y3012D01*
X41167Y3014D01*
X41186Y3016D01*
X41200Y3018D01*
X41269D01*
X41302Y3014D01*
D02*
G37*
G36*
X28998Y3355D02*
X29029Y3351D01*
X29061Y3343D01*
X29089Y3336D01*
X29115Y3325D01*
X29139Y3314D01*
X29159Y3303D01*
X29179Y3290D01*
X29196Y3277D01*
X29213Y3266D01*
X29226Y3255D01*
X29235Y3243D01*
X29244Y3236D01*
X29250Y3229D01*
X29254Y3225D01*
X29255Y3223D01*
X29278Y3192D01*
X29296Y3155D01*
X29313Y3116D01*
X29328Y3075D01*
X29339Y3032D01*
X29350Y2988D01*
X29357Y2945D01*
X29365Y2903D01*
X29368Y2862D01*
X29372Y2825D01*
X29376Y2790D01*
X29378Y2760D01*
X29379Y2736D01*
Y2718D01*
Y2710D01*
Y2705D01*
Y2703D01*
Y2701D01*
X29378Y2634D01*
X29374Y2573D01*
X29368Y2516D01*
X29361Y2464D01*
X29354Y2418D01*
X29344Y2375D01*
X29333Y2338D01*
X29322Y2305D01*
X29313Y2277D01*
X29302Y2251D01*
X29292Y2231D01*
X29283Y2214D01*
X29278Y2203D01*
X29272Y2194D01*
X29268Y2188D01*
X29266Y2186D01*
X29244Y2160D01*
X29220Y2140D01*
X29196Y2119D01*
X29170Y2105D01*
X29146Y2090D01*
X29120Y2079D01*
X29096Y2070D01*
X29072Y2062D01*
X29050Y2055D01*
X29029Y2051D01*
X29011Y2047D01*
X28996Y2045D01*
X28983D01*
X28972Y2044D01*
X28965D01*
X28931Y2045D01*
X28900Y2049D01*
X28868Y2057D01*
X28841Y2064D01*
X28815Y2073D01*
X28791Y2084D01*
X28770Y2097D01*
X28750Y2110D01*
X28733Y2121D01*
X28717Y2134D01*
X28704Y2145D01*
X28692Y2155D01*
X28685Y2162D01*
X28680Y2170D01*
X28676Y2173D01*
X28674Y2175D01*
X28652Y2207D01*
X28633Y2244D01*
X28615Y2282D01*
X28602Y2325D01*
X28589Y2368D01*
X28580Y2410D01*
X28570Y2455D01*
X28563Y2497D01*
X28559Y2538D01*
X28555Y2575D01*
X28552Y2610D01*
X28550Y2640D01*
X28548Y2664D01*
Y2682D01*
Y2690D01*
Y2695D01*
Y2697D01*
Y2699D01*
X28550Y2766D01*
X28554Y2827D01*
X28559Y2882D01*
X28568Y2934D01*
X28578Y2982D01*
X28587Y3025D01*
X28600Y3064D01*
X28611Y3097D01*
X28622Y3129D01*
X28633Y3153D01*
X28644Y3175D01*
X28654Y3193D01*
X28663Y3206D01*
X28668Y3216D01*
X28672Y3221D01*
X28674Y3223D01*
X28694Y3247D01*
X28717Y3268D01*
X28741Y3284D01*
X28765Y3301D01*
X28789Y3314D01*
X28813Y3323D01*
X28835Y3332D01*
X28859Y3340D01*
X28881Y3345D01*
X28900Y3349D01*
X28918Y3353D01*
X28933Y3355D01*
X28946Y3356D01*
X28965D01*
X28998Y3355D01*
D02*
G37*
%LPC*%
G36*
X35758Y2829D02*
X35755D01*
X35721Y2825D01*
X35694Y2818D01*
X35668Y2806D01*
X35647Y2794D01*
X35629Y2781D01*
X35618Y2769D01*
X35608Y2762D01*
X35607Y2758D01*
X35595Y2744D01*
X35586Y2729D01*
X35571Y2694D01*
X35562Y2655D01*
X35555Y2618D01*
X35551Y2582D01*
X35549Y2568D01*
X35547Y2555D01*
Y2544D01*
Y2536D01*
Y2531D01*
Y2529D01*
Y2501D01*
X35549Y2477D01*
X35553Y2453D01*
X35557Y2431D01*
X35566Y2394D01*
X35577Y2364D01*
X35588Y2340D01*
X35597Y2323D01*
X35605Y2314D01*
X35607Y2310D01*
X35629Y2288D01*
X35653Y2271D01*
X35675Y2258D01*
X35697Y2251D01*
X35716Y2245D01*
X35732Y2244D01*
X35742Y2242D01*
X35745D01*
X35766Y2244D01*
X35784Y2245D01*
X35818Y2257D01*
X35847Y2271D01*
X35871Y2290D01*
X35892Y2308D01*
X35907Y2323D01*
X35914Y2334D01*
X35918Y2336D01*
Y2338D01*
X35932Y2368D01*
X35944Y2401D01*
X35951Y2436D01*
X35957Y2469D01*
X35960Y2501D01*
Y2516D01*
X35962Y2527D01*
Y2538D01*
Y2545D01*
Y2549D01*
Y2551D01*
X35960Y2601D01*
X35953Y2644D01*
X35944Y2679D01*
X35932Y2708D01*
X35923Y2731D01*
X35914Y2747D01*
X35907Y2756D01*
X35905Y2760D01*
X35881Y2782D01*
X35857Y2799D01*
X35831Y2812D01*
X35807Y2819D01*
X35786Y2825D01*
X35770Y2827D01*
X35758Y2829D01*
D02*
G37*
G36*
X36681Y2512D02*
X36679D01*
Y2462D01*
Y2432D01*
X36681Y2407D01*
X36682Y2386D01*
X36684Y2369D01*
X36686Y2358D01*
X36688Y2349D01*
X36690Y2345D01*
Y2344D01*
X36695Y2327D01*
X36705Y2310D01*
X36714Y2297D01*
X36723Y2284D01*
X36732Y2275D01*
X36740Y2268D01*
X36745Y2264D01*
X36747Y2262D01*
X36769Y2247D01*
X36793Y2238D01*
X36814Y2231D01*
X36834Y2225D01*
X36851Y2221D01*
X36864Y2219D01*
X36875D01*
X36895Y2221D01*
X36916Y2225D01*
X36932Y2231D01*
X36945Y2238D01*
X36958Y2245D01*
X36966Y2251D01*
X36971Y2255D01*
X36973Y2257D01*
X36986Y2271D01*
X36995Y2286D01*
X37001Y2301D01*
X37005Y2316D01*
X37008Y2327D01*
X37010Y2336D01*
Y2344D01*
Y2345D01*
X37008Y2364D01*
X37003Y2381D01*
X36995Y2395D01*
X36986Y2408D01*
X36979Y2418D01*
X36971Y2425D01*
X36966Y2429D01*
X36964Y2431D01*
X36949Y2438D01*
X36931Y2447D01*
X36908Y2455D01*
X36886Y2460D01*
X36864Y2466D01*
X36847Y2469D01*
X36840Y2471D01*
X36834Y2473D01*
X36831D01*
X36793Y2481D01*
X36764Y2488D01*
X36736Y2495D01*
X36716Y2501D01*
X36699Y2507D01*
X36688Y2508D01*
X36681Y2512D01*
D02*
G37*
G36*
X39623Y2829D02*
X39610D01*
X39582Y2827D01*
X39558Y2819D01*
X39536Y2810D01*
X39517Y2801D01*
X39502Y2790D01*
X39491Y2781D01*
X39484Y2773D01*
X39482Y2771D01*
X39465Y2749D01*
X39451Y2723D01*
X39441Y2695D01*
X39434Y2669D01*
X39430Y2647D01*
X39428Y2627D01*
X39427Y2619D01*
Y2616D01*
Y2612D01*
Y2610D01*
X39793D01*
X39791Y2645D01*
X39786Y2677D01*
X39778Y2705D01*
X39767Y2727D01*
X39758Y2745D01*
X39749Y2758D01*
X39743Y2768D01*
X39741Y2769D01*
X39721Y2790D01*
X39699Y2805D01*
X39677Y2814D01*
X39656Y2821D01*
X39638Y2825D01*
X39623Y2829D01*
D02*
G37*
G36*
X28972Y3153D02*
X28965D01*
X28948Y3151D01*
X28933Y3149D01*
X28920Y3143D01*
X28909Y3138D01*
X28900Y3132D01*
X28892Y3129D01*
X28889Y3125D01*
X28887Y3123D01*
X28876Y3110D01*
X28865Y3093D01*
X28855Y3075D01*
X28846Y3056D01*
X28841Y3038D01*
X28835Y3023D01*
X28833Y3014D01*
X28831Y3012D01*
Y3010D01*
X28828Y2993D01*
X28824Y2973D01*
X28820Y2949D01*
X28817Y2925D01*
X28813Y2875D01*
X28811Y2823D01*
X28809Y2799D01*
Y2775D01*
X28807Y2755D01*
Y2736D01*
Y2721D01*
Y2708D01*
Y2701D01*
Y2699D01*
Y2658D01*
X28809Y2619D01*
Y2584D01*
X28811Y2553D01*
X28813Y2523D01*
X28815Y2497D01*
X28818Y2473D01*
X28820Y2453D01*
X28822Y2434D01*
X28826Y2419D01*
X28828Y2407D01*
X28830Y2395D01*
X28831Y2388D01*
Y2381D01*
X28833Y2379D01*
Y2377D01*
X28841Y2351D01*
X28850Y2331D01*
X28859Y2312D01*
X28867Y2299D01*
X28874Y2288D01*
X28881Y2281D01*
X28885Y2277D01*
X28887Y2275D01*
X28900Y2266D01*
X28913Y2258D01*
X28926Y2255D01*
X28939Y2251D01*
X28948Y2249D01*
X28957Y2247D01*
X28965D01*
X28981Y2249D01*
X28996Y2251D01*
X29009Y2257D01*
X29020Y2262D01*
X29029Y2266D01*
X29037Y2271D01*
X29041Y2273D01*
X29042Y2275D01*
X29054Y2288D01*
X29065Y2305D01*
X29074Y2323D01*
X29083Y2342D01*
X29089Y2358D01*
X29094Y2373D01*
X29096Y2382D01*
X29098Y2386D01*
X29102Y2405D01*
X29105Y2425D01*
X29109Y2447D01*
X29111Y2471D01*
X29115Y2523D01*
X29117Y2575D01*
X29118Y2599D01*
Y2623D01*
X29120Y2644D01*
Y2662D01*
Y2677D01*
Y2690D01*
Y2697D01*
Y2699D01*
Y2740D01*
X29118Y2779D01*
Y2812D01*
X29117Y2845D01*
X29115Y2873D01*
X29113Y2901D01*
X29111Y2923D01*
X29107Y2945D01*
X29105Y2964D01*
X29104Y2979D01*
X29102Y2992D01*
X29100Y3003D01*
X29098Y3010D01*
Y3018D01*
X29096Y3019D01*
Y3021D01*
X29089Y3047D01*
X29079Y3069D01*
X29072Y3086D01*
X29063Y3101D01*
X29055Y3110D01*
X29050Y3118D01*
X29046Y3121D01*
X29044Y3123D01*
X29031Y3132D01*
X29017Y3140D01*
X29004Y3145D01*
X28991Y3149D01*
X28981Y3151D01*
X28972Y3153D01*
D02*
G37*
%LPD*%
D10*
X15722Y3309D02*
X16103Y4198D01*
X15477Y3554D02*
X15722Y3309D01*
X15214Y3817D02*
X16103Y4198D01*
X14960Y1150D02*
X20040D01*
X20040Y13850D01*
X14960Y13850D02*
X20040D01*
X14960Y8770D02*
X15595Y8770D01*
X14960Y6230D02*
X15595Y6230D01*
X14960Y8770D02*
Y13850D01*
X15595Y6230D02*
Y8770D01*
X14960Y1150D02*
Y6230D01*
X15214Y3817D02*
X15477Y3554D01*
M02*
