G04*
G04 #@! TF.GenerationSoftware,Altium Limited,Altium Designer,22.10.1 (41)*
G04*
G04 Layer_Color=65535*
%FSLAX43Y43*%
%MOMM*%
G71*
G04*
G04 #@! TF.SameCoordinates,A06D47DE-3B52-4099-82B1-BC196321E02B*
G04*
G04*
G04 #@! TF.FilePolarity,Positive*
G04*
G01*
G75*
%ADD10C,0.200*%
%ADD11C,0.300*%
G36*
X54605Y10562D02*
X54606D01*
X54608Y10561D01*
X54612Y10559D01*
X54622Y10556D01*
X54635Y10551D01*
X54651Y10545D01*
X54671Y10539D01*
X54693Y10535D01*
X54718Y10531D01*
X54720D01*
X54722Y10530D01*
X54725D01*
X54731D01*
X54744Y10530D01*
X54761Y10530D01*
X54780Y10532D01*
X54803Y10536D01*
X54825Y10541D01*
X54846Y10549D01*
X54917Y10479D01*
X54462Y10024D01*
X54375Y10111D01*
X54703Y10438D01*
X54701D01*
X54699D01*
X54694Y10439D01*
X54687Y10439D01*
X54678Y10440D01*
X54669Y10441D01*
X54658Y10443D01*
X54646Y10445D01*
X54633Y10448D01*
X54619Y10451D01*
X54604Y10454D01*
X54589Y10459D01*
X54558Y10470D01*
X54525Y10485D01*
X54604Y10563D01*
X54605Y10562D01*
D02*
G37*
G36*
X56318Y4964D02*
X56325Y4963D01*
X56334D01*
X56344Y4962D01*
X56356Y4961D01*
X56368Y4959D01*
X56381Y4955D01*
X56395Y4952D01*
X56410Y4946D01*
X56425Y4940D01*
X56439Y4932D01*
X56454Y4923D01*
X56469Y4912D01*
X56483Y4899D01*
X56488Y4894D01*
X56491Y4890D01*
X56496Y4885D01*
X56500Y4879D01*
X56509Y4865D01*
X56519Y4849D01*
X56528Y4829D01*
X56535Y4807D01*
X56537Y4796D01*
X56539Y4785D01*
X56539Y4784D01*
X56539Y4782D01*
Y4778D01*
Y4774D01*
Y4768D01*
X56538Y4762D01*
X56536Y4745D01*
X56531Y4726D01*
X56524Y4704D01*
X56514Y4681D01*
X56499Y4657D01*
X56406Y4732D01*
X56407Y4733D01*
X56409Y4736D01*
X56413Y4742D01*
X56417Y4749D01*
X56421Y4757D01*
X56424Y4767D01*
X56427Y4776D01*
X56428Y4786D01*
Y4787D01*
X56427Y4790D01*
X56426Y4795D01*
X56425Y4802D01*
X56422Y4808D01*
X56418Y4816D01*
X56413Y4824D01*
X56406Y4832D01*
X56405Y4834D01*
X56401Y4836D01*
X56395Y4841D01*
X56386Y4845D01*
X56377Y4850D01*
X56364Y4853D01*
X56350Y4855D01*
X56335Y4854D01*
X56333Y4853D01*
X56330D01*
X56326Y4852D01*
X56322Y4851D01*
X56316Y4849D01*
X56311Y4845D01*
X56303Y4841D01*
X56294Y4838D01*
X56284Y4832D01*
X56274Y4826D01*
X56263Y4819D01*
X56250Y4810D01*
X56237Y4800D01*
X56223Y4788D01*
X56208Y4775D01*
X56209D01*
X56211Y4776D01*
X56214Y4775D01*
X56220D01*
X56226D01*
X56233Y4775D01*
X56250Y4773D01*
X56268Y4768D01*
X56288Y4760D01*
X56299Y4755D01*
X56308Y4749D01*
X56318Y4741D01*
X56328Y4733D01*
X56333Y4728D01*
X56336Y4723D01*
X56340Y4718D01*
X56345Y4712D01*
X56350Y4704D01*
X56354Y4696D01*
X56364Y4676D01*
X56368Y4665D01*
X56372Y4653D01*
X56375Y4641D01*
X56377Y4627D01*
X56379Y4613D01*
Y4598D01*
Y4597D01*
Y4594D01*
Y4590D01*
X56377Y4585D01*
X56376Y4577D01*
X56375Y4569D01*
X56372Y4560D01*
X56369Y4550D01*
X56366Y4539D01*
X56361Y4527D01*
X56356Y4515D01*
X56349Y4502D01*
X56341Y4490D01*
X56332Y4477D01*
X56322Y4465D01*
X56311Y4452D01*
X56310Y4451D01*
X56307Y4449D01*
X56304Y4445D01*
X56298Y4441D01*
X56292Y4435D01*
X56284Y4430D01*
X56275Y4423D01*
X56265Y4417D01*
X56243Y4403D01*
X56230Y4398D01*
X56216Y4393D01*
X56203Y4388D01*
X56188Y4384D01*
X56173Y4382D01*
X56158Y4381D01*
X56156D01*
X56154D01*
X56150D01*
X56144Y4382D01*
X56137Y4383D01*
X56128Y4384D01*
X56119Y4386D01*
X56109Y4388D01*
X56097Y4392D01*
X56086Y4396D01*
X56074Y4401D01*
X56061Y4407D01*
X56048Y4415D01*
X56036Y4423D01*
X56024Y4433D01*
X56011Y4444D01*
X56008Y4447D01*
X56005Y4451D01*
X56001Y4456D01*
X55996Y4463D01*
X55990Y4471D01*
X55984Y4480D01*
X55978Y4490D01*
X55972Y4501D01*
X55967Y4515D01*
X55961Y4528D01*
X55957Y4543D01*
X55953Y4558D01*
X55951Y4575D01*
X55950Y4592D01*
X55951Y4610D01*
Y4611D01*
X55952Y4615D01*
X55953Y4620D01*
X55955Y4627D01*
X55957Y4637D01*
X55961Y4647D01*
X55965Y4660D01*
X55971Y4673D01*
X55978Y4690D01*
X55987Y4706D01*
X55998Y4724D01*
X56011Y4743D01*
X56025Y4764D01*
X56042Y4785D01*
X56061Y4806D01*
X56082Y4829D01*
X56083Y4830D01*
X56084Y4830D01*
X56086Y4832D01*
X56088Y4834D01*
X56094Y4841D01*
X56103Y4849D01*
X56114Y4858D01*
X56128Y4869D01*
X56142Y4881D01*
X56158Y4892D01*
X56174Y4905D01*
X56192Y4917D01*
X56211Y4928D01*
X56231Y4938D01*
X56250Y4947D01*
X56269Y4955D01*
X56289Y4960D01*
X56308Y4963D01*
X56309D01*
X56313Y4964D01*
X56318D01*
D02*
G37*
G36*
X52764Y8552D02*
X52778Y8550D01*
X52795Y8547D01*
X52811Y8542D01*
X52812Y8542D01*
X52813D01*
X52818Y8539D01*
X52827Y8535D01*
X52838Y8530D01*
X52850Y8523D01*
X52865Y8514D01*
X52878Y8503D01*
X52893Y8489D01*
X52899Y8484D01*
X52902Y8478D01*
X52908Y8472D01*
X52913Y8465D01*
X52919Y8457D01*
X52924Y8448D01*
X52936Y8427D01*
X52941Y8415D01*
X52946Y8401D01*
X52950Y8388D01*
X52952Y8375D01*
X52954Y8360D01*
Y8346D01*
Y8344D01*
Y8343D01*
Y8339D01*
X52953Y8335D01*
X52952Y8323D01*
X52949Y8308D01*
X52944Y8291D01*
X52935Y8273D01*
X52925Y8255D01*
X52918Y8247D01*
X52911Y8238D01*
X52910Y8238D01*
X52908Y8236D01*
X52904Y8233D01*
X52900Y8230D01*
X52894Y8225D01*
X52887Y8221D01*
X52878Y8216D01*
X52868Y8212D01*
X52857Y8208D01*
X52846Y8204D01*
X52833Y8202D01*
X52818Y8201D01*
X52802D01*
X52786Y8201D01*
X52769Y8204D01*
X52750Y8208D01*
X52751Y8208D01*
X52751Y8206D01*
X52753Y8204D01*
X52755Y8200D01*
X52760Y8191D01*
X52765Y8178D01*
X52769Y8163D01*
X52773Y8146D01*
X52775Y8127D01*
X52774Y8108D01*
Y8106D01*
X52773Y8099D01*
X52770Y8090D01*
X52767Y8077D01*
X52761Y8063D01*
X52752Y8047D01*
X52742Y8031D01*
X52728Y8015D01*
X52727Y8014D01*
X52725Y8012D01*
X52722Y8009D01*
X52717Y8006D01*
X52712Y8001D01*
X52704Y7997D01*
X52696Y7991D01*
X52687Y7985D01*
X52666Y7974D01*
X52654Y7970D01*
X52641Y7965D01*
X52627Y7961D01*
X52613Y7959D01*
X52598Y7957D01*
X52582D01*
X52581D01*
X52578D01*
X52574Y7957D01*
X52568Y7958D01*
X52560Y7959D01*
X52552Y7961D01*
X52542Y7963D01*
X52531Y7966D01*
X52520Y7969D01*
X52508Y7974D01*
X52495Y7980D01*
X52483Y7985D01*
X52470Y7993D01*
X52457Y8002D01*
X52444Y8012D01*
X52432Y8023D01*
X52426Y8029D01*
X52422Y8034D01*
X52417Y8040D01*
X52412Y8047D01*
X52407Y8055D01*
X52400Y8064D01*
X52389Y8083D01*
X52378Y8107D01*
X52373Y8120D01*
X52370Y8133D01*
X52367Y8147D01*
X52365Y8161D01*
Y8162D01*
Y8165D01*
Y8168D01*
Y8174D01*
Y8180D01*
X52366Y8188D01*
X52367Y8197D01*
X52369Y8206D01*
X52372Y8217D01*
X52374Y8228D01*
X52382Y8251D01*
X52395Y8275D01*
X52402Y8287D01*
X52411Y8299D01*
X52505Y8226D01*
X52504Y8225D01*
X52504Y8225D01*
X52500Y8220D01*
X52496Y8213D01*
X52491Y8204D01*
X52486Y8193D01*
X52481Y8181D01*
X52478Y8168D01*
X52477Y8155D01*
Y8153D01*
X52478Y8149D01*
X52479Y8142D01*
X52481Y8135D01*
X52484Y8125D01*
X52489Y8116D01*
X52495Y8106D01*
X52503Y8096D01*
X52504Y8095D01*
X52508Y8092D01*
X52514Y8088D01*
X52521Y8083D01*
X52531Y8078D01*
X52542Y8074D01*
X52555Y8072D01*
X52568Y8071D01*
X52570D01*
X52576Y8072D01*
X52583Y8074D01*
X52593Y8076D01*
X52604Y8080D01*
X52617Y8087D01*
X52630Y8096D01*
X52643Y8108D01*
X52644Y8108D01*
X52644Y8109D01*
X52648Y8113D01*
X52653Y8119D01*
X52660Y8129D01*
X52666Y8140D01*
X52671Y8151D01*
X52675Y8165D01*
X52677Y8178D01*
Y8180D01*
Y8185D01*
X52676Y8192D01*
X52675Y8200D01*
X52672Y8210D01*
X52668Y8220D01*
X52663Y8231D01*
X52654Y8240D01*
X52648Y8247D01*
X52642Y8251D01*
X52636Y8256D01*
X52627Y8262D01*
X52618Y8267D01*
X52608Y8274D01*
X52687Y8335D01*
X52693Y8329D01*
X52700Y8323D01*
X52708Y8316D01*
X52719Y8309D01*
X52731Y8302D01*
X52743Y8298D01*
X52756Y8295D01*
X52757D01*
X52763D01*
X52768Y8296D01*
X52778Y8297D01*
X52787Y8300D01*
X52797Y8304D01*
X52808Y8310D01*
X52818Y8319D01*
X52819Y8321D01*
X52822Y8323D01*
X52825Y8328D01*
X52829Y8335D01*
X52834Y8342D01*
X52837Y8350D01*
X52840Y8360D01*
X52841Y8370D01*
Y8371D01*
X52840Y8374D01*
Y8380D01*
X52838Y8387D01*
X52835Y8394D01*
X52832Y8403D01*
X52825Y8412D01*
X52818Y8420D01*
X52814Y8424D01*
X52810Y8427D01*
X52803Y8431D01*
X52795Y8435D01*
X52786Y8439D01*
X52776Y8442D01*
X52765Y8442D01*
X52763D01*
X52759D01*
X52753Y8441D01*
X52744Y8439D01*
X52735Y8437D01*
X52725Y8431D01*
X52713Y8425D01*
X52700Y8416D01*
X52634Y8509D01*
X52634Y8510D01*
X52636Y8510D01*
X52638Y8512D01*
X52642Y8515D01*
X52651Y8520D01*
X52664Y8527D01*
X52678Y8534D01*
X52693Y8541D01*
X52709Y8546D01*
X52725Y8550D01*
X52727Y8551D01*
X52732D01*
X52740Y8552D01*
X52751Y8552D01*
X52764Y8552D01*
D02*
G37*
G36*
X58558Y6766D02*
X58270Y6478D01*
X58326Y6422D01*
X58251Y6346D01*
X58194Y6402D01*
X58104Y6311D01*
X58020Y6395D01*
X58111Y6486D01*
X57925Y6672D01*
X58000Y6747D01*
X58485Y6839D01*
X58558Y6766D01*
D02*
G37*
G36*
X18720Y12781D02*
X18733D01*
X18748Y12780D01*
X18781Y12772D01*
X18818Y12763D01*
X18859Y12748D01*
X18900Y12728D01*
X18918Y12715D01*
X18937Y12700D01*
X18939D01*
X18941Y12696D01*
X18946Y12691D01*
X18952Y12685D01*
X18961Y12676D01*
X18968Y12667D01*
X18989Y12641D01*
X19009Y12606D01*
X19029Y12565D01*
X19048Y12519D01*
X19061Y12463D01*
X18824Y12437D01*
Y12441D01*
X18822Y12448D01*
X18818Y12461D01*
X18815Y12478D01*
X18809Y12494D01*
X18800Y12513D01*
X18791Y12530D01*
X18778Y12544D01*
X18776Y12546D01*
X18770Y12550D01*
X18763Y12556D01*
X18752Y12563D01*
X18739Y12569D01*
X18722Y12574D01*
X18702Y12578D01*
X18681Y12580D01*
X18678D01*
X18668Y12578D01*
X18654Y12576D01*
X18635Y12570D01*
X18615Y12563D01*
X18592Y12550D01*
X18570Y12533D01*
X18550Y12509D01*
X18548Y12506D01*
X18544Y12502D01*
X18541Y12494D01*
X18537Y12487D01*
X18531Y12476D01*
X18528Y12463D01*
X18522Y12446D01*
X18515Y12428D01*
X18509Y12407D01*
X18504Y12383D01*
X18498Y12357D01*
X18492Y12328D01*
X18489Y12295D01*
X18485Y12257D01*
X18481Y12219D01*
X18483Y12220D01*
X18485Y12224D01*
X18491Y12228D01*
X18498Y12235D01*
X18507Y12245D01*
X18518Y12254D01*
X18544Y12274D01*
X18578Y12293D01*
X18617Y12311D01*
X18639Y12319D01*
X18661Y12322D01*
X18685Y12326D01*
X18711Y12328D01*
X18726D01*
X18737Y12326D01*
X18750Y12324D01*
X18765Y12322D01*
X18783Y12319D01*
X18802Y12313D01*
X18842Y12298D01*
X18865Y12289D01*
X18887Y12278D01*
X18909Y12265D01*
X18931Y12248D01*
X18954Y12230D01*
X18974Y12209D01*
X18976Y12207D01*
X18979Y12204D01*
X18985Y12198D01*
X18991Y12189D01*
X19000Y12176D01*
X19009Y12163D01*
X19018Y12146D01*
X19029Y12128D01*
X19041Y12107D01*
X19050Y12083D01*
X19059Y12059D01*
X19068Y12032D01*
X19074Y12004D01*
X19079Y11972D01*
X19083Y11941D01*
X19085Y11906D01*
Y11904D01*
Y11896D01*
Y11887D01*
X19083Y11872D01*
X19081Y11856D01*
X19079Y11837D01*
X19076Y11815D01*
X19070Y11793D01*
X19057Y11741D01*
X19048Y11715D01*
X19035Y11689D01*
X19022Y11663D01*
X19007Y11637D01*
X18989Y11611D01*
X18968Y11589D01*
X18966Y11587D01*
X18963Y11583D01*
X18957Y11578D01*
X18948Y11571D01*
X18937Y11561D01*
X18922Y11552D01*
X18907Y11541D01*
X18889Y11530D01*
X18868Y11519D01*
X18846Y11508D01*
X18822Y11498D01*
X18794Y11489D01*
X18766Y11482D01*
X18737Y11476D01*
X18705Y11472D01*
X18672Y11471D01*
X18663D01*
X18654Y11472D01*
X18641D01*
X18624Y11476D01*
X18604Y11478D01*
X18583Y11483D01*
X18559Y11489D01*
X18535Y11496D01*
X18509Y11508D01*
X18481Y11519D01*
X18455Y11533D01*
X18428Y11550D01*
X18402Y11571D01*
X18376Y11595D01*
X18352Y11620D01*
X18350Y11622D01*
X18346Y11628D01*
X18341Y11637D01*
X18333Y11650D01*
X18322Y11667D01*
X18313Y11687D01*
X18302Y11711D01*
X18291Y11739D01*
X18278Y11772D01*
X18267Y11808D01*
X18257Y11848D01*
X18248Y11895D01*
X18239Y11943D01*
X18233Y11996D01*
X18229Y12054D01*
X18228Y12117D01*
Y12119D01*
Y12120D01*
Y12126D01*
Y12132D01*
Y12150D01*
X18229Y12174D01*
X18231Y12204D01*
X18235Y12237D01*
X18239Y12274D01*
X18244Y12313D01*
X18250Y12354D01*
X18259Y12396D01*
X18270Y12439D01*
X18283Y12482D01*
X18298Y12520D01*
X18315Y12559D01*
X18335Y12594D01*
X18357Y12626D01*
X18359Y12628D01*
X18363Y12633D01*
X18370Y12641D01*
X18381Y12650D01*
X18394Y12663D01*
X18409Y12676D01*
X18428Y12691D01*
X18448Y12706D01*
X18472Y12719D01*
X18496Y12733D01*
X18526Y12746D01*
X18555Y12759D01*
X18587Y12769D01*
X18622Y12776D01*
X18657Y12781D01*
X18696Y12783D01*
X18711D01*
X18720Y12781D01*
D02*
G37*
G36*
X13293Y12798D02*
X13313Y12796D01*
X13337Y12794D01*
X13361Y12791D01*
X13389Y12787D01*
X13449Y12774D01*
X13478Y12765D01*
X13508Y12756D01*
X13537Y12743D01*
X13565Y12728D01*
X13591Y12711D01*
X13615Y12693D01*
X13617Y12691D01*
X13621Y12687D01*
X13626Y12682D01*
X13634Y12674D01*
X13643Y12663D01*
X13654Y12650D01*
X13665Y12635D01*
X13678Y12619D01*
X13689Y12598D01*
X13700Y12578D01*
X13711Y12554D01*
X13721Y12528D01*
X13730Y12502D01*
X13737Y12472D01*
X13743Y12443D01*
X13745Y12409D01*
X13486Y12400D01*
Y12402D01*
Y12404D01*
X13482Y12417D01*
X13478Y12433D01*
X13471Y12454D01*
X13461Y12478D01*
X13449Y12500D01*
X13432Y12522D01*
X13413Y12541D01*
X13411Y12543D01*
X13404Y12548D01*
X13391Y12556D01*
X13373Y12563D01*
X13350Y12570D01*
X13323Y12578D01*
X13289Y12583D01*
X13250Y12585D01*
X13232D01*
X13212Y12583D01*
X13187Y12580D01*
X13160Y12574D01*
X13130Y12565D01*
X13102Y12554D01*
X13076Y12537D01*
X13074Y12535D01*
X13071Y12532D01*
X13063Y12526D01*
X13056Y12517D01*
X13049Y12506D01*
X13041Y12491D01*
X13037Y12476D01*
X13036Y12457D01*
Y12456D01*
Y12450D01*
X13037Y12441D01*
X13041Y12432D01*
X13045Y12419D01*
X13050Y12406D01*
X13060Y12393D01*
X13073Y12380D01*
X13074Y12378D01*
X13084Y12372D01*
X13089Y12369D01*
X13099Y12365D01*
X13108Y12359D01*
X13121Y12354D01*
X13136Y12348D01*
X13152Y12341D01*
X13173Y12333D01*
X13193Y12326D01*
X13219Y12319D01*
X13247Y12311D01*
X13276Y12304D01*
X13310Y12295D01*
X13311D01*
X13319Y12293D01*
X13328Y12291D01*
X13341Y12287D01*
X13356Y12283D01*
X13374Y12278D01*
X13395Y12272D01*
X13415Y12267D01*
X13460Y12252D01*
X13506Y12237D01*
X13550Y12220D01*
X13569Y12211D01*
X13587Y12202D01*
X13589D01*
X13591Y12200D01*
X13602Y12193D01*
X13619Y12182D01*
X13639Y12167D01*
X13661Y12148D01*
X13686Y12126D01*
X13710Y12100D01*
X13730Y12070D01*
X13732Y12067D01*
X13737Y12056D01*
X13747Y12039D01*
X13756Y12015D01*
X13765Y11985D01*
X13774Y11950D01*
X13780Y11911D01*
X13782Y11867D01*
Y11865D01*
Y11861D01*
Y11856D01*
Y11848D01*
X13780Y11839D01*
X13778Y11826D01*
X13774Y11800D01*
X13767Y11767D01*
X13756Y11732D01*
X13739Y11696D01*
X13719Y11659D01*
Y11658D01*
X13715Y11656D01*
X13708Y11645D01*
X13693Y11626D01*
X13674Y11606D01*
X13650Y11582D01*
X13619Y11559D01*
X13586Y11537D01*
X13545Y11517D01*
X13543D01*
X13539Y11515D01*
X13534Y11513D01*
X13524Y11509D01*
X13513Y11506D01*
X13500Y11502D01*
X13486Y11498D01*
X13469Y11495D01*
X13449Y11489D01*
X13428Y11485D01*
X13380Y11478D01*
X13326Y11472D01*
X13267Y11471D01*
X13243D01*
X13226Y11472D01*
X13206Y11474D01*
X13184Y11476D01*
X13158Y11480D01*
X13130Y11485D01*
X13069Y11498D01*
X13037Y11508D01*
X13008Y11517D01*
X12976Y11530D01*
X12947Y11545D01*
X12919Y11561D01*
X12893Y11582D01*
X12891Y11583D01*
X12887Y11587D01*
X12880Y11593D01*
X12873Y11602D01*
X12862Y11615D01*
X12850Y11630D01*
X12837Y11646D01*
X12825Y11665D01*
X12812Y11687D01*
X12799Y11711D01*
X12786Y11739D01*
X12773Y11769D01*
X12763Y11800D01*
X12752Y11835D01*
X12745Y11872D01*
X12739Y11911D01*
X12991Y11935D01*
Y11933D01*
X12993Y11930D01*
Y11922D01*
X12995Y11915D01*
X13002Y11893D01*
X13012Y11865D01*
X13023Y11833D01*
X13039Y11802D01*
X13058Y11774D01*
X13082Y11748D01*
X13086Y11746D01*
X13095Y11739D01*
X13110Y11730D01*
X13132Y11719D01*
X13160Y11708D01*
X13191Y11698D01*
X13228Y11691D01*
X13271Y11689D01*
X13291D01*
X13313Y11693D01*
X13341Y11696D01*
X13371Y11702D01*
X13402Y11711D01*
X13432Y11724D01*
X13458Y11741D01*
X13461Y11743D01*
X13469Y11750D01*
X13478Y11761D01*
X13491Y11776D01*
X13502Y11795D01*
X13513Y11817D01*
X13521Y11839D01*
X13523Y11865D01*
Y11867D01*
Y11872D01*
X13521Y11882D01*
X13519Y11893D01*
X13515Y11904D01*
X13511Y11917D01*
X13504Y11930D01*
X13495Y11943D01*
X13493Y11945D01*
X13489Y11948D01*
X13484Y11954D01*
X13474Y11961D01*
X13461Y11970D01*
X13445Y11980D01*
X13426Y11989D01*
X13402Y11998D01*
X13400D01*
X13393Y12002D01*
X13380Y12006D01*
X13371Y12009D01*
X13360Y12011D01*
X13347Y12015D01*
X13332Y12020D01*
X13315Y12024D01*
X13297Y12030D01*
X13274Y12035D01*
X13250Y12041D01*
X13224Y12048D01*
X13195Y12056D01*
X13193D01*
X13186Y12057D01*
X13174Y12061D01*
X13162Y12065D01*
X13145Y12070D01*
X13124Y12076D01*
X13104Y12083D01*
X13080Y12091D01*
X13032Y12109D01*
X12986Y12132D01*
X12962Y12143D01*
X12941Y12156D01*
X12921Y12169D01*
X12904Y12182D01*
X12902Y12183D01*
X12899Y12187D01*
X12893Y12193D01*
X12886Y12200D01*
X12876Y12211D01*
X12867Y12224D01*
X12856Y12237D01*
X12847Y12254D01*
X12825Y12293D01*
X12806Y12337D01*
X12799Y12361D01*
X12793Y12385D01*
X12789Y12413D01*
X12787Y12441D01*
Y12443D01*
Y12444D01*
Y12450D01*
Y12457D01*
X12791Y12476D01*
X12795Y12500D01*
X12800Y12528D01*
X12810Y12559D01*
X12823Y12593D01*
X12841Y12624D01*
Y12626D01*
X12843Y12628D01*
X12852Y12639D01*
X12863Y12654D01*
X12882Y12672D01*
X12904Y12693D01*
X12932Y12715D01*
X12963Y12735D01*
X13000Y12754D01*
X13002D01*
X13006Y12756D01*
X13012Y12757D01*
X13019Y12761D01*
X13030Y12765D01*
X13041Y12769D01*
X13056Y12772D01*
X13073Y12778D01*
X13110Y12785D01*
X13152Y12793D01*
X13200Y12798D01*
X13254Y12800D01*
X13276D01*
X13293Y12798D01*
D02*
G37*
G36*
X12099D02*
X12119Y12796D01*
X12143Y12794D01*
X12167Y12791D01*
X12195Y12787D01*
X12254Y12774D01*
X12284Y12765D01*
X12313Y12756D01*
X12343Y12743D01*
X12371Y12728D01*
X12397Y12711D01*
X12421Y12693D01*
X12423Y12691D01*
X12426Y12687D01*
X12432Y12682D01*
X12439Y12674D01*
X12449Y12663D01*
X12460Y12650D01*
X12471Y12635D01*
X12484Y12619D01*
X12495Y12598D01*
X12506Y12578D01*
X12517Y12554D01*
X12526Y12528D01*
X12536Y12502D01*
X12543Y12472D01*
X12549Y12443D01*
X12550Y12409D01*
X12291Y12400D01*
Y12402D01*
Y12404D01*
X12288Y12417D01*
X12284Y12433D01*
X12276Y12454D01*
X12267Y12478D01*
X12254Y12500D01*
X12238Y12522D01*
X12219Y12541D01*
X12217Y12543D01*
X12210Y12548D01*
X12197Y12556D01*
X12178Y12563D01*
X12156Y12570D01*
X12128Y12578D01*
X12095Y12583D01*
X12056Y12585D01*
X12038D01*
X12017Y12583D01*
X11993Y12580D01*
X11965Y12574D01*
X11936Y12565D01*
X11908Y12554D01*
X11882Y12537D01*
X11880Y12535D01*
X11876Y12532D01*
X11869Y12526D01*
X11862Y12517D01*
X11854Y12506D01*
X11847Y12491D01*
X11843Y12476D01*
X11841Y12457D01*
Y12456D01*
Y12450D01*
X11843Y12441D01*
X11847Y12432D01*
X11851Y12419D01*
X11856Y12406D01*
X11865Y12393D01*
X11878Y12380D01*
X11880Y12378D01*
X11889Y12372D01*
X11895Y12369D01*
X11904Y12365D01*
X11913Y12359D01*
X11926Y12354D01*
X11941Y12348D01*
X11958Y12341D01*
X11978Y12333D01*
X11999Y12326D01*
X12025Y12319D01*
X12052Y12311D01*
X12082Y12304D01*
X12115Y12295D01*
X12117D01*
X12125Y12293D01*
X12134Y12291D01*
X12147Y12287D01*
X12162Y12283D01*
X12180Y12278D01*
X12200Y12272D01*
X12221Y12267D01*
X12265Y12252D01*
X12312Y12237D01*
X12356Y12220D01*
X12375Y12211D01*
X12393Y12202D01*
X12395D01*
X12397Y12200D01*
X12408Y12193D01*
X12425Y12182D01*
X12445Y12167D01*
X12467Y12148D01*
X12491Y12126D01*
X12515Y12100D01*
X12536Y12070D01*
X12538Y12067D01*
X12543Y12056D01*
X12552Y12039D01*
X12562Y12015D01*
X12571Y11985D01*
X12580Y11950D01*
X12586Y11911D01*
X12587Y11867D01*
Y11865D01*
Y11861D01*
Y11856D01*
Y11848D01*
X12586Y11839D01*
X12584Y11826D01*
X12580Y11800D01*
X12573Y11767D01*
X12562Y11732D01*
X12545Y11696D01*
X12525Y11659D01*
Y11658D01*
X12521Y11656D01*
X12513Y11645D01*
X12499Y11626D01*
X12480Y11606D01*
X12456Y11582D01*
X12425Y11559D01*
X12391Y11537D01*
X12350Y11517D01*
X12349D01*
X12345Y11515D01*
X12339Y11513D01*
X12330Y11509D01*
X12319Y11506D01*
X12306Y11502D01*
X12291Y11498D01*
X12275Y11495D01*
X12254Y11489D01*
X12234Y11485D01*
X12186Y11478D01*
X12132Y11472D01*
X12073Y11471D01*
X12049D01*
X12032Y11472D01*
X12012Y11474D01*
X11989Y11476D01*
X11963Y11480D01*
X11936Y11485D01*
X11875Y11498D01*
X11843Y11508D01*
X11814Y11517D01*
X11782Y11530D01*
X11752Y11545D01*
X11725Y11561D01*
X11699Y11582D01*
X11697Y11583D01*
X11693Y11587D01*
X11686Y11593D01*
X11678Y11602D01*
X11667Y11615D01*
X11656Y11630D01*
X11643Y11646D01*
X11630Y11665D01*
X11617Y11687D01*
X11604Y11711D01*
X11591Y11739D01*
X11578Y11769D01*
X11569Y11800D01*
X11558Y11835D01*
X11551Y11872D01*
X11545Y11911D01*
X11797Y11935D01*
Y11933D01*
X11799Y11930D01*
Y11922D01*
X11801Y11915D01*
X11808Y11893D01*
X11817Y11865D01*
X11828Y11833D01*
X11845Y11802D01*
X11863Y11774D01*
X11888Y11748D01*
X11891Y11746D01*
X11901Y11739D01*
X11915Y11730D01*
X11938Y11719D01*
X11965Y11708D01*
X11997Y11698D01*
X12034Y11691D01*
X12076Y11689D01*
X12097D01*
X12119Y11693D01*
X12147Y11696D01*
X12176Y11702D01*
X12208Y11711D01*
X12238Y11724D01*
X12263Y11741D01*
X12267Y11743D01*
X12275Y11750D01*
X12284Y11761D01*
X12297Y11776D01*
X12308Y11795D01*
X12319Y11817D01*
X12326Y11839D01*
X12328Y11865D01*
Y11867D01*
Y11872D01*
X12326Y11882D01*
X12325Y11893D01*
X12321Y11904D01*
X12317Y11917D01*
X12310Y11930D01*
X12300Y11943D01*
X12299Y11945D01*
X12295Y11948D01*
X12289Y11954D01*
X12280Y11961D01*
X12267Y11970D01*
X12250Y11980D01*
X12232Y11989D01*
X12208Y11998D01*
X12206D01*
X12199Y12002D01*
X12186Y12006D01*
X12176Y12009D01*
X12165Y12011D01*
X12152Y12015D01*
X12138Y12020D01*
X12121Y12024D01*
X12102Y12030D01*
X12080Y12035D01*
X12056Y12041D01*
X12030Y12048D01*
X12001Y12056D01*
X11999D01*
X11991Y12057D01*
X11980Y12061D01*
X11967Y12065D01*
X11951Y12070D01*
X11930Y12076D01*
X11910Y12083D01*
X11886Y12091D01*
X11838Y12109D01*
X11791Y12132D01*
X11767Y12143D01*
X11747Y12156D01*
X11726Y12169D01*
X11710Y12182D01*
X11708Y12183D01*
X11704Y12187D01*
X11699Y12193D01*
X11691Y12200D01*
X11682Y12211D01*
X11673Y12224D01*
X11662Y12237D01*
X11652Y12254D01*
X11630Y12293D01*
X11612Y12337D01*
X11604Y12361D01*
X11599Y12385D01*
X11595Y12413D01*
X11593Y12441D01*
Y12443D01*
Y12444D01*
Y12450D01*
Y12457D01*
X11597Y12476D01*
X11601Y12500D01*
X11606Y12528D01*
X11615Y12559D01*
X11628Y12593D01*
X11647Y12624D01*
Y12626D01*
X11649Y12628D01*
X11658Y12639D01*
X11669Y12654D01*
X11688Y12672D01*
X11710Y12693D01*
X11738Y12715D01*
X11769Y12735D01*
X11806Y12754D01*
X11808D01*
X11812Y12756D01*
X11817Y12757D01*
X11825Y12761D01*
X11836Y12765D01*
X11847Y12769D01*
X11862Y12772D01*
X11878Y12778D01*
X11915Y12785D01*
X11958Y12793D01*
X12006Y12798D01*
X12060Y12800D01*
X12082D01*
X12099Y12798D01*
D02*
G37*
G36*
X16669Y12781D02*
X16685Y12780D01*
X16702Y12778D01*
X16722Y12774D01*
X16743Y12769D01*
X16789Y12756D01*
X16813Y12746D01*
X16839Y12733D01*
X16863Y12720D01*
X16885Y12706D01*
X16909Y12687D01*
X16930Y12667D01*
X16931Y12665D01*
X16933Y12663D01*
X16939Y12657D01*
X16944Y12650D01*
X16959Y12632D01*
X16976Y12606D01*
X16993Y12574D01*
X17006Y12537D01*
X17017Y12496D01*
X17019Y12476D01*
X17020Y12454D01*
Y12452D01*
Y12446D01*
X17019Y12437D01*
X17017Y12426D01*
X17015Y12411D01*
X17011Y12394D01*
X17006Y12376D01*
X16998Y12356D01*
X16987Y12335D01*
X16976Y12313D01*
X16961Y12291D01*
X16943Y12269D01*
X16920Y12246D01*
X16896Y12224D01*
X16869Y12204D01*
X16835Y12183D01*
X16837D01*
X16841Y12182D01*
X16846D01*
X16854Y12178D01*
X16874Y12172D01*
X16898Y12161D01*
X16926Y12146D01*
X16956Y12128D01*
X16985Y12104D01*
X17011Y12076D01*
X17015Y12072D01*
X17022Y12061D01*
X17031Y12045D01*
X17044Y12020D01*
X17057Y11993D01*
X17067Y11958D01*
X17074Y11920D01*
X17078Y11878D01*
Y11876D01*
Y11870D01*
Y11861D01*
X17076Y11850D01*
X17074Y11835D01*
X17070Y11819D01*
X17067Y11798D01*
X17063Y11778D01*
X17048Y11733D01*
X17037Y11709D01*
X17026Y11683D01*
X17011Y11659D01*
X16994Y11635D01*
X16976Y11611D01*
X16954Y11589D01*
X16952Y11587D01*
X16948Y11583D01*
X16941Y11578D01*
X16931Y11571D01*
X16919Y11561D01*
X16906Y11552D01*
X16887Y11541D01*
X16869Y11530D01*
X16848Y11519D01*
X16824Y11508D01*
X16798Y11498D01*
X16772Y11489D01*
X16743Y11482D01*
X16713Y11476D01*
X16680Y11472D01*
X16646Y11471D01*
X16630D01*
X16617Y11472D01*
X16602Y11474D01*
X16585Y11476D01*
X16567Y11480D01*
X16544Y11483D01*
X16500Y11495D01*
X16452Y11513D01*
X16426Y11524D01*
X16404Y11537D01*
X16380Y11554D01*
X16357Y11571D01*
X16356Y11572D01*
X16352Y11576D01*
X16346Y11582D01*
X16339Y11589D01*
X16330Y11598D01*
X16320Y11611D01*
X16309Y11624D01*
X16298Y11641D01*
X16287Y11659D01*
X16274Y11678D01*
X16254Y11722D01*
X16237Y11774D01*
X16230Y11802D01*
X16226Y11832D01*
X16463Y11861D01*
Y11859D01*
Y11858D01*
X16465Y11846D01*
X16469Y11830D01*
X16474Y11809D01*
X16483Y11787D01*
X16493Y11763D01*
X16507Y11741D01*
X16524Y11720D01*
X16526Y11719D01*
X16533Y11713D01*
X16544Y11706D01*
X16557Y11698D01*
X16576Y11689D01*
X16596Y11682D01*
X16619Y11676D01*
X16644Y11674D01*
X16648D01*
X16657Y11676D01*
X16670Y11678D01*
X16689Y11682D01*
X16709Y11689D01*
X16730Y11698D01*
X16752Y11713D01*
X16772Y11732D01*
X16774Y11733D01*
X16781Y11743D01*
X16789Y11756D01*
X16800Y11772D01*
X16809Y11795D01*
X16819Y11822D01*
X16824Y11854D01*
X16826Y11889D01*
Y11891D01*
Y11893D01*
Y11904D01*
X16824Y11920D01*
X16820Y11943D01*
X16813Y11967D01*
X16804Y11991D01*
X16791Y12015D01*
X16774Y12037D01*
X16772Y12039D01*
X16765Y12046D01*
X16754Y12056D01*
X16741Y12065D01*
X16722Y12076D01*
X16702Y12083D01*
X16680Y12091D01*
X16654Y12093D01*
X16635D01*
X16622Y12091D01*
X16606Y12089D01*
X16585Y12085D01*
X16565Y12080D01*
X16541Y12074D01*
X16567Y12272D01*
X16583D01*
X16602Y12274D01*
X16624Y12276D01*
X16648Y12282D01*
X16674Y12289D01*
X16698Y12300D01*
X16720Y12315D01*
X16722Y12317D01*
X16730Y12324D01*
X16737Y12333D01*
X16748Y12348D01*
X16757Y12365D01*
X16767Y12385D01*
X16772Y12409D01*
X16774Y12437D01*
Y12441D01*
Y12448D01*
X16772Y12459D01*
X16769Y12474D01*
X16765Y12491D01*
X16757Y12507D01*
X16748Y12526D01*
X16735Y12541D01*
X16733Y12543D01*
X16728Y12546D01*
X16720Y12554D01*
X16707Y12561D01*
X16693Y12567D01*
X16676Y12574D01*
X16654Y12578D01*
X16632Y12580D01*
X16620D01*
X16609Y12578D01*
X16594Y12574D01*
X16578Y12569D01*
X16559Y12561D01*
X16541Y12550D01*
X16524Y12535D01*
X16522Y12533D01*
X16517Y12528D01*
X16509Y12517D01*
X16500Y12502D01*
X16491Y12485D01*
X16483Y12463D01*
X16476Y12437D01*
X16470Y12407D01*
X16245Y12444D01*
Y12446D01*
X16246Y12450D01*
Y12456D01*
X16248Y12465D01*
X16254Y12485D01*
X16261Y12513D01*
X16272Y12543D01*
X16283Y12574D01*
X16298Y12604D01*
X16315Y12632D01*
X16317Y12635D01*
X16324Y12643D01*
X16335Y12656D01*
X16350Y12672D01*
X16369Y12689D01*
X16391Y12707D01*
X16419Y12726D01*
X16448Y12743D01*
X16450D01*
X16452Y12744D01*
X16463Y12748D01*
X16482Y12756D01*
X16504Y12763D01*
X16532Y12770D01*
X16565Y12778D01*
X16600Y12781D01*
X16639Y12783D01*
X16656D01*
X16669Y12781D01*
D02*
G37*
G36*
X23984Y12774D02*
X24020Y12772D01*
X24059Y12770D01*
X24099Y12765D01*
X24138Y12759D01*
X24173Y12750D01*
X24175D01*
X24179Y12748D01*
X24184Y12746D01*
X24192Y12744D01*
X24214Y12735D01*
X24240Y12722D01*
X24270Y12706D01*
X24303Y12685D01*
X24334Y12661D01*
X24366Y12632D01*
X24368D01*
X24370Y12628D01*
X24379Y12617D01*
X24394Y12598D01*
X24410Y12574D01*
X24431Y12544D01*
X24451Y12509D01*
X24471Y12469D01*
X24488Y12424D01*
Y12422D01*
X24490Y12419D01*
X24492Y12411D01*
X24496Y12402D01*
X24497Y12391D01*
X24501Y12376D01*
X24505Y12359D01*
X24510Y12341D01*
X24514Y12320D01*
X24518Y12296D01*
X24521Y12272D01*
X24523Y12245D01*
X24529Y12187D01*
X24531Y12122D01*
Y12120D01*
Y12115D01*
Y12107D01*
Y12096D01*
X24529Y12082D01*
Y12067D01*
X24527Y12048D01*
X24525Y12028D01*
X24521Y11985D01*
X24514Y11941D01*
X24503Y11895D01*
X24490Y11850D01*
Y11848D01*
X24488Y11845D01*
X24484Y11837D01*
X24481Y11826D01*
X24477Y11815D01*
X24470Y11802D01*
X24455Y11769D01*
X24436Y11733D01*
X24412Y11695D01*
X24384Y11658D01*
X24353Y11622D01*
X24349Y11619D01*
X24340Y11611D01*
X24325Y11600D01*
X24305Y11585D01*
X24279Y11569D01*
X24249Y11552D01*
X24212Y11535D01*
X24171Y11521D01*
X24170D01*
X24168Y11519D01*
X24162D01*
X24157Y11517D01*
X24136Y11513D01*
X24110Y11508D01*
X24079Y11502D01*
X24040Y11498D01*
X23994Y11496D01*
X23944Y11495D01*
X23459D01*
Y12776D01*
X23970D01*
X23984Y12774D01*
D02*
G37*
G36*
X23214Y12559D02*
X22524D01*
Y12276D01*
X23166D01*
Y12059D01*
X22524D01*
Y11711D01*
X23238D01*
Y11495D01*
X22264D01*
Y12776D01*
X23214D01*
Y12559D01*
D02*
G37*
G36*
X21435Y11711D02*
X22079D01*
Y11495D01*
X21175D01*
Y12767D01*
X21435D01*
Y11711D01*
D02*
G37*
G36*
X15867Y11495D02*
X15621D01*
Y12422D01*
X15619Y12420D01*
X15615Y12417D01*
X15608Y12411D01*
X15596Y12402D01*
X15583Y12391D01*
X15569Y12380D01*
X15550Y12367D01*
X15530Y12352D01*
X15508Y12337D01*
X15483Y12322D01*
X15458Y12306D01*
X15430Y12291D01*
X15371Y12263D01*
X15304Y12237D01*
Y12459D01*
X15306D01*
X15308Y12461D01*
X15313Y12463D01*
X15321Y12465D01*
X15339Y12474D01*
X15365Y12485D01*
X15396Y12500D01*
X15432Y12520D01*
X15471Y12546D01*
X15511Y12576D01*
X15513Y12578D01*
X15517Y12580D01*
X15522Y12585D01*
X15530Y12593D01*
X15550Y12611D01*
X15572Y12635D01*
X15598Y12665D01*
X15624Y12702D01*
X15648Y12741D01*
X15667Y12783D01*
X15867D01*
Y11495D01*
D02*
G37*
G36*
X14528Y12774D02*
X14563Y12772D01*
X14602Y12770D01*
X14643Y12765D01*
X14682Y12759D01*
X14717Y12750D01*
X14719D01*
X14722Y12748D01*
X14728Y12746D01*
X14735Y12744D01*
X14758Y12735D01*
X14784Y12722D01*
X14813Y12706D01*
X14847Y12685D01*
X14878Y12661D01*
X14909Y12632D01*
X14911D01*
X14913Y12628D01*
X14922Y12617D01*
X14937Y12598D01*
X14954Y12574D01*
X14974Y12544D01*
X14995Y12509D01*
X15015Y12469D01*
X15032Y12424D01*
Y12422D01*
X15034Y12419D01*
X15035Y12411D01*
X15039Y12402D01*
X15041Y12391D01*
X15045Y12376D01*
X15048Y12359D01*
X15054Y12341D01*
X15058Y12320D01*
X15061Y12296D01*
X15065Y12272D01*
X15067Y12245D01*
X15072Y12187D01*
X15074Y12122D01*
Y12120D01*
Y12115D01*
Y12107D01*
Y12096D01*
X15072Y12082D01*
Y12067D01*
X15071Y12048D01*
X15069Y12028D01*
X15065Y11985D01*
X15058Y11941D01*
X15047Y11895D01*
X15034Y11850D01*
Y11848D01*
X15032Y11845D01*
X15028Y11837D01*
X15024Y11826D01*
X15021Y11815D01*
X15013Y11802D01*
X14998Y11769D01*
X14980Y11733D01*
X14956Y11695D01*
X14928Y11658D01*
X14897Y11622D01*
X14893Y11619D01*
X14884Y11611D01*
X14869Y11600D01*
X14848Y11585D01*
X14822Y11569D01*
X14793Y11552D01*
X14756Y11535D01*
X14715Y11521D01*
X14713D01*
X14711Y11519D01*
X14706D01*
X14700Y11517D01*
X14680Y11513D01*
X14654Y11508D01*
X14622Y11502D01*
X14584Y11498D01*
X14537Y11496D01*
X14487Y11495D01*
X14002D01*
Y12776D01*
X14513D01*
X14528Y12774D01*
D02*
G37*
G36*
X20370Y12798D02*
X20389D01*
X20413Y12794D01*
X20440Y12791D01*
X20472Y12785D01*
X20505Y12778D01*
X20540Y12769D01*
X20577Y12757D01*
X20614Y12743D01*
X20653Y12726D01*
X20690Y12706D01*
X20727Y12682D01*
X20763Y12654D01*
X20796Y12622D01*
X20798Y12620D01*
X20803Y12615D01*
X20813Y12604D01*
X20822Y12591D01*
X20835Y12572D01*
X20850Y12550D01*
X20864Y12524D01*
X20881Y12494D01*
X20898Y12463D01*
X20913Y12426D01*
X20927Y12385D01*
X20940Y12343D01*
X20951Y12295D01*
X20959Y12245D01*
X20964Y12191D01*
X20966Y12133D01*
Y12130D01*
Y12120D01*
X20964Y12104D01*
Y12082D01*
X20961Y12056D01*
X20957Y12026D01*
X20951Y11991D01*
X20946Y11956D01*
X20937Y11917D01*
X20926Y11876D01*
X20911Y11835D01*
X20894Y11795D01*
X20876Y11756D01*
X20851Y11717D01*
X20826Y11680D01*
X20796Y11645D01*
X20794Y11643D01*
X20788Y11637D01*
X20779Y11628D01*
X20764Y11617D01*
X20748Y11604D01*
X20727Y11589D01*
X20703Y11574D01*
X20677Y11558D01*
X20646Y11541D01*
X20613Y11526D01*
X20576Y11511D01*
X20535Y11498D01*
X20492Y11487D01*
X20446Y11478D01*
X20398Y11472D01*
X20346Y11471D01*
X20333D01*
X20318Y11472D01*
X20300Y11474D01*
X20276Y11476D01*
X20248Y11480D01*
X20216Y11485D01*
X20183Y11493D01*
X20146Y11502D01*
X20111Y11513D01*
X20072Y11528D01*
X20035Y11545D01*
X19996Y11563D01*
X19961Y11587D01*
X19926Y11613D01*
X19892Y11645D01*
X19890Y11646D01*
X19885Y11652D01*
X19877Y11663D01*
X19866Y11676D01*
X19853Y11695D01*
X19839Y11717D01*
X19824Y11741D01*
X19809Y11770D01*
X19792Y11802D01*
X19777Y11839D01*
X19763Y11878D01*
X19750Y11920D01*
X19739Y11967D01*
X19731Y12017D01*
X19726Y12070D01*
X19724Y12126D01*
Y12128D01*
Y12135D01*
Y12145D01*
X19726Y12159D01*
Y12176D01*
X19727Y12195D01*
X19729Y12217D01*
X19731Y12241D01*
X19739Y12293D01*
X19748Y12348D01*
X19763Y12404D01*
X19781Y12456D01*
Y12457D01*
X19783Y12459D01*
X19787Y12465D01*
X19789Y12472D01*
X19800Y12491D01*
X19813Y12515D01*
X19829Y12543D01*
X19850Y12570D01*
X19874Y12602D01*
X19900Y12632D01*
X19902Y12633D01*
X19903Y12635D01*
X19913Y12644D01*
X19929Y12659D01*
X19950Y12676D01*
X19974Y12694D01*
X20002Y12715D01*
X20033Y12733D01*
X20066Y12748D01*
X20068D01*
X20072Y12750D01*
X20079Y12754D01*
X20089Y12756D01*
X20100Y12761D01*
X20113Y12765D01*
X20129Y12769D01*
X20146Y12774D01*
X20187Y12783D01*
X20233Y12793D01*
X20287Y12798D01*
X20342Y12800D01*
X20355D01*
X20370Y12798D01*
D02*
G37*
G36*
X17678Y12781D02*
X17693Y12780D01*
X17711Y12776D01*
X17730Y12772D01*
X17752Y12767D01*
X17776Y12759D01*
X17798Y12750D01*
X17822Y12741D01*
X17846Y12728D01*
X17870Y12711D01*
X17894Y12694D01*
X17917Y12674D01*
X17937Y12650D01*
X17939Y12648D01*
X17942Y12643D01*
X17948Y12633D01*
X17957Y12620D01*
X17967Y12602D01*
X17978Y12580D01*
X17989Y12556D01*
X18000Y12524D01*
X18011Y12491D01*
X18024Y12452D01*
X18033Y12409D01*
X18042Y12361D01*
X18052Y12309D01*
X18057Y12254D01*
X18061Y12193D01*
X18063Y12126D01*
Y12124D01*
Y12122D01*
Y12117D01*
Y12109D01*
Y12091D01*
X18061Y12067D01*
X18059Y12037D01*
X18055Y12002D01*
X18052Y11965D01*
X18048Y11924D01*
X18041Y11882D01*
X18031Y11837D01*
X18022Y11795D01*
X18009Y11752D01*
X17996Y11709D01*
X17978Y11670D01*
X17959Y11633D01*
X17937Y11602D01*
X17935Y11600D01*
X17931Y11596D01*
X17926Y11589D01*
X17918Y11582D01*
X17907Y11572D01*
X17894Y11561D01*
X17878Y11548D01*
X17861Y11537D01*
X17841Y11524D01*
X17820Y11511D01*
X17796Y11500D01*
X17770Y11491D01*
X17743Y11483D01*
X17711Y11476D01*
X17680Y11472D01*
X17646Y11471D01*
X17639D01*
X17628Y11472D01*
X17615D01*
X17600Y11474D01*
X17581Y11478D01*
X17561Y11482D01*
X17539Y11489D01*
X17515Y11496D01*
X17491Y11506D01*
X17465Y11517D01*
X17441Y11532D01*
X17415Y11546D01*
X17391Y11567D01*
X17367Y11587D01*
X17344Y11613D01*
X17343Y11615D01*
X17339Y11620D01*
X17333Y11630D01*
X17328Y11641D01*
X17318Y11658D01*
X17309Y11678D01*
X17298Y11704D01*
X17289Y11732D01*
X17278Y11765D01*
X17267Y11802D01*
X17257Y11845D01*
X17250Y11891D01*
X17243Y11943D01*
X17237Y12000D01*
X17233Y12061D01*
X17231Y12128D01*
Y12130D01*
Y12132D01*
Y12137D01*
Y12145D01*
Y12163D01*
X17233Y12187D01*
X17235Y12217D01*
X17239Y12252D01*
X17243Y12289D01*
X17246Y12330D01*
X17254Y12372D01*
X17261Y12415D01*
X17272Y12459D01*
X17283Y12502D01*
X17298Y12543D01*
X17315Y12582D01*
X17333Y12619D01*
X17356Y12650D01*
X17357Y12652D01*
X17361Y12656D01*
X17367Y12663D01*
X17376Y12670D01*
X17385Y12682D01*
X17398Y12693D01*
X17415Y12704D01*
X17431Y12717D01*
X17452Y12730D01*
X17472Y12741D01*
X17496Y12752D01*
X17522Y12763D01*
X17550Y12770D01*
X17581Y12778D01*
X17613Y12781D01*
X17646Y12783D01*
X17665D01*
X17678Y12781D01*
D02*
G37*
%LPC*%
G36*
X56186Y4705D02*
X56180Y4703D01*
X56173Y4702D01*
X56164Y4699D01*
X56152Y4694D01*
X56140Y4687D01*
X56126Y4677D01*
X56112Y4664D01*
X56111Y4663D01*
X56110Y4662D01*
X56108Y4660D01*
X56105Y4656D01*
X56099Y4648D01*
X56090Y4637D01*
X56082Y4624D01*
X56074Y4610D01*
X56068Y4595D01*
X56065Y4579D01*
Y4578D01*
Y4573D01*
X56066Y4564D01*
X56067Y4555D01*
X56069Y4544D01*
X56073Y4534D01*
X56079Y4522D01*
X56087Y4512D01*
X56091Y4508D01*
X56097Y4505D01*
X56104Y4500D01*
X56112Y4496D01*
X56122Y4492D01*
X56133Y4490D01*
X56146Y4490D01*
X56147D01*
X56152Y4491D01*
X56160Y4493D01*
X56169Y4496D01*
X56180Y4502D01*
X56194Y4510D01*
X56209Y4521D01*
X56224Y4535D01*
X56225Y4536D01*
X56226Y4537D01*
X56229Y4540D01*
X56231Y4543D01*
X56239Y4551D01*
X56247Y4562D01*
X56255Y4575D01*
X56264Y4589D01*
X56269Y4604D01*
X56272Y4619D01*
Y4620D01*
Y4625D01*
Y4632D01*
X56271Y4641D01*
X56268Y4651D01*
X56264Y4662D01*
X56258Y4673D01*
X56250Y4683D01*
X56246Y4687D01*
X56239Y4690D01*
X56232Y4695D01*
X56223Y4699D01*
X56213Y4703D01*
X56200Y4705D01*
X56187D01*
X56186D01*
D02*
G37*
G36*
X58342Y6717D02*
X58081Y6667D01*
X58187Y6562D01*
X58342Y6717D01*
D02*
G37*
G36*
X18672Y12146D02*
X18661D01*
X18646Y12143D01*
X18629Y12139D01*
X18611Y12132D01*
X18591Y12122D01*
X18570Y12107D01*
X18552Y12089D01*
X18550Y12087D01*
X18544Y12078D01*
X18537Y12065D01*
X18528Y12048D01*
X18518Y12024D01*
X18511Y11996D01*
X18505Y11963D01*
X18504Y11924D01*
Y11922D01*
Y11919D01*
Y11913D01*
Y11904D01*
X18507Y11883D01*
X18511Y11856D01*
X18517Y11826D01*
X18526Y11795D01*
X18539Y11765D01*
X18557Y11739D01*
X18559Y11737D01*
X18566Y11730D01*
X18579Y11719D01*
X18594Y11708D01*
X18613Y11695D01*
X18633Y11685D01*
X18657Y11678D01*
X18683Y11674D01*
X18694D01*
X18707Y11678D01*
X18724Y11682D01*
X18741Y11687D01*
X18761Y11696D01*
X18779Y11709D01*
X18798Y11726D01*
X18800Y11728D01*
X18805Y11737D01*
X18813Y11750D01*
X18822Y11769D01*
X18829Y11793D01*
X18837Y11822D01*
X18842Y11859D01*
X18844Y11902D01*
Y11904D01*
Y11908D01*
Y11915D01*
Y11922D01*
X18842Y11945D01*
X18839Y11972D01*
X18831Y12002D01*
X18824Y12033D01*
X18811Y12063D01*
X18794Y12087D01*
X18792Y12089D01*
X18785Y12096D01*
X18776Y12106D01*
X18761Y12117D01*
X18742Y12128D01*
X18722Y12137D01*
X18698Y12145D01*
X18672Y12146D01*
D02*
G37*
G36*
X23886Y12559D02*
X23718D01*
Y11711D01*
X23946D01*
X23970Y11713D01*
X23996D01*
X24021Y11717D01*
X24046Y11719D01*
X24066Y11722D01*
X24070D01*
X24077Y11726D01*
X24088Y11730D01*
X24103Y11735D01*
X24120Y11743D01*
X24136Y11752D01*
X24153Y11763D01*
X24170Y11776D01*
X24171Y11778D01*
X24177Y11783D01*
X24184Y11793D01*
X24194Y11806D01*
X24203Y11822D01*
X24216Y11843D01*
X24225Y11869D01*
X24236Y11898D01*
Y11900D01*
X24238Y11902D01*
Y11908D01*
X24240Y11915D01*
X24244Y11922D01*
X24246Y11933D01*
X24251Y11961D01*
X24255Y11995D01*
X24260Y12033D01*
X24262Y12082D01*
X24264Y12133D01*
Y12135D01*
Y12141D01*
Y12148D01*
Y12157D01*
Y12170D01*
X24262Y12185D01*
X24260Y12217D01*
X24257Y12254D01*
X24253Y12293D01*
X24246Y12328D01*
X24236Y12361D01*
Y12363D01*
X24234Y12365D01*
X24231Y12374D01*
X24225Y12389D01*
X24218Y12407D01*
X24207Y12426D01*
X24194Y12446D01*
X24179Y12467D01*
X24162Y12485D01*
X24160Y12487D01*
X24155Y12493D01*
X24144Y12500D01*
X24131Y12509D01*
X24112Y12520D01*
X24092Y12530D01*
X24070Y12539D01*
X24044Y12546D01*
X24042D01*
X24033Y12548D01*
X24018Y12550D01*
X23997Y12554D01*
X23984D01*
X23968Y12556D01*
X23951D01*
X23933Y12557D01*
X23910D01*
X23886Y12559D01*
D02*
G37*
G36*
X14430Y12559D02*
X14261D01*
Y11711D01*
X14489D01*
X14513Y11713D01*
X14539D01*
X14565Y11717D01*
X14589Y11719D01*
X14609Y11722D01*
X14613D01*
X14621Y11726D01*
X14632Y11730D01*
X14647Y11735D01*
X14663Y11743D01*
X14680Y11752D01*
X14697Y11763D01*
X14713Y11776D01*
X14715Y11778D01*
X14721Y11783D01*
X14728Y11793D01*
X14737Y11806D01*
X14747Y11822D01*
X14759Y11843D01*
X14769Y11869D01*
X14780Y11898D01*
Y11900D01*
X14782Y11902D01*
Y11908D01*
X14784Y11915D01*
X14787Y11922D01*
X14789Y11933D01*
X14795Y11961D01*
X14798Y11995D01*
X14804Y12033D01*
X14806Y12082D01*
X14808Y12133D01*
Y12135D01*
Y12141D01*
Y12148D01*
Y12157D01*
Y12170D01*
X14806Y12185D01*
X14804Y12217D01*
X14800Y12254D01*
X14797Y12293D01*
X14789Y12328D01*
X14780Y12361D01*
Y12363D01*
X14778Y12365D01*
X14774Y12374D01*
X14769Y12389D01*
X14761Y12407D01*
X14750Y12426D01*
X14737Y12446D01*
X14722Y12467D01*
X14706Y12485D01*
X14704Y12487D01*
X14698Y12493D01*
X14687Y12500D01*
X14674Y12509D01*
X14656Y12520D01*
X14635Y12530D01*
X14613Y12539D01*
X14587Y12546D01*
X14585D01*
X14576Y12548D01*
X14561Y12550D01*
X14541Y12554D01*
X14528D01*
X14511Y12556D01*
X14495D01*
X14476Y12557D01*
X14454D01*
X14430Y12559D01*
D02*
G37*
G36*
X20346Y12580D02*
X20331D01*
X20320Y12578D01*
X20305Y12576D01*
X20290Y12574D01*
X20253Y12567D01*
X20213Y12552D01*
X20190Y12544D01*
X20168Y12533D01*
X20148Y12520D01*
X20126Y12506D01*
X20105Y12489D01*
X20087Y12469D01*
X20085Y12467D01*
X20083Y12463D01*
X20077Y12457D01*
X20072Y12448D01*
X20064Y12435D01*
X20057Y12422D01*
X20048Y12406D01*
X20039Y12385D01*
X20029Y12363D01*
X20020Y12339D01*
X20013Y12311D01*
X20005Y12282D01*
X20000Y12248D01*
X19994Y12213D01*
X19992Y12176D01*
X19990Y12135D01*
Y12133D01*
Y12126D01*
Y12115D01*
X19992Y12100D01*
X19994Y12082D01*
X19996Y12059D01*
X20000Y12037D01*
X20003Y12011D01*
X20014Y11958D01*
X20033Y11904D01*
X20044Y11876D01*
X20057Y11850D01*
X20074Y11826D01*
X20090Y11804D01*
X20092Y11802D01*
X20096Y11798D01*
X20102Y11793D01*
X20109Y11787D01*
X20118Y11778D01*
X20131Y11769D01*
X20144Y11758D01*
X20161Y11748D01*
X20196Y11726D01*
X20240Y11709D01*
X20264Y11702D01*
X20290Y11696D01*
X20318Y11693D01*
X20346Y11691D01*
X20361D01*
X20372Y11693D01*
X20385Y11695D01*
X20400Y11696D01*
X20435Y11706D01*
X20476Y11719D01*
X20496Y11728D01*
X20518Y11737D01*
X20539Y11750D01*
X20561Y11765D01*
X20581Y11782D01*
X20600Y11802D01*
X20601Y11804D01*
X20603Y11808D01*
X20609Y11813D01*
X20614Y11822D01*
X20624Y11835D01*
X20631Y11850D01*
X20640Y11867D01*
X20650Y11887D01*
X20659Y11909D01*
X20668Y11933D01*
X20677Y11961D01*
X20685Y11993D01*
X20690Y12024D01*
X20696Y12059D01*
X20698Y12098D01*
X20700Y12139D01*
Y12141D01*
Y12148D01*
Y12159D01*
X20698Y12176D01*
X20696Y12195D01*
X20694Y12215D01*
X20692Y12239D01*
X20687Y12263D01*
X20676Y12317D01*
X20659Y12372D01*
X20648Y12400D01*
X20635Y12424D01*
X20618Y12448D01*
X20601Y12470D01*
X20600Y12472D01*
X20598Y12476D01*
X20592Y12480D01*
X20585Y12487D01*
X20574Y12496D01*
X20563Y12506D01*
X20550Y12515D01*
X20533Y12526D01*
X20516Y12535D01*
X20496Y12544D01*
X20453Y12563D01*
X20429Y12570D01*
X20403Y12574D01*
X20376Y12578D01*
X20346Y12580D01*
D02*
G37*
G36*
X17646Y12580D02*
X17639D01*
X17630Y12578D01*
X17620Y12576D01*
X17607Y12572D01*
X17594Y12567D01*
X17580Y12559D01*
X17567Y12550D01*
X17565Y12548D01*
X17561Y12544D01*
X17555Y12537D01*
X17548Y12528D01*
X17539Y12513D01*
X17531Y12496D01*
X17522Y12474D01*
X17515Y12448D01*
Y12446D01*
X17513Y12444D01*
Y12437D01*
X17511Y12430D01*
X17509Y12419D01*
X17507Y12406D01*
X17506Y12391D01*
X17504Y12372D01*
X17500Y12350D01*
X17498Y12328D01*
X17496Y12300D01*
X17494Y12272D01*
X17493Y12239D01*
Y12206D01*
X17491Y12167D01*
Y12126D01*
Y12124D01*
Y12117D01*
Y12104D01*
Y12089D01*
Y12070D01*
X17493Y12050D01*
Y12026D01*
X17494Y12002D01*
X17496Y11950D01*
X17500Y11898D01*
X17502Y11874D01*
X17506Y11852D01*
X17509Y11832D01*
X17513Y11813D01*
X17515Y11809D01*
X17517Y11800D01*
X17522Y11785D01*
X17528Y11769D01*
X17537Y11750D01*
X17546Y11732D01*
X17557Y11715D01*
X17568Y11702D01*
X17570Y11700D01*
X17574Y11698D01*
X17581Y11693D01*
X17591Y11689D01*
X17602Y11683D01*
X17615Y11678D01*
X17630Y11676D01*
X17646Y11674D01*
X17654D01*
X17663Y11676D01*
X17672Y11678D01*
X17685Y11682D01*
X17698Y11685D01*
X17711Y11693D01*
X17724Y11702D01*
X17726Y11704D01*
X17730Y11708D01*
X17737Y11715D01*
X17744Y11726D01*
X17752Y11739D01*
X17761Y11758D01*
X17770Y11778D01*
X17778Y11804D01*
Y11806D01*
X17780Y11808D01*
Y11815D01*
X17781Y11822D01*
X17783Y11833D01*
X17785Y11846D01*
X17789Y11861D01*
X17791Y11880D01*
X17793Y11900D01*
X17796Y11924D01*
X17798Y11950D01*
X17800Y11980D01*
X17802Y12011D01*
Y12046D01*
X17804Y12085D01*
Y12126D01*
Y12128D01*
Y12135D01*
Y12148D01*
Y12163D01*
Y12182D01*
X17802Y12202D01*
Y12226D01*
X17800Y12250D01*
X17798Y12302D01*
X17794Y12352D01*
X17791Y12376D01*
X17787Y12400D01*
X17783Y12420D01*
X17780Y12437D01*
Y12439D01*
X17778Y12441D01*
X17776Y12450D01*
X17770Y12465D01*
X17765Y12483D01*
X17755Y12502D01*
X17746Y12520D01*
X17735Y12537D01*
X17724Y12550D01*
X17722Y12552D01*
X17718Y12556D01*
X17711Y12559D01*
X17702Y12565D01*
X17691Y12570D01*
X17678Y12576D01*
X17663Y12578D01*
X17646Y12580D01*
D02*
G37*
%LPD*%
D10*
X56430Y7500D02*
G03*
X56430Y7500I-1000J0D01*
G01*
X54442Y11813D02*
X56420D01*
X57127Y11106D01*
X59743Y6512D02*
Y8490D01*
X59036Y9197D02*
X59743Y8490D01*
X54440Y3187D02*
X56418D01*
X53733Y3894D02*
X54440Y3187D01*
X51117Y6510D02*
Y8488D01*
Y6510D02*
X51824Y5803D01*
X47890Y2460D02*
X48390Y2710D01*
X45890D02*
X46390Y2460D01*
X47890D01*
X47990Y4960D02*
X48390Y5210D01*
X47990Y4960D02*
X48390Y4710D01*
Y2710D02*
Y4710D01*
X45890Y5210D02*
X46290Y4960D01*
X45890Y4710D02*
X46290Y4960D01*
X45890Y4710D02*
X45890Y2710D01*
X47990Y7500D02*
X48390Y7750D01*
X47990Y7500D02*
X48390Y7250D01*
Y5250D02*
Y7250D01*
X45890Y7750D02*
X46290Y7500D01*
X45890Y7250D02*
X46290Y7500D01*
X45890Y7250D02*
X45890Y5250D01*
X48390Y10290D02*
Y12290D01*
X47890Y12540D02*
X48390Y12290D01*
X47990Y10040D02*
X48390Y10290D01*
X47990Y10040D02*
X48390Y9790D01*
Y7790D02*
Y9790D01*
X45890Y10290D02*
X45890Y12290D01*
X46390Y12540D01*
X47890D01*
X45890Y10290D02*
X46290Y10040D01*
X45890Y9790D02*
X46290Y10040D01*
X45890Y9790D02*
X45890Y7790D01*
D11*
X55580Y12379D02*
G03*
X55580Y12379I-150J0D01*
G01*
X10640Y1500D02*
X48640Y1500D01*
X10640Y1500D02*
Y13500D01*
X48640D01*
Y1500D02*
Y13500D01*
M02*
