G04*
G04 #@! TF.GenerationSoftware,Altium Limited,Altium Designer,22.10.1 (41)*
G04*
G04 Layer_Color=2752767*
%FSLAX43Y43*%
%MOMM*%
G71*
G04*
G04 #@! TF.SameCoordinates,A06D47DE-3B52-4099-82B1-BC196321E02B*
G04*
G04*
G04 #@! TF.FilePolarity,Positive*
G04*
G01*
G75*
%ADD37C,0.051*%
%ADD38C,0.068*%
D37*
X4797Y7297D02*
Y7703D01*
X5203D01*
Y7297D01*
X4797D01*
X64797D02*
Y7703D01*
X65203D01*
Y7297D01*
X64797D01*
X56773Y8640D02*
X56875Y8742D01*
X56977D01*
X56875Y8844D01*
X56977Y8945D01*
X56875D01*
X56773Y9047D01*
X56672Y8945D01*
X56570D01*
X56672Y8844D01*
X56570Y8742D01*
X56672D01*
X56773Y8640D01*
X53883Y5953D02*
X53985Y6156D01*
X53883Y6360D01*
X54086Y6258D01*
X54290Y6360D01*
X54188Y6156D01*
X54290Y5953D01*
X54086Y6055D01*
X53883Y5953D01*
X47140Y3487D02*
X46937Y3893D01*
X47343D01*
X47140Y3487D01*
Y6027D02*
X46937Y6433D01*
X47343D01*
X47140Y6027D01*
Y8567D02*
X46937Y8973D01*
X47343D01*
X47140Y8567D01*
Y11107D02*
X46937Y11513D01*
X47343D01*
X47140Y11107D01*
X13048Y3248D02*
Y3147D01*
X13252D01*
Y3248D01*
X13353D01*
Y3452D01*
X13252D01*
Y3553D01*
X13048D01*
Y3452D01*
X12947D01*
Y3248D01*
X13048D01*
Y5248D02*
Y5147D01*
X13252D01*
Y5248D01*
X13353D01*
Y5452D01*
X13252D01*
Y5553D01*
X13048D01*
Y5452D01*
X12947D01*
Y5248D01*
X13048D01*
Y7248D02*
Y7147D01*
X13252D01*
Y7248D01*
X13353D01*
Y7452D01*
X13252D01*
Y7553D01*
X13048D01*
Y7452D01*
X12947D01*
Y7248D01*
X13048D01*
Y11248D02*
Y11147D01*
X13252D01*
Y11248D01*
X13353D01*
Y11452D01*
X13252D01*
Y11553D01*
X13048D01*
Y11452D01*
X12947D01*
Y11248D01*
X13048D01*
Y9248D02*
Y9147D01*
X13252D01*
Y9248D01*
X13353D01*
Y9452D01*
X13252D01*
Y9553D01*
X13048D01*
Y9452D01*
X12947D01*
Y9248D01*
X13048D01*
X69398Y3898D02*
Y3797D01*
X69602D01*
Y3898D01*
X69703D01*
Y4102D01*
X69602D01*
Y4203D01*
X69398D01*
Y4102D01*
X69297D01*
Y3898D01*
X69398D01*
Y2898D02*
Y2797D01*
X69602D01*
Y2898D01*
X69703D01*
Y3102D01*
X69602D01*
Y3203D01*
X69398D01*
Y3102D01*
X69297D01*
Y2898D01*
X69398D01*
Y4898D02*
Y4797D01*
X69602D01*
Y4898D01*
X69703D01*
Y5102D01*
X69602D01*
Y5203D01*
X69398D01*
Y5102D01*
X69297D01*
Y4898D01*
X69398D01*
Y6898D02*
Y6797D01*
X69602D01*
Y6898D01*
X69703D01*
Y7102D01*
X69602D01*
Y7203D01*
X69398D01*
Y7102D01*
X69297D01*
Y6898D01*
X69398D01*
Y5898D02*
Y5797D01*
X69602D01*
Y5898D01*
X69703D01*
Y6102D01*
X69602D01*
Y6203D01*
X69398D01*
Y6102D01*
X69297D01*
Y5898D01*
X69398D01*
Y9898D02*
Y9797D01*
X69602D01*
Y9898D01*
X69703D01*
Y10102D01*
X69602D01*
Y10203D01*
X69398D01*
Y10102D01*
X69297D01*
Y9898D01*
X69398D01*
Y10898D02*
Y10797D01*
X69602D01*
Y10898D01*
X69703D01*
Y11102D01*
X69602D01*
Y11203D01*
X69398D01*
Y11102D01*
X69297D01*
Y10898D01*
X69398D01*
Y8898D02*
Y8797D01*
X69602D01*
Y8898D01*
X69703D01*
Y9102D01*
X69602D01*
Y9203D01*
X69398D01*
Y9102D01*
X69297D01*
Y8898D01*
X69398D01*
Y7898D02*
Y7797D01*
X69602D01*
Y7898D01*
X69703D01*
Y8102D01*
X69602D01*
Y8203D01*
X69398D01*
Y8102D01*
X69297D01*
Y7898D01*
X69398D01*
Y11898D02*
Y11797D01*
X69602D01*
Y11898D01*
X69703D01*
Y12102D01*
X69602D01*
Y12203D01*
X69398D01*
Y12102D01*
X69297D01*
Y11898D01*
X69398D01*
X398D02*
Y11797D01*
X602D01*
Y11898D01*
X703D01*
Y12102D01*
X602D01*
Y12203D01*
X398D01*
Y12102D01*
X297D01*
Y11898D01*
X398D01*
Y7898D02*
Y7797D01*
X602D01*
Y7898D01*
X703D01*
Y8102D01*
X602D01*
Y8203D01*
X398D01*
Y8102D01*
X297D01*
Y7898D01*
X398D01*
Y8898D02*
Y8797D01*
X602D01*
Y8898D01*
X703D01*
Y9102D01*
X602D01*
Y9203D01*
X398D01*
Y9102D01*
X297D01*
Y8898D01*
X398D01*
Y10898D02*
Y10797D01*
X602D01*
Y10898D01*
X703D01*
Y11102D01*
X602D01*
Y11203D01*
X398D01*
Y11102D01*
X297D01*
Y10898D01*
X398D01*
Y9898D02*
Y9797D01*
X602D01*
Y9898D01*
X703D01*
Y10102D01*
X602D01*
Y10203D01*
X398D01*
Y10102D01*
X297D01*
Y9898D01*
X398D01*
Y5898D02*
Y5797D01*
X602D01*
Y5898D01*
X703D01*
Y6102D01*
X602D01*
Y6203D01*
X398D01*
Y6102D01*
X297D01*
Y5898D01*
X398D01*
Y6898D02*
Y6797D01*
X602D01*
Y6898D01*
X703D01*
Y7102D01*
X602D01*
Y7203D01*
X398D01*
Y7102D01*
X297D01*
Y6898D01*
X398D01*
Y4898D02*
Y4797D01*
X602D01*
Y4898D01*
X703D01*
Y5102D01*
X602D01*
Y5203D01*
X398D01*
Y5102D01*
X297D01*
Y4898D01*
X398D01*
Y2898D02*
Y2797D01*
X602D01*
Y2898D01*
X703D01*
Y3102D01*
X602D01*
Y3203D01*
X398D01*
Y3102D01*
X297D01*
Y2898D01*
X398D01*
Y3898D02*
Y3797D01*
X602D01*
Y3898D01*
X703D01*
Y4102D01*
X602D01*
Y4203D01*
X398D01*
Y4102D01*
X297D01*
Y3898D01*
X398D01*
X19148Y11998D02*
Y11897D01*
X19352D01*
Y11998D01*
X19453D01*
Y12202D01*
X19352D01*
Y12303D01*
X19148D01*
Y12202D01*
X19047D01*
Y11998D01*
X19148D01*
X22148D02*
Y11897D01*
X22352D01*
Y11998D01*
X22453D01*
Y12202D01*
X22352D01*
Y12303D01*
X22148D01*
Y12202D01*
X22047D01*
Y11998D01*
X22148D01*
X25148D02*
Y11897D01*
X25352D01*
Y11998D01*
X25453D01*
Y12202D01*
X25352D01*
Y12303D01*
X25148D01*
Y12202D01*
X25047D01*
Y11998D01*
X25148D01*
X31148D02*
Y11897D01*
X31352D01*
Y11998D01*
X31453D01*
Y12202D01*
X31352D01*
Y12303D01*
X31148D01*
Y12202D01*
X31047D01*
Y11998D01*
X31148D01*
X28148D02*
Y11897D01*
X28352D01*
Y11998D01*
X28453D01*
Y12202D01*
X28352D01*
Y12303D01*
X28148D01*
Y12202D01*
X28047D01*
Y11998D01*
X28148D01*
X34148D02*
Y11897D01*
X34352D01*
Y11998D01*
X34453D01*
Y12202D01*
X34352D01*
Y12303D01*
X34148D01*
Y12202D01*
X34047D01*
Y11998D01*
X34148D01*
X37148D02*
Y11897D01*
X37352D01*
Y11998D01*
X37453D01*
Y12202D01*
X37352D01*
Y12303D01*
X37148D01*
Y12202D01*
X37047D01*
Y11998D01*
X37148D01*
X43148D02*
Y11897D01*
X43352D01*
Y11998D01*
X43453D01*
Y12202D01*
X43352D01*
Y12303D01*
X43148D01*
Y12202D01*
X43047D01*
Y11998D01*
X43148D01*
X40148D02*
Y11897D01*
X40352D01*
Y11998D01*
X40453D01*
Y12202D01*
X40352D01*
Y12303D01*
X40148D01*
Y12202D01*
X40047D01*
Y11998D01*
X40148D01*
X20248Y9948D02*
Y9847D01*
X20452D01*
Y9948D01*
X20553D01*
Y10152D01*
X20452D01*
Y10253D01*
X20248D01*
Y10152D01*
X20147D01*
Y9948D01*
X20248D01*
X23248D02*
Y9847D01*
X23452D01*
Y9948D01*
X23553D01*
Y10152D01*
X23452D01*
Y10253D01*
X23248D01*
Y10152D01*
X23147D01*
Y9948D01*
X23248D01*
X26248D02*
Y9847D01*
X26452D01*
Y9948D01*
X26553D01*
Y10152D01*
X26452D01*
Y10253D01*
X26248D01*
Y10152D01*
X26147D01*
Y9948D01*
X26248D01*
X32248D02*
Y9847D01*
X32452D01*
Y9948D01*
X32553D01*
Y10152D01*
X32452D01*
Y10253D01*
X32248D01*
Y10152D01*
X32147D01*
Y9948D01*
X32248D01*
X29248D02*
Y9847D01*
X29452D01*
Y9948D01*
X29553D01*
Y10152D01*
X29452D01*
Y10253D01*
X29248D01*
Y10152D01*
X29147D01*
Y9948D01*
X29248D01*
X35248D02*
Y9847D01*
X35452D01*
Y9948D01*
X35553D01*
Y10152D01*
X35452D01*
Y10253D01*
X35248D01*
Y10152D01*
X35147D01*
Y9948D01*
X35248D01*
X38248D02*
Y9847D01*
X38452D01*
Y9948D01*
X38553D01*
Y10152D01*
X38452D01*
Y10253D01*
X38248D01*
Y10152D01*
X38147D01*
Y9948D01*
X38248D01*
X44248D02*
Y9847D01*
X44452D01*
Y9948D01*
X44553D01*
Y10152D01*
X44452D01*
Y10253D01*
X44248D01*
Y10152D01*
X44147D01*
Y9948D01*
X44248D01*
X41248D02*
Y9847D01*
X41452D01*
Y9948D01*
X41553D01*
Y10152D01*
X41452D01*
Y10253D01*
X41248D01*
Y10152D01*
X41147D01*
Y9948D01*
X41248D01*
X20898Y7748D02*
Y7647D01*
X21102D01*
Y7748D01*
X21203D01*
Y7952D01*
X21102D01*
Y8053D01*
X20898D01*
Y7952D01*
X20797D01*
Y7748D01*
X20898D01*
X23898D02*
Y7647D01*
X24102D01*
Y7748D01*
X24203D01*
Y7952D01*
X24102D01*
Y8053D01*
X23898D01*
Y7952D01*
X23797D01*
Y7748D01*
X23898D01*
X26898D02*
Y7647D01*
X27102D01*
Y7748D01*
X27203D01*
Y7952D01*
X27102D01*
Y8053D01*
X26898D01*
Y7952D01*
X26797D01*
Y7748D01*
X26898D01*
X32898D02*
Y7647D01*
X33102D01*
Y7748D01*
X33203D01*
Y7952D01*
X33102D01*
Y8053D01*
X32898D01*
Y7952D01*
X32797D01*
Y7748D01*
X32898D01*
X29898D02*
Y7647D01*
X30102D01*
Y7748D01*
X30203D01*
Y7952D01*
X30102D01*
Y8053D01*
X29898D01*
Y7952D01*
X29797D01*
Y7748D01*
X29898D01*
X35898D02*
Y7647D01*
X36102D01*
Y7748D01*
X36203D01*
Y7952D01*
X36102D01*
Y8053D01*
X35898D01*
Y7952D01*
X35797D01*
Y7748D01*
X35898D01*
X38898D02*
Y7647D01*
X39102D01*
Y7748D01*
X39203D01*
Y7952D01*
X39102D01*
Y8053D01*
X38898D01*
Y7952D01*
X38797D01*
Y7748D01*
X38898D01*
X44898D02*
Y7647D01*
X45102D01*
Y7748D01*
X45203D01*
Y7952D01*
X45102D01*
Y8053D01*
X44898D01*
Y7952D01*
X44797D01*
Y7748D01*
X44898D01*
X41898D02*
Y7647D01*
X42102D01*
Y7748D01*
X42203D01*
Y7952D01*
X42102D01*
Y8053D01*
X41898D01*
Y7952D01*
X41797D01*
Y7748D01*
X41898D01*
X40098Y4098D02*
Y3997D01*
X40302D01*
Y4098D01*
X40403D01*
Y4302D01*
X40302D01*
Y4403D01*
X40098D01*
Y4302D01*
X39997D01*
Y4098D01*
X40098D01*
X43098D02*
Y3997D01*
X43302D01*
Y4098D01*
X43403D01*
Y4302D01*
X43302D01*
Y4403D01*
X43098D01*
Y4302D01*
X42997D01*
Y4098D01*
X43098D01*
X37098D02*
Y3997D01*
X37302D01*
Y4098D01*
X37403D01*
Y4302D01*
X37302D01*
Y4403D01*
X37098D01*
Y4302D01*
X36997D01*
Y4098D01*
X37098D01*
X34098D02*
Y3997D01*
X34302D01*
Y4098D01*
X34403D01*
Y4302D01*
X34302D01*
Y4403D01*
X34098D01*
Y4302D01*
X33997D01*
Y4098D01*
X34098D01*
X28098D02*
Y3997D01*
X28302D01*
Y4098D01*
X28403D01*
Y4302D01*
X28302D01*
Y4403D01*
X28098D01*
Y4302D01*
X27997D01*
Y4098D01*
X28098D01*
X31098D02*
Y3997D01*
X31302D01*
Y4098D01*
X31403D01*
Y4302D01*
X31302D01*
Y4403D01*
X31098D01*
Y4302D01*
X30997D01*
Y4098D01*
X31098D01*
X25098D02*
Y3997D01*
X25302D01*
Y4098D01*
X25403D01*
Y4302D01*
X25302D01*
Y4403D01*
X25098D01*
Y4302D01*
X24997D01*
Y4098D01*
X25098D01*
X22098D02*
Y3997D01*
X22302D01*
Y4098D01*
X22403D01*
Y4302D01*
X22302D01*
Y4403D01*
X22098D01*
Y4302D01*
X21997D01*
Y4098D01*
X22098D01*
X19098D02*
Y3997D01*
X19302D01*
Y4098D01*
X19403D01*
Y4302D01*
X19302D01*
Y4403D01*
X19098D01*
Y4302D01*
X18997D01*
Y4098D01*
X19098D01*
X55848Y3148D02*
Y3047D01*
X56052D01*
Y3148D01*
X56153D01*
Y3352D01*
X56052D01*
Y3453D01*
X55848D01*
Y3352D01*
X55747D01*
Y3148D01*
X55848D01*
X50348Y1648D02*
Y1547D01*
X50552D01*
Y1648D01*
X50653D01*
Y1852D01*
X50552D01*
Y1953D01*
X50348D01*
Y1852D01*
X50247D01*
Y1648D01*
X50348D01*
X49348D02*
Y1547D01*
X49552D01*
Y1648D01*
X49653D01*
Y1852D01*
X49552D01*
Y1953D01*
X49348D01*
Y1852D01*
X49247D01*
Y1648D01*
X49348D01*
X3898Y398D02*
Y297D01*
X4102D01*
Y398D01*
X4203D01*
Y602D01*
X4102D01*
Y703D01*
X3898D01*
Y602D01*
X3797D01*
Y398D01*
X3898D01*
X4898D02*
Y297D01*
X5102D01*
Y398D01*
X5203D01*
Y602D01*
X5102D01*
Y703D01*
X4898D01*
Y602D01*
X4797D01*
Y398D01*
X4898D01*
X6898D02*
Y297D01*
X7102D01*
Y398D01*
X7203D01*
Y602D01*
X7102D01*
Y703D01*
X6898D01*
Y602D01*
X6797D01*
Y398D01*
X6898D01*
X5898D02*
Y297D01*
X6102D01*
Y398D01*
X6203D01*
Y602D01*
X6102D01*
Y703D01*
X5898D01*
Y602D01*
X5797D01*
Y398D01*
X5898D01*
X9898D02*
Y297D01*
X10102D01*
Y398D01*
X10203D01*
Y602D01*
X10102D01*
Y703D01*
X9898D01*
Y602D01*
X9797D01*
Y398D01*
X9898D01*
X10898D02*
Y297D01*
X11102D01*
Y398D01*
X11203D01*
Y602D01*
X11102D01*
Y703D01*
X10898D01*
Y602D01*
X10797D01*
Y398D01*
X10898D01*
X8898D02*
Y297D01*
X9102D01*
Y398D01*
X9203D01*
Y602D01*
X9102D01*
Y703D01*
X8898D01*
Y602D01*
X8797D01*
Y398D01*
X8898D01*
X7898D02*
Y297D01*
X8102D01*
Y398D01*
X8203D01*
Y602D01*
X8102D01*
Y703D01*
X7898D01*
Y602D01*
X7797D01*
Y398D01*
X7898D01*
X13898D02*
Y297D01*
X14102D01*
Y398D01*
X14203D01*
Y602D01*
X14102D01*
Y703D01*
X13898D01*
Y602D01*
X13797D01*
Y398D01*
X13898D01*
X14898D02*
Y297D01*
X15102D01*
Y398D01*
X15203D01*
Y602D01*
X15102D01*
Y703D01*
X14898D01*
Y602D01*
X14797D01*
Y398D01*
X14898D01*
X12898D02*
Y297D01*
X13102D01*
Y398D01*
X13203D01*
Y602D01*
X13102D01*
Y703D01*
X12898D01*
Y602D01*
X12797D01*
Y398D01*
X12898D01*
X11898D02*
Y297D01*
X12102D01*
Y398D01*
X12203D01*
Y602D01*
X12102D01*
Y703D01*
X11898D01*
Y602D01*
X11797D01*
Y398D01*
X11898D01*
X17898D02*
Y297D01*
X18102D01*
Y398D01*
X18203D01*
Y602D01*
X18102D01*
Y703D01*
X17898D01*
Y602D01*
X17797D01*
Y398D01*
X17898D01*
X18898D02*
Y297D01*
X19102D01*
Y398D01*
X19203D01*
Y602D01*
X19102D01*
Y703D01*
X18898D01*
Y602D01*
X18797D01*
Y398D01*
X18898D01*
X16898D02*
Y297D01*
X17102D01*
Y398D01*
X17203D01*
Y602D01*
X17102D01*
Y703D01*
X16898D01*
Y602D01*
X16797D01*
Y398D01*
X16898D01*
X15898D02*
Y297D01*
X16102D01*
Y398D01*
X16203D01*
Y602D01*
X16102D01*
Y703D01*
X15898D01*
Y602D01*
X15797D01*
Y398D01*
X15898D01*
X21898D02*
Y297D01*
X22102D01*
Y398D01*
X22203D01*
Y602D01*
X22102D01*
Y703D01*
X21898D01*
Y602D01*
X21797D01*
Y398D01*
X21898D01*
X22898D02*
Y297D01*
X23102D01*
Y398D01*
X23203D01*
Y602D01*
X23102D01*
Y703D01*
X22898D01*
Y602D01*
X22797D01*
Y398D01*
X22898D01*
X20898D02*
Y297D01*
X21102D01*
Y398D01*
X21203D01*
Y602D01*
X21102D01*
Y703D01*
X20898D01*
Y602D01*
X20797D01*
Y398D01*
X20898D01*
X19898D02*
Y297D01*
X20102D01*
Y398D01*
X20203D01*
Y602D01*
X20102D01*
Y703D01*
X19898D01*
Y602D01*
X19797D01*
Y398D01*
X19898D01*
X25898D02*
Y297D01*
X26102D01*
Y398D01*
X26203D01*
Y602D01*
X26102D01*
Y703D01*
X25898D01*
Y602D01*
X25797D01*
Y398D01*
X25898D01*
X26898D02*
Y297D01*
X27102D01*
Y398D01*
X27203D01*
Y602D01*
X27102D01*
Y703D01*
X26898D01*
Y602D01*
X26797D01*
Y398D01*
X26898D01*
X24898D02*
Y297D01*
X25102D01*
Y398D01*
X25203D01*
Y602D01*
X25102D01*
Y703D01*
X24898D01*
Y602D01*
X24797D01*
Y398D01*
X24898D01*
X23898D02*
Y297D01*
X24102D01*
Y398D01*
X24203D01*
Y602D01*
X24102D01*
Y703D01*
X23898D01*
Y602D01*
X23797D01*
Y398D01*
X23898D01*
X29898D02*
Y297D01*
X30102D01*
Y398D01*
X30203D01*
Y602D01*
X30102D01*
Y703D01*
X29898D01*
Y602D01*
X29797D01*
Y398D01*
X29898D01*
X30898D02*
Y297D01*
X31102D01*
Y398D01*
X31203D01*
Y602D01*
X31102D01*
Y703D01*
X30898D01*
Y602D01*
X30797D01*
Y398D01*
X30898D01*
X28898D02*
Y297D01*
X29102D01*
Y398D01*
X29203D01*
Y602D01*
X29102D01*
Y703D01*
X28898D01*
Y602D01*
X28797D01*
Y398D01*
X28898D01*
X27898D02*
Y297D01*
X28102D01*
Y398D01*
X28203D01*
Y602D01*
X28102D01*
Y703D01*
X27898D01*
Y602D01*
X27797D01*
Y398D01*
X27898D01*
X33898D02*
Y297D01*
X34102D01*
Y398D01*
X34203D01*
Y602D01*
X34102D01*
Y703D01*
X33898D01*
Y602D01*
X33797D01*
Y398D01*
X33898D01*
X34898D02*
Y297D01*
X35102D01*
Y398D01*
X35203D01*
Y602D01*
X35102D01*
Y703D01*
X34898D01*
Y602D01*
X34797D01*
Y398D01*
X34898D01*
X32898D02*
Y297D01*
X33102D01*
Y398D01*
X33203D01*
Y602D01*
X33102D01*
Y703D01*
X32898D01*
Y602D01*
X32797D01*
Y398D01*
X32898D01*
X31898D02*
Y297D01*
X32102D01*
Y398D01*
X32203D01*
Y602D01*
X32102D01*
Y703D01*
X31898D01*
Y602D01*
X31797D01*
Y398D01*
X31898D01*
X37898D02*
Y297D01*
X38102D01*
Y398D01*
X38203D01*
Y602D01*
X38102D01*
Y703D01*
X37898D01*
Y602D01*
X37797D01*
Y398D01*
X37898D01*
X38898D02*
Y297D01*
X39102D01*
Y398D01*
X39203D01*
Y602D01*
X39102D01*
Y703D01*
X38898D01*
Y602D01*
X38797D01*
Y398D01*
X38898D01*
X36898D02*
Y297D01*
X37102D01*
Y398D01*
X37203D01*
Y602D01*
X37102D01*
Y703D01*
X36898D01*
Y602D01*
X36797D01*
Y398D01*
X36898D01*
X35898D02*
Y297D01*
X36102D01*
Y398D01*
X36203D01*
Y602D01*
X36102D01*
Y703D01*
X35898D01*
Y602D01*
X35797D01*
Y398D01*
X35898D01*
X41898D02*
Y297D01*
X42102D01*
Y398D01*
X42203D01*
Y602D01*
X42102D01*
Y703D01*
X41898D01*
Y602D01*
X41797D01*
Y398D01*
X41898D01*
X42898D02*
Y297D01*
X43102D01*
Y398D01*
X43203D01*
Y602D01*
X43102D01*
Y703D01*
X42898D01*
Y602D01*
X42797D01*
Y398D01*
X42898D01*
X40898D02*
Y297D01*
X41102D01*
Y398D01*
X41203D01*
Y602D01*
X41102D01*
Y703D01*
X40898D01*
Y602D01*
X40797D01*
Y398D01*
X40898D01*
X39898D02*
Y297D01*
X40102D01*
Y398D01*
X40203D01*
Y602D01*
X40102D01*
Y703D01*
X39898D01*
Y602D01*
X39797D01*
Y398D01*
X39898D01*
X54066D02*
Y297D01*
X54270D01*
Y398D01*
X54371D01*
Y602D01*
X54270D01*
Y703D01*
X54066D01*
Y602D01*
X53965D01*
Y398D01*
X54066D01*
X55066D02*
Y297D01*
X55270D01*
Y398D01*
X55371D01*
Y602D01*
X55270D01*
Y703D01*
X55066D01*
Y602D01*
X54965D01*
Y398D01*
X55066D01*
X58066D02*
Y297D01*
X58270D01*
Y398D01*
X58371D01*
Y602D01*
X58270D01*
Y703D01*
X58066D01*
Y602D01*
X57965D01*
Y398D01*
X58066D01*
X59066D02*
Y297D01*
X59270D01*
Y398D01*
X59371D01*
Y602D01*
X59270D01*
Y703D01*
X59066D01*
Y602D01*
X58965D01*
Y398D01*
X59066D01*
X57066D02*
Y297D01*
X57270D01*
Y398D01*
X57371D01*
Y602D01*
X57270D01*
Y703D01*
X57066D01*
Y602D01*
X56965D01*
Y398D01*
X57066D01*
X56066D02*
Y297D01*
X56270D01*
Y398D01*
X56371D01*
Y602D01*
X56270D01*
Y703D01*
X56066D01*
Y602D01*
X55965D01*
Y398D01*
X56066D01*
X62066D02*
Y297D01*
X62270D01*
Y398D01*
X62371D01*
Y602D01*
X62270D01*
Y703D01*
X62066D01*
Y602D01*
X61965D01*
Y398D01*
X62066D01*
X63066D02*
Y297D01*
X63270D01*
Y398D01*
X63371D01*
Y602D01*
X63270D01*
Y703D01*
X63066D01*
Y602D01*
X62965D01*
Y398D01*
X63066D01*
X61066D02*
Y297D01*
X61270D01*
Y398D01*
X61371D01*
Y602D01*
X61270D01*
Y703D01*
X61066D01*
Y602D01*
X60965D01*
Y398D01*
X61066D01*
X60066D02*
Y297D01*
X60270D01*
Y398D01*
X60371D01*
Y602D01*
X60270D01*
Y703D01*
X60066D01*
Y602D01*
X59965D01*
Y398D01*
X60066D01*
X66066D02*
Y297D01*
X66270D01*
Y398D01*
X66371D01*
Y602D01*
X66270D01*
Y703D01*
X66066D01*
Y602D01*
X65965D01*
Y398D01*
X66066D01*
X65066D02*
Y297D01*
X65270D01*
Y398D01*
X65371D01*
Y602D01*
X65270D01*
Y703D01*
X65066D01*
Y602D01*
X64965D01*
Y398D01*
X65066D01*
X64066D02*
Y297D01*
X64270D01*
Y398D01*
X64371D01*
Y602D01*
X64270D01*
Y703D01*
X64066D01*
Y602D01*
X63965D01*
Y398D01*
X64066D01*
Y14398D02*
Y14297D01*
X64270D01*
Y14398D01*
X64371D01*
Y14602D01*
X64270D01*
Y14703D01*
X64066D01*
Y14602D01*
X63965D01*
Y14398D01*
X64066D01*
X65066D02*
Y14297D01*
X65270D01*
Y14398D01*
X65371D01*
Y14602D01*
X65270D01*
Y14703D01*
X65066D01*
Y14602D01*
X64965D01*
Y14398D01*
X65066D01*
X66066D02*
Y14297D01*
X66270D01*
Y14398D01*
X66371D01*
Y14602D01*
X66270D01*
Y14703D01*
X66066D01*
Y14602D01*
X65965D01*
Y14398D01*
X66066D01*
X60066D02*
Y14297D01*
X60270D01*
Y14398D01*
X60371D01*
Y14602D01*
X60270D01*
Y14703D01*
X60066D01*
Y14602D01*
X59965D01*
Y14398D01*
X60066D01*
X61066D02*
Y14297D01*
X61270D01*
Y14398D01*
X61371D01*
Y14602D01*
X61270D01*
Y14703D01*
X61066D01*
Y14602D01*
X60965D01*
Y14398D01*
X61066D01*
X63066D02*
Y14297D01*
X63270D01*
Y14398D01*
X63371D01*
Y14602D01*
X63270D01*
Y14703D01*
X63066D01*
Y14602D01*
X62965D01*
Y14398D01*
X63066D01*
X62066D02*
Y14297D01*
X62270D01*
Y14398D01*
X62371D01*
Y14602D01*
X62270D01*
Y14703D01*
X62066D01*
Y14602D01*
X61965D01*
Y14398D01*
X62066D01*
X56066D02*
Y14297D01*
X56270D01*
Y14398D01*
X56371D01*
Y14602D01*
X56270D01*
Y14703D01*
X56066D01*
Y14602D01*
X55965D01*
Y14398D01*
X56066D01*
X57066D02*
Y14297D01*
X57270D01*
Y14398D01*
X57371D01*
Y14602D01*
X57270D01*
Y14703D01*
X57066D01*
Y14602D01*
X56965D01*
Y14398D01*
X57066D01*
X59066D02*
Y14297D01*
X59270D01*
Y14398D01*
X59371D01*
Y14602D01*
X59270D01*
Y14703D01*
X59066D01*
Y14602D01*
X58965D01*
Y14398D01*
X59066D01*
X58066D02*
Y14297D01*
X58270D01*
Y14398D01*
X58371D01*
Y14602D01*
X58270D01*
Y14703D01*
X58066D01*
Y14602D01*
X57965D01*
Y14398D01*
X58066D01*
X52066D02*
Y14297D01*
X52270D01*
Y14398D01*
X52371D01*
Y14602D01*
X52270D01*
Y14703D01*
X52066D01*
Y14602D01*
X51965D01*
Y14398D01*
X52066D01*
X53066D02*
Y14297D01*
X53270D01*
Y14398D01*
X53371D01*
Y14602D01*
X53270D01*
Y14703D01*
X53066D01*
Y14602D01*
X52965D01*
Y14398D01*
X53066D01*
X55066D02*
Y14297D01*
X55270D01*
Y14398D01*
X55371D01*
Y14602D01*
X55270D01*
Y14703D01*
X55066D01*
Y14602D01*
X54965D01*
Y14398D01*
X55066D01*
X54066D02*
Y14297D01*
X54270D01*
Y14398D01*
X54371D01*
Y14602D01*
X54270D01*
Y14703D01*
X54066D01*
Y14602D01*
X53965D01*
Y14398D01*
X54066D01*
X47898D02*
Y14297D01*
X48102D01*
Y14398D01*
X48203D01*
Y14602D01*
X48102D01*
Y14703D01*
X47898D01*
Y14602D01*
X47797D01*
Y14398D01*
X47898D01*
X48898D02*
Y14297D01*
X49102D01*
Y14398D01*
X49203D01*
Y14602D01*
X49102D01*
Y14703D01*
X48898D01*
Y14602D01*
X48797D01*
Y14398D01*
X48898D01*
X50898D02*
Y14297D01*
X51102D01*
Y14398D01*
X51203D01*
Y14602D01*
X51102D01*
Y14703D01*
X50898D01*
Y14602D01*
X50797D01*
Y14398D01*
X50898D01*
X49898D02*
Y14297D01*
X50102D01*
Y14398D01*
X50203D01*
Y14602D01*
X50102D01*
Y14703D01*
X49898D01*
Y14602D01*
X49797D01*
Y14398D01*
X49898D01*
X43898D02*
Y14297D01*
X44102D01*
Y14398D01*
X44203D01*
Y14602D01*
X44102D01*
Y14703D01*
X43898D01*
Y14602D01*
X43797D01*
Y14398D01*
X43898D01*
X44898D02*
Y14297D01*
X45102D01*
Y14398D01*
X45203D01*
Y14602D01*
X45102D01*
Y14703D01*
X44898D01*
Y14602D01*
X44797D01*
Y14398D01*
X44898D01*
X46898D02*
Y14297D01*
X47102D01*
Y14398D01*
X47203D01*
Y14602D01*
X47102D01*
Y14703D01*
X46898D01*
Y14602D01*
X46797D01*
Y14398D01*
X46898D01*
X45898D02*
Y14297D01*
X46102D01*
Y14398D01*
X46203D01*
Y14602D01*
X46102D01*
Y14703D01*
X45898D01*
Y14602D01*
X45797D01*
Y14398D01*
X45898D01*
X39898D02*
Y14297D01*
X40102D01*
Y14398D01*
X40203D01*
Y14602D01*
X40102D01*
Y14703D01*
X39898D01*
Y14602D01*
X39797D01*
Y14398D01*
X39898D01*
X40898D02*
Y14297D01*
X41102D01*
Y14398D01*
X41203D01*
Y14602D01*
X41102D01*
Y14703D01*
X40898D01*
Y14602D01*
X40797D01*
Y14398D01*
X40898D01*
X42898D02*
Y14297D01*
X43102D01*
Y14398D01*
X43203D01*
Y14602D01*
X43102D01*
Y14703D01*
X42898D01*
Y14602D01*
X42797D01*
Y14398D01*
X42898D01*
X41898D02*
Y14297D01*
X42102D01*
Y14398D01*
X42203D01*
Y14602D01*
X42102D01*
Y14703D01*
X41898D01*
Y14602D01*
X41797D01*
Y14398D01*
X41898D01*
X35898D02*
Y14297D01*
X36102D01*
Y14398D01*
X36203D01*
Y14602D01*
X36102D01*
Y14703D01*
X35898D01*
Y14602D01*
X35797D01*
Y14398D01*
X35898D01*
X36898D02*
Y14297D01*
X37102D01*
Y14398D01*
X37203D01*
Y14602D01*
X37102D01*
Y14703D01*
X36898D01*
Y14602D01*
X36797D01*
Y14398D01*
X36898D01*
X38898D02*
Y14297D01*
X39102D01*
Y14398D01*
X39203D01*
Y14602D01*
X39102D01*
Y14703D01*
X38898D01*
Y14602D01*
X38797D01*
Y14398D01*
X38898D01*
X37898D02*
Y14297D01*
X38102D01*
Y14398D01*
X38203D01*
Y14602D01*
X38102D01*
Y14703D01*
X37898D01*
Y14602D01*
X37797D01*
Y14398D01*
X37898D01*
X31898D02*
Y14297D01*
X32102D01*
Y14398D01*
X32203D01*
Y14602D01*
X32102D01*
Y14703D01*
X31898D01*
Y14602D01*
X31797D01*
Y14398D01*
X31898D01*
X32898D02*
Y14297D01*
X33102D01*
Y14398D01*
X33203D01*
Y14602D01*
X33102D01*
Y14703D01*
X32898D01*
Y14602D01*
X32797D01*
Y14398D01*
X32898D01*
X34898D02*
Y14297D01*
X35102D01*
Y14398D01*
X35203D01*
Y14602D01*
X35102D01*
Y14703D01*
X34898D01*
Y14602D01*
X34797D01*
Y14398D01*
X34898D01*
X33898D02*
Y14297D01*
X34102D01*
Y14398D01*
X34203D01*
Y14602D01*
X34102D01*
Y14703D01*
X33898D01*
Y14602D01*
X33797D01*
Y14398D01*
X33898D01*
X27898D02*
Y14297D01*
X28102D01*
Y14398D01*
X28203D01*
Y14602D01*
X28102D01*
Y14703D01*
X27898D01*
Y14602D01*
X27797D01*
Y14398D01*
X27898D01*
X28898D02*
Y14297D01*
X29102D01*
Y14398D01*
X29203D01*
Y14602D01*
X29102D01*
Y14703D01*
X28898D01*
Y14602D01*
X28797D01*
Y14398D01*
X28898D01*
X30898D02*
Y14297D01*
X31102D01*
Y14398D01*
X31203D01*
Y14602D01*
X31102D01*
Y14703D01*
X30898D01*
Y14602D01*
X30797D01*
Y14398D01*
X30898D01*
X29898D02*
Y14297D01*
X30102D01*
Y14398D01*
X30203D01*
Y14602D01*
X30102D01*
Y14703D01*
X29898D01*
Y14602D01*
X29797D01*
Y14398D01*
X29898D01*
X23898D02*
Y14297D01*
X24102D01*
Y14398D01*
X24203D01*
Y14602D01*
X24102D01*
Y14703D01*
X23898D01*
Y14602D01*
X23797D01*
Y14398D01*
X23898D01*
X24898D02*
Y14297D01*
X25102D01*
Y14398D01*
X25203D01*
Y14602D01*
X25102D01*
Y14703D01*
X24898D01*
Y14602D01*
X24797D01*
Y14398D01*
X24898D01*
X26898D02*
Y14297D01*
X27102D01*
Y14398D01*
X27203D01*
Y14602D01*
X27102D01*
Y14703D01*
X26898D01*
Y14602D01*
X26797D01*
Y14398D01*
X26898D01*
X25898D02*
Y14297D01*
X26102D01*
Y14398D01*
X26203D01*
Y14602D01*
X26102D01*
Y14703D01*
X25898D01*
Y14602D01*
X25797D01*
Y14398D01*
X25898D01*
X19898D02*
Y14297D01*
X20102D01*
Y14398D01*
X20203D01*
Y14602D01*
X20102D01*
Y14703D01*
X19898D01*
Y14602D01*
X19797D01*
Y14398D01*
X19898D01*
X20898D02*
Y14297D01*
X21102D01*
Y14398D01*
X21203D01*
Y14602D01*
X21102D01*
Y14703D01*
X20898D01*
Y14602D01*
X20797D01*
Y14398D01*
X20898D01*
X22898D02*
Y14297D01*
X23102D01*
Y14398D01*
X23203D01*
Y14602D01*
X23102D01*
Y14703D01*
X22898D01*
Y14602D01*
X22797D01*
Y14398D01*
X22898D01*
X21898D02*
Y14297D01*
X22102D01*
Y14398D01*
X22203D01*
Y14602D01*
X22102D01*
Y14703D01*
X21898D01*
Y14602D01*
X21797D01*
Y14398D01*
X21898D01*
X15898D02*
Y14297D01*
X16102D01*
Y14398D01*
X16203D01*
Y14602D01*
X16102D01*
Y14703D01*
X15898D01*
Y14602D01*
X15797D01*
Y14398D01*
X15898D01*
X16898D02*
Y14297D01*
X17102D01*
Y14398D01*
X17203D01*
Y14602D01*
X17102D01*
Y14703D01*
X16898D01*
Y14602D01*
X16797D01*
Y14398D01*
X16898D01*
X18898D02*
Y14297D01*
X19102D01*
Y14398D01*
X19203D01*
Y14602D01*
X19102D01*
Y14703D01*
X18898D01*
Y14602D01*
X18797D01*
Y14398D01*
X18898D01*
X17898D02*
Y14297D01*
X18102D01*
Y14398D01*
X18203D01*
Y14602D01*
X18102D01*
Y14703D01*
X17898D01*
Y14602D01*
X17797D01*
Y14398D01*
X17898D01*
X11898D02*
Y14297D01*
X12102D01*
Y14398D01*
X12203D01*
Y14602D01*
X12102D01*
Y14703D01*
X11898D01*
Y14602D01*
X11797D01*
Y14398D01*
X11898D01*
X12898D02*
Y14297D01*
X13102D01*
Y14398D01*
X13203D01*
Y14602D01*
X13102D01*
Y14703D01*
X12898D01*
Y14602D01*
X12797D01*
Y14398D01*
X12898D01*
X14898D02*
Y14297D01*
X15102D01*
Y14398D01*
X15203D01*
Y14602D01*
X15102D01*
Y14703D01*
X14898D01*
Y14602D01*
X14797D01*
Y14398D01*
X14898D01*
X13898D02*
Y14297D01*
X14102D01*
Y14398D01*
X14203D01*
Y14602D01*
X14102D01*
Y14703D01*
X13898D01*
Y14602D01*
X13797D01*
Y14398D01*
X13898D01*
X7898D02*
Y14297D01*
X8102D01*
Y14398D01*
X8203D01*
Y14602D01*
X8102D01*
Y14703D01*
X7898D01*
Y14602D01*
X7797D01*
Y14398D01*
X7898D01*
X8898D02*
Y14297D01*
X9102D01*
Y14398D01*
X9203D01*
Y14602D01*
X9102D01*
Y14703D01*
X8898D01*
Y14602D01*
X8797D01*
Y14398D01*
X8898D01*
X10898D02*
Y14297D01*
X11102D01*
Y14398D01*
X11203D01*
Y14602D01*
X11102D01*
Y14703D01*
X10898D01*
Y14602D01*
X10797D01*
Y14398D01*
X10898D01*
X9898D02*
Y14297D01*
X10102D01*
Y14398D01*
X10203D01*
Y14602D01*
X10102D01*
Y14703D01*
X9898D01*
Y14602D01*
X9797D01*
Y14398D01*
X9898D01*
X5898D02*
Y14297D01*
X6102D01*
Y14398D01*
X6203D01*
Y14602D01*
X6102D01*
Y14703D01*
X5898D01*
Y14602D01*
X5797D01*
Y14398D01*
X5898D01*
X6898D02*
Y14297D01*
X7102D01*
Y14398D01*
X7203D01*
Y14602D01*
X7102D01*
Y14703D01*
X6898D01*
Y14602D01*
X6797D01*
Y14398D01*
X6898D01*
X4898D02*
Y14297D01*
X5102D01*
Y14398D01*
X5203D01*
Y14602D01*
X5102D01*
Y14703D01*
X4898D01*
Y14602D01*
X4797D01*
Y14398D01*
X4898D01*
X3898D02*
Y14297D01*
X4102D01*
Y14398D01*
X4203D01*
Y14602D01*
X4102D01*
Y14703D01*
X3898D01*
Y14602D01*
X3797D01*
Y14398D01*
X3898D01*
X57133Y11318D02*
Y11216D01*
X57336D01*
Y11318D01*
X57438D01*
Y11521D01*
X57336D01*
Y11623D01*
X57133D01*
Y11521D01*
X57031D01*
Y11318D01*
X57133D01*
X59251Y9207D02*
Y9105D01*
X59455D01*
Y9207D01*
X59556D01*
Y9410D01*
X59455D01*
Y9511D01*
X59251D01*
Y9410D01*
X59150D01*
Y9207D01*
X59251D01*
X53506Y3461D02*
Y3359D01*
X53709D01*
Y3461D01*
X53811D01*
Y3664D01*
X53709D01*
Y3766D01*
X53506D01*
Y3664D01*
X53404D01*
Y3461D01*
X53506D01*
X51387Y5572D02*
Y5471D01*
X51591D01*
Y5572D01*
X51692D01*
Y5775D01*
X51591D01*
Y5877D01*
X51387D01*
Y5775D01*
X51286D01*
Y5572D01*
X51387D01*
X50363Y4093D02*
Y3992D01*
X50566D01*
Y4093D01*
X50668D01*
Y4296D01*
X50566D01*
Y4398D01*
X50363D01*
Y4296D01*
X50262D01*
Y4093D01*
X50363D01*
X52497Y2754D02*
Y2652D01*
X52700D01*
Y2754D01*
X52802D01*
Y2957D01*
X52700D01*
Y3059D01*
X52497D01*
Y2957D01*
X52395D01*
Y2754D01*
X52497D01*
X57201Y5538D02*
Y5437D01*
X57405D01*
Y5538D01*
X57506D01*
Y5741D01*
X57405D01*
Y5843D01*
X57201D01*
Y5741D01*
X57100D01*
Y5538D01*
X57201D01*
X50260Y11317D02*
Y11215D01*
X50463D01*
Y11317D01*
X50565D01*
Y11520D01*
X50463D01*
Y11621D01*
X50260D01*
Y11520D01*
X50159D01*
Y11317D01*
X50260D01*
X52309Y13266D02*
Y13165D01*
X52512D01*
Y13266D01*
X52614D01*
Y13469D01*
X52512D01*
Y13571D01*
X52309D01*
Y13469D01*
X52208D01*
Y13266D01*
X52309D01*
X61168Y4275D02*
Y4173D01*
X61371D01*
Y4275D01*
X61472D01*
Y4478D01*
X61371D01*
Y4580D01*
X61168D01*
Y4478D01*
X61066D01*
Y4275D01*
X61168D01*
D38*
X17068Y8770D02*
G03*
X17068Y8770I-203J0D01*
G01*
Y7500D02*
G03*
X17068Y7500I-203J0D01*
G01*
X18338Y8770D02*
G03*
X18338Y8770I-203J0D01*
G01*
Y7500D02*
G03*
X18338Y7500I-203J0D01*
G01*
X17068Y10040D02*
G03*
X17068Y10040I-203J0D01*
G01*
X18338D02*
G03*
X18338Y10040I-203J0D01*
G01*
X17068Y6230D02*
G03*
X17068Y6230I-203J0D01*
G01*
Y4960D02*
G03*
X17068Y4960I-203J0D01*
G01*
X18338Y6230D02*
G03*
X18338Y6230I-203J0D01*
G01*
Y4960D02*
G03*
X18338Y4960I-203J0D01*
G01*
M02*
