M48
;Layer_Color=9474304
;FILE_FORMAT=4:3
METRIC,TZ
;TYPE=PLATED
T4F00S00C0.600
T8F00S00C0.900
%
G90
G05
T04
X221175Y30858G85X220125
X221175Y36858G85X220125
X221175Y42358G85X220125
X221175Y48358G85X220125
X229275Y48358G85X228225
X229275Y42358G85X228225
X229275Y36858G85X228225
X229275Y30858G85X228225
T08
X216245Y76804G85X214445
X225245Y76804G85X223445
X222645Y83304G85X220845
X213145Y83304G85X211346
X216245Y157804G85X214445
X225245Y157804G85X223445
X222645Y164304G85X220845
X213145Y164304G85X211346
X216245Y172804G85X214445
X225245Y172804G85X223445
X222645Y179304G85X220845
X213145Y179304G85X211346
M30
