M48
;Layer_Color=9474304
;FILE_FORMAT=4:3
METRIC,TZ
;TYPE=PLATED
T1F00S00C0.200
T2F00S00C0.300
T3F00S00C0.600
T5F00S00C0.700
T6F00S00C0.800
T7F00S00C0.900
T9F00S00C1.000
T10F00S00C1.100
T11F00S00C1.800
T12F00S00C2.300
T13F00S00C3.000
T14F00S00C3.700
T15F00S00C4.400
%
T01
X1818Y1818
X2500Y1258
X3278Y843
X4122Y586
X5000Y500
X6000
X7000
X8000
X9000
X1258Y2500
X843Y3278
X586Y4122
X500Y5000
Y6000
X500Y7000
X500Y8000
X500Y9000
X10900Y2700
X10750Y1500
X11000Y500
X12000
X13000
X14000Y500
X15000
X16000
X17000
X18000
X19000Y500
X20000
X21000
X22000
X23000
X24000Y500
X25000
X26000
X27000
X28000
X29000Y500
X30000
X31000
X32000
X33000
X34000Y500
X35000
X36000
X37000
X38000
X39000Y500
X40000
X41000
X42000
X43000
X44000Y500
X45000
X46000
X47000
X48000
X49000Y500
X45750Y1500
X45905Y2700
X40900Y2700
X40750Y1500
X35750
X35900Y2700
X30905Y2700
X30750Y1500
X25750
X25900Y2700
X20900
X20750Y1500
X15750
X15900Y2700
X10000Y500
X42300Y7100
X50000Y500
X51000
X52000
X53000
X54000Y500
X55000
X56000
X57000
X58000
X59000Y500
X60000
X61000
X62000
X63000
X64000Y500
X65000
X66000
X67000
X68000
X69000Y500
X70000
X71000
X72000
X73000
X74000Y500
X75000
X76000
X77000
X78000
X79000Y499
X80000
X81000
X82000
X83000
X84000Y499
X85000
X86000
X87000
X88000
X89000Y499
X63778Y6128
X63800Y6895
X62900
Y8645
X63800
Y7855
X58202Y7901
X58552Y8251
X58002Y8851
X57652Y8501
X90000Y499
X91000
X92000
X93000
X94000Y499
X95000Y500
X96000Y500
X97000
X98000
X99000
X100000
X101000Y500
X102000
X103000
X104000Y500
X105000Y500
X106000Y500
X107000
X108000
X109000
X110000
X111000Y500
X112000Y500
X113000
X114000
X115000Y500
X116000Y500
X117000
X118000
X119000
X120000
X121000Y500
X122000
X123000
X124000
X125000
X126000Y500
X127000Y500
X128000
X129000
X130000
X131000Y500
X132000
X133000
X134000
X135000
X136000Y500
X137000
X138000
X139000
X140000
X141000Y500
X142000
X143000
X144000
X145000
X146000Y500
X147000Y500
X148000
X149000
X150000Y500
X151000Y500
X152000
X153000
X154000
X155000
X156000Y500
X157000
X158000Y500
X159000Y500
X160000
X161000Y499
X162000
X163000
X164000
X165000
X166000Y499
X167000
X168000
X168100Y5775
Y6775
Y7775
X166100
Y6775
Y5775
X164100Y5775
Y6775
Y7775
X162100
Y6775
Y5775
X170100
Y6775
Y7775
X172100Y7775
Y6775
Y5775
X174100
Y6775
Y7775
X174000Y499
X175000
X176000Y499
X177000
X178000
X179000
X180000
X181000
X182000
X183000
X184000Y499
X185000Y500
X186000Y500
X187000
X187878Y587
X188722Y843
X189500Y1258
X190182Y1818
X190742Y2500
X191157Y3278
X191414Y4122
X191500Y5000
X191500Y6000
X191500Y7000
X191500Y8000
X191500Y9000
X173000Y499
X172000
X171000Y499
X170000Y499
X169000
X209000Y25500
X210000Y25500
X211000Y25500
X212000Y25500
X213000
X214000
X215000
X216000Y25500
X217000Y25500
X218000
X219000
X220000
X221000Y25500
X222000
X223000
X224000
X225000
X226000
X227000Y25500
X227878Y25586
X228722Y25843
X229500Y26258
X230182Y26818
X230742Y27500
X231157Y28278
X231414Y29122
X231500Y30000
Y31000
Y32000
Y33000
Y34000
X231500Y35000
X231500Y36000
X231500Y37000
Y38000
Y39000
X231500Y40000
Y41000
Y42000
Y43000
Y44000
X231500Y45000
X231499Y46000
X231499Y47000
Y48000
X231499Y49000
X227900Y47050
Y46550
Y44166
Y43666
X225000Y43116
X224450
X221550Y43666
Y44166
Y46550
Y47050
X223425Y48300
X224450Y47600
X225000
X226025Y48300
X218600Y48055
Y48845
X216500Y49250
X216000
X215353Y49242
X214853
X214945Y48150
X214445
X214450Y47600
X214950
X214955Y47050
X214450Y47050
X215795Y46950
X216000Y48050
X216500
X209440Y46250
X209350Y44250
X209350Y43350
X209445Y42500
X208655
X209350Y41650
Y40750
X208250Y49250
X223200Y38500
X223425Y36800
X224450Y36100
X225000
X226025Y36800
X226010Y38423
X225160Y38423
Y39213
X226295Y40700
X227750Y39375
X227900Y35550
Y35050
Y32666
Y32166
X225000Y31616
X224450
X221550Y32166
Y32666
Y35050
Y35550
X226295Y29200
X208000Y25500
X207000
X206000
X205000Y25500
X204000Y25500
X203000
X202000
X201000Y25500
X200000Y25500
X199000
X198000
X197000
X195927Y25394
X194895Y25081
X193944Y24573
X193111Y23889
X192427Y23056
X191919Y22105
X191606Y21073
X191500Y20000
X191500Y19000
X191500Y18000
X191500Y17000
X191500Y16000
X191500Y15000
X191500Y14000
X191500Y13000
X191500Y12000
X191500Y11000
X191500Y10000
X181000Y18925
X180300Y18925
X179500
X179600Y20875
X180300Y20875
X181100
X185695Y24000
X185695Y35300
X185695Y36700
X181000Y39125
X180300Y39125
X179500
X179600Y41075
X180300
X181100
X176700Y40900
X175950Y40900
Y40050
X176700Y40050
Y39200
X175950Y39200
X171495Y48529
X170995Y48929
X170444Y48580
X169995Y48929
X196386Y48893
X196886Y49218
X196945Y47750
X196155
Y46250
X196945
X195923Y45405
Y44855
X195423Y44530
Y45730
X196155Y43750
X196945
Y42250
X196155
X193850Y42350
X193850Y41850
X193350Y41850
X193350Y42350
X193450Y38750
X194050
X193250Y37750
Y37350
X193500Y35350
Y34850
X194850
Y35350
X198100Y34700
X198600Y36400
X200600
X202933Y35564
X203799
X205100Y34725
Y34175
X205600Y33850
Y35050
X205950Y39455
Y40245
X204450
Y39455
X200950
Y40245
X200700Y44000
Y45000
Y46000
Y47000
Y48000
X201700
Y47000
X202700
Y46000
Y45000
Y44000
X203700
Y45000
Y46000
Y47000
Y48000
X202700
X204700
Y47000
Y46000
Y45000
Y44000
X206400Y43500
X206350Y44750
X206400Y46000
X206350Y47250
Y48500
X207800Y45250
X201700Y45000
Y44000
Y46000
X199667Y32837
X198801
X162550Y32700
X162550Y32000
Y31200
X160600Y31300
Y32000
Y32800
Y28800
Y28000
Y27300
X162550Y27200
X162550Y28000
X162550Y28700
X161600Y24000
X153300Y25200
X148600Y25700
X149100Y31250
Y32250
X150100
Y31250
X151100
Y32250
X146900Y32250
Y31250
X145900
Y32250
X144900
Y31250
X138000Y30700
Y29700
X137000
X136000
Y28700
Y27700
Y26700
X137000
X138000
Y27700
X137000
Y28700
X138000
X137000Y30700
X136000
X144750Y20250
Y19250
X145750
Y20250
X146750
Y19250
X149250Y19250
Y20250
X150250
Y19250
X151250
Y20250
X147610Y15790
Y13250
Y10710
X152000Y10700
X154700
X156900
Y13200
Y15800
X162100Y12025
Y11025
Y10025
X158393Y48858
X141707Y48853
X132800Y46800
X107900Y45905
X100698Y41300
X100100Y41300
Y40700
X100700
Y40100
X100100
Y37800
X99500Y37800
Y38398
X98100Y38400
Y37800
X97500
X97700Y39500
X97100
X97700Y40100
X95100Y41200
X98350Y34000
X98950
X70300Y31600
X69500
X68700
X64000Y30700
Y29700
X63000
X62000
Y28700
Y27700
Y26700
X63000
X64000
Y27700
X63000
Y28700
X64000
X63000Y30700
X62000
X57000Y35500
X56500Y36500
X53145Y19350
X52355
Y18500
X50705Y18495
Y19395
X51495
X49845Y19400
X49055
Y18500
X42300Y9700
X25350Y22455
X23000Y23210
Y25750
X22250
X23750
X23000Y28290
X25350Y27455
X11000Y28290
Y25750
X11750
X10250
X11000Y23210
X11000Y33500
X11500Y34000
X10500
X10000Y33500
X30900Y45100
X31500Y46000
X500Y46000
Y47000
Y48000
X500Y49000
X500Y45000
X500Y44000
X500Y43000
Y42000
Y41000
Y40000
Y39000
X500Y38000
Y37000
Y36000
X1200Y32900
X2000Y32505
X500Y32000
Y31000
X3215Y31450
X4215
X6050Y34650
X9500Y34000
X8700Y27455
Y22405
X500Y22000
Y21000
Y20000
Y19000
X500Y18000
Y17000
Y16000
Y15000
Y14000
X500Y13000
Y12000
Y11000
Y10000
X1200Y24500
X500Y26000
Y27000
X1200Y28000
X2000Y26700
Y25900
X500Y50000
Y51000
Y52000
Y53000
X500Y54000
X1200Y54750
Y57750
X500Y60000
Y61000
Y62000
Y63000
X500Y64000
X500Y65000
X500Y66000
Y67000
Y68000
X500Y69000
Y70000
Y71000
Y72000
Y73000
X501Y74000
Y75000
X501Y76000
Y77000
X501Y78000
X501Y79000
X1200Y79750
Y82750
X501Y85000
Y86000
Y87000
Y88000
X501Y89000
X3395Y83605
Y80605
Y58605
Y55605
X32000Y70200
X31500Y71000
X49450Y52350
X55000Y53500
Y54300
X57100Y53500
X57995Y53500
X59498Y53200
X57200Y52000
X56300Y50700
X57320Y55280
X79300Y80000
X79900Y80500
X80350Y81000
X80725Y79825
X82300Y80200
Y81000
X83200Y80700
Y81500
X84000
X83600Y83200
Y83900
X82300
X81800Y83500
X85100Y83300
Y84000
X85900Y83800
X85885Y84515
X79500Y85000
X94855Y88400
X96355Y88400
X97145
X97955Y88400
X98705
X101800Y88500
X102500Y88500
X103500
Y86500
X102500
Y85500
X103500
Y84500
Y83500
X104500
Y82500
X105500
Y81500
X104500
Y80500
Y79500
X105486Y79514
X105500Y80500
X106500
X107500
Y79500
Y78500
X106500
X105500Y78500
X104500Y78500
Y77500
X103500
Y78498
X102500Y78500
Y77500
Y79500
X103200Y79602
X103500Y80500
Y81500
X102500Y82500
Y83500
Y84500
X104500
X105500
Y83500
X106500
X107500Y83500
X108500Y83500
Y82502
X107500Y82500
Y81500
X108500
X109498
X109500Y82498
Y83500
Y84500
X110500
X111500
Y85498
X112500Y85500
X113500
Y84500
X112500
Y83500
X111500
X110505Y83500
X110500Y82500
Y81500
Y80500
X109500
Y79500
X108500
Y78500
Y77500
X107500
X107500Y76475
X110500Y78500
Y79500
X112502
X113500
X114500
Y80500
Y81500
Y82500
X115500Y82500
X115500Y83500
X114500
X113500
X113500Y82500
X112524Y82524
X111500Y82502
X111498Y81698
X112002Y81000
X113500Y81500
X113500Y80500
X115500
X116500
Y81500
Y82500
X117500
X118500
Y81500
Y80500
X117500
Y79500
X116500
Y78500
Y77500
X117500
X118500
X118502Y78500
Y79500
X119500
X120500
Y80500
X121498
X121500Y81500
X122500
X123500
X124500
Y80500
Y79500
X125500
Y78500
Y80500
X126500
X127500
Y81500
X126500
Y82500
Y83500
Y84500
X127500
Y85500
Y86500
X126500
X125507Y86493
X125500Y85500
X126500
X126500Y87500
X125500
X125500Y88500
X124500Y88500
X124500Y87800
X123500Y87500
X123000Y87100
X122500Y87500
X123000Y88000
X122500Y88500
X123500Y88500
X121500Y88500
X120500
Y87500
X121500Y87500
X119500Y87500
Y86500
Y85500
X120500
X121500
X121500Y84500
X120500Y83500
Y82500
X119500
Y83500
X118500
Y84500
Y85500
X117500
X117800Y86150
X118500Y86500
X117500Y87500
X116500
Y86500
Y85500
Y84500
X117500
Y81500
X115500
Y79500
X115498Y78500
X115500Y77498
X117500Y78500
X117598Y76400
X120500Y77500
X121497Y77500
X122500Y77500
X120500Y78500
X119500Y80500
X119521Y81479
X120500Y81500
X121500Y82500
X122500
X122500Y83500
X123500
X123500Y84500
Y85500
X124500Y86500
Y83500
X125500
X127500
Y82500
Y87500
X128495Y87500
X119500Y88500
X118500Y88500
X117500
X116500
X115500
X114500
X113500
X112500
Y87500
Y86500
X113500
Y87500
X114500
X115500
Y86500
X116000Y86000
X114500Y86500
Y85500
Y84500
X111500Y86500
Y87500
X110500
Y86502
X109500Y86500
Y87500
X108500
Y88500
X107500
X106500
X105500Y87500
Y86500
X104500
Y87500
X102500
X104500Y85500
X105500
X106500
X107500
Y86500
Y87498
X106500Y86500
X108500
Y85500
Y84500
X109500Y85500
X110500
Y88500
X111500
X109500Y88700
X108500Y80500
X112502Y78500
X112500Y77300
X123500Y79500
X127502Y77500
X101475Y82500
X95500Y75700
X94500
X91400Y74100
X131102Y76050
Y76700
X137850Y78750
X138650
X140300Y82400
X141100
X140600Y83600
X139800
X139100Y83600
Y84900
X139800Y84800
X140600
Y86000
X139800Y86100
X139100Y86200
X139600Y87400
X140600Y87200
X144061Y71361
Y70795
X144450Y71750
X145016
X150100Y71600
X150693Y71089
X151274Y71613
X152200Y70100
X152858Y70518
X153473Y70042
X154550Y70000
X155200Y70002
X155850Y69992
X156500Y70008
X153925Y71004
X149550Y70300
X149288Y59862
X150788Y59812
X158383Y57762
X158380Y56490
X165089Y56600
Y55086
X166400Y59050
X167400Y58400
X168400Y59050
X168395Y60824
X167895Y60429
X167395Y60824
X166895Y60429
X166395Y60824
X158392Y49658
X155578Y50138
X154535Y50125
X141707Y50123
X141705Y50900
X141707Y55202
X142667Y56487
X143457Y56487
X141707Y57743
X141705Y58550
X169400Y58400
X170400Y59050
X171400Y58400
X172400Y59050
X172395Y60824
X171895Y60429
X171395Y60824
X170895Y60429
X170395Y60824
X169895Y60429
X169395Y60824
X168895Y60429
X172895
X173395Y60824
X173895Y60429
X174395Y60824
X174895Y60429
X175395Y60824
X175895Y60429
X176395Y60824
X176895Y60429
X177395Y60824
X177400Y58400
X176400Y59050
X175400Y58400
X171795Y56329
X171000Y56309
X170995Y55329
X170495Y55329
X169995Y55304
X169495Y55354
Y54804
X171045Y54329
X171895Y54329
X172195Y53329
X171495
Y52529
Y51829
X172295
X172999Y51818
X172895Y52529
X170495Y52329
X170495Y51529
X170995Y50729
X171695
X169495Y49829
X171495Y55354
X198650Y55195
X199450Y55300
X200150Y54800
X201150Y54000
X201850Y53500
X202600Y54005
X202455Y52000
X203245
X204650Y51955
Y52745
X205450
Y51955
X206450Y52745
X207995Y52800
X207995Y52000
X204605Y53550
Y54350
X204760Y55299
X205310
X206150Y55850
Y56716
X206997Y56197
X206986Y60155
Y60945
X203423Y60849
Y59983
X198650Y53495
X198555Y51950
X199445
X196886Y49768
X196386Y50093
X207977Y76254
X207982Y81854
X208102Y82854
X208398Y80154
X208897
X209397
Y79554
X208897
X208398
X208482Y77954
X208202Y76954
X208477Y76254
X209277Y76254
X209777
X211397Y81329
X231500Y81000
Y82000
Y83000
X231500Y84000
X231500Y85000
Y86000
Y87000
Y88000
Y89000
X231500Y80000
X231500Y79000
Y78000
Y77000
Y76000
Y75000
X231499Y74000
Y73000
X231499Y72000
X231499Y71000
Y70000
X231499Y69000
Y68000
Y67000
X231499Y66000
X231499Y65000
X231499Y64000
Y63000
Y62000
Y61000
Y60000
X231499Y59000
X231499Y58000
Y57000
X231499Y56000
Y55000
X231499Y54000
Y53000
X231499Y52000
Y51000
X231499Y50000
X226850Y50050
X226690Y51900
X225900
X223200Y50000
X218600Y49705
Y50495
X216500Y50450
X216000
X215875Y51550
X215845Y52500
X214334Y57823
X214334Y60473
X211550Y60800
X210550
Y59800
X211550
Y58800
X210550
X222134Y60823
Y63473
X231500Y90000
Y91000
Y92000
Y93000
Y94000
X231500Y95000
Y96000
Y97000
X231500Y98000
X231500Y99000
X231500Y100000
Y101000
Y102000
Y103000
X231500Y104000
X231500Y105000
Y106000
Y107000
Y108000
Y109000
X231500Y110000
Y111000
X231500Y112000
Y113000
X231500Y114000
X231500Y115000
X231500Y116000
Y117000
Y118000
X231500Y119000
X231500Y120000
X231500Y121000
Y122000
Y123000
Y124000
X231500Y125000
X231500Y126000
X231500Y127000
Y128000
X226300Y121000
Y117300
X227800Y115500
X227550Y112500
X228150
Y111900
X227550
X226950
Y112500
X223225Y115480
X218250Y111600
X217650
Y111000
X218250
X218600Y106700
Y105600
Y104500
X218500Y103500
X218600Y102300
Y100100
Y99000
X218250Y97000
X217650
Y96400
X218250
X216200Y99000
Y100100
X216200Y101200
Y102300
X216200Y103400
X216200Y104500
Y105600
Y106700
X209900Y107200
X210600Y108100
Y109300
X212000Y104000
Y103300
X226950Y97000
X227550
X228150
Y96400
X227550
X226950
X214400Y126400
Y127300
X210700
X210800Y126183
X210700Y124900
X206400Y127300
X208000Y117800
Y117200
X197000Y104000
X193500Y101000
X191600Y101500
X192118Y102052
X191600Y102600
X190500Y103700
X190900Y100000
X191600Y99500
X189510Y99966
X176900Y107800
X177000Y108500
X175000Y109000
X174800Y109800
X175128Y110780
X174200Y110600
X174423Y111510
X174939Y112900
X174091Y113300
Y114500
X174939
Y115700
X174091Y115700
Y116900
X174175Y117825
X174091Y118900
X174939Y119300
X176571Y119300
X176997Y119790
X177202Y121022
X177217Y122190
X177930Y121600
Y122800
X177550Y123400
X177200Y123950
X176571Y123300
X176530Y124900
Y126100
Y127300
X175278Y126974
Y126424
Y125774
Y125224
X173751Y125225
Y125775
Y126425
Y126975
X172500Y127300
Y126100
Y124900
X172459Y122900
X171700Y123000
Y121800
Y120600
X172459Y120900
X174091Y120900
X174939Y121300
X175000Y122900
X174091Y122900
X171000Y122400
Y121200
Y120000
Y118800
Y117600
X171500Y117000
X172459Y116900
X171700Y115800
Y118200
Y119400
X174939Y117300
X176571Y117300
X177430Y116800
X177930Y117400
Y118001
X177236Y118420
X177930Y119200
Y120400
X177930Y116200
X177400Y115600
X176571Y115700
X176700Y110700
X172500Y110800
Y110300
Y111400
Y111900
X172400Y109200
X174000Y108000
X174900
X168500
X169500Y109000
X178800Y90200
X150400Y90800
X149500Y91350
X149700Y92800
X150500
Y93750
X149750
X147600Y94000
X147050Y93600
X146450Y94450
X147613Y95125
X144900Y93550
X144450Y93100
X144000Y92650
X143550Y92200
X147207Y89951
X147850Y89950
X148393Y90349
X148766Y89913
X133900Y90800
X133300
X134755Y93800
X135549Y94232
X134755Y96050
X133500Y97000
X133000Y96500
X132500Y96100
X131900Y96500
X131100
X130600Y96100
X130000Y96475
X129500Y95100
X131500Y96000
X131100Y98100
X130400
X129700
X129268Y99494
X130226Y99490
X130800Y101900
X130400Y102350
X130800Y102800
X130725Y104300
X130656Y104831
X129900Y106255
Y107045
X129900Y107905
Y108695
X134650Y107095
Y106305
X135600
Y107095
X135400Y103095
Y102305
X136400
Y103095
X137750Y103145
Y102145
X138550
X138855Y104350
X139645Y104350
X139645Y105300
X138855
X136440Y101000
X135840
Y100400
X136440
X128750Y90650
X131975Y113675
X132325Y114099
X131977Y114525
X132000Y115300
X132000Y116100
Y116900
Y117700
X132530Y118230
X132580Y117220
X132500Y116500
Y115700
Y114900
X133125Y120965
X131500Y120600
Y121400
Y122200
X131000Y121800
Y121000
Y122600
Y123500
X131007Y124293
X131000Y125100
Y125900
X131500Y125500
Y124700
Y123900
Y123100
X133275Y125800
Y126500
Y127200
Y127900
X134675
Y127200
Y126500
Y125800
X136625Y120965
X140125Y120965
X141075Y123435
X142125Y125800
Y126500
Y127200
Y127900
X143525
Y127200
Y126500
Y125800
X144999Y127014
X166400Y123700
X167050
X126629Y123121
X126071Y123679
X124729Y117371
X124171Y117929
X126200Y115000
Y114300
Y113600
Y112900
Y112200
X126188Y111488
X126200Y110738
X126193Y110107
X127275Y108100
X127725
X127529Y105350
X128000Y105350
Y104850
X127529Y104850
X127500Y102500
Y101500
X126500
Y102500
X125493Y102507
X124500Y102500
X123500
Y101500
X124500
X125500
Y100500
Y99500
X124500
X124515Y100485
X123500Y99500
Y98500
X125500
X125103Y96976
X124975Y96050
X124500Y96500
Y95500
X125500
X126500
X125500Y94500
X125515Y93515
X125500Y92500
Y91500
X124500Y91500
X123510Y91500
X122504
Y90500
X123500Y90500
Y89500
X122500
X121500Y90500
X119500
Y91500
X120500
Y93500
X119500
Y92500
X118500
X117500
X116500
Y93500
Y94500
Y95500
X117500
X118500
Y94500
X117500
Y96500
Y97500
X118500
X119500
Y96500
X120500
Y97500
Y98500
X121500
Y97500
X122500
X121500Y96500
Y95500
X120500
X119500
X118500Y96500
Y98500
Y99500
X117500
Y98500
X116500
X115500
X114500
X113500
Y97500
Y96500
X112500
X111500
Y97500
X112500
X114500
Y96500
X114700Y95500
Y94500
X114500Y93500
Y92500
Y91500
Y90500
Y89500
X113500
X112500
Y90500
X113500
Y91500
X112500
X111500
Y90500
Y89500
X110500
X109500
X108500
X107500
Y90500
X106500
Y89500
X105500
X104500
X103500Y90500
X102500
Y92500
X101800Y92500
X103500Y92500
X104500Y93500
X105500
X106500
X107500
X108500
Y92500
Y91500
Y90500
X109500
X110500
Y91500
Y92500
Y93500
X111500
Y92500
X112500
X113500
Y93500
X112500
Y94500
X112800Y95200
X113500Y95500
Y94500
X111500
Y95500
X110500
Y96500
X109500
X108500
Y97484
Y98500
X109425Y98485
X110507Y98507
X110500Y100500
Y101500
X111500
Y102500
X112500Y102500
X113500Y102500
X114500
Y101500
X113500Y100500
X112500
X111500
X109500
Y101500
X108500
Y102500
X109500
X110500
X112475Y103575
X111600Y107100
X110700Y108000
X110682Y108700
X110082
X109400Y108800
X108723Y108700
X108123
X107846Y109400
X107823Y110000
X107223
X107200Y109400
X109182Y109500
X109782
X106892Y112500
X106723Y113100
X106123
X106023Y112500
X105823Y111900
X105223
X105153Y111300
X103953Y112000
X103353
X103282Y111400
X102012Y112000
X101412
X101319Y111382
X100071Y112000
X99471
X99400Y111400
X98129Y112000
X97529
X97200Y112500
X98400
X98500Y113100
X99100
X100441
X101041
X100329Y112508
X102282Y112500
X102382Y113100
X102982
X104323
X104923
X104223Y112500
X104292Y106300
X104700Y105900
X105300
X105700Y105500
X106200Y105800
X106800
X107400Y105900
X107700Y105575
X107700Y104200
X107200Y102500
X106500
X105500Y101500
X104500
Y99500
X105500
X106500
Y100500
X107500
X108500
Y99500
X107500
X107512Y98502
X107500Y97500
X106500
X105500
Y96500
X104500
Y95500
X105500
X106500
Y96500
X107500
Y95500
X108500
X109500
X108500Y94500
X107500
X106500
Y92500
Y91500
X105500
X104500
X107500
Y92500
X109500
Y91500
Y93500
X110500Y94500
X115500Y93500
Y92500
Y91500
Y90500
Y89500
X116500
X117500
X118500
Y90500
Y91500
X116500
Y90500
X119589Y89502
X122504Y92500
X123510Y94500
X127500Y92500
Y91500
Y90500
X126500
X127500Y97500
X128400Y97500
X127500Y99500
X127496Y100504
X126500Y100500
X125544Y103900
X125500Y105505
Y106295
X123871Y103430
X122475Y102500
X121500Y102450
X121500Y103200
X121444Y105456
X120700Y105500
X120982Y106054
X120688Y106519
X121000Y107000
X120700Y107500
X121000Y108000
X120700Y108500
X121000Y109000
X120700Y109500
X121000Y110000
X121308Y110718
X120600Y111100
X121000Y111600
X120500Y112000
X120829Y121271
X120271Y121829
X120500Y101500
X119500
X118500
Y102500
X117500
X116500Y100500
Y99500
Y97500
X115500
X116500Y96500
X113500Y99500
X118500Y100500
X120500
X121493Y100507
X121500Y99500
X106500Y98500
X104500Y97504
X103500Y97500
X102500
Y98500
X103500
Y96500
X102500
X102500Y94500
X103500Y94500
X98745Y93300
X97955
X97145Y93300
X96355
Y94700
X97145
X94005Y94700
Y93300
X94005Y91550
X94005Y89850
X96355Y89850
X97145
X98005Y89850
X98795
X98745Y91550
X97955
X97145Y91550
X96355Y91550
X94171Y98754
Y99454
X93534Y99807
Y98393
X96729Y101121
X96171Y101679
X96629Y102771
X96071Y103329
X96729Y104471
X96171Y105029
X101350Y105345
Y104555
X102600Y102500
X103500
X103500Y100500
X102500
X101000
X99400Y100503
X105708Y106300
X68850Y106650
Y107150
X68350
Y106650
X68900Y110400
X69795Y110400
X68600Y113007
Y113797
X67525Y113702
Y114350
X68600Y115807
Y116597
X67525Y117152
X66700Y118700
X67300Y119725
X65100Y121475
X65700Y122500
X65650Y124450
Y124950
X65150
Y124450
X65700Y128200
X66700Y128200
X61000Y123600
X61000Y122357
X59900Y119900
Y118900
X58900
X57900
Y117900
X58900
X59900
X58900Y119900
X57900
X55000Y119400
X54973Y118600
X53875Y118600
Y119400
X53900Y120200
X56505Y124950
X58895Y124950
X62400Y118900
X63600Y119000
X64300Y116597
Y115807
X65375Y116502
X64300Y113497
Y112707
X58900Y114200
X58900Y115200
X32000Y120200
X31500Y121000
Y96000
X32000Y95200
X500Y95000
Y94000
Y93000
Y92000
Y91000
X500Y90000
X500Y96000
Y97000
Y98000
X500Y99000
X500Y100000
X500Y101000
Y102000
Y103000
Y104000
X1200Y104750
X500Y107000
X1200Y107750
X500Y110000
X500Y111000
X500Y112000
Y113000
X500Y114000
Y115000
X500Y116000
Y117000
Y118000
Y119000
Y120000
X500Y121000
X500Y122000
Y123000
Y124000
Y125000
X500Y126000
X500Y127000
X500Y128000
X3395Y108605
Y105605
Y130605
Y133605
X1200Y132750
X500Y132026
X500Y135000
X500Y136000
Y137000
Y138000
Y139000
Y140000
X500Y141000
X500Y142000
Y143000
Y144000
X500Y145000
X500Y146000
Y147000
Y148000
Y149000
Y150000
X500Y151000
Y152000
X501Y153000
X500Y154000
Y155000
X501Y156000
Y157000
Y158000
X501Y159000
X501Y160000
X501Y161000
Y162000
Y163000
Y164000
Y165000
X501Y166000
X501Y167000
Y168000
X1200Y129750
X500Y129000
X41300Y139500
X40857Y139957
X40900Y140600
X40800Y141300
X40900Y141900
X41500Y142130
Y143330
X43130Y149330
Y150130
Y150930
X43760Y150530
Y151330
Y149730
X47800Y150530
X47700Y151340
X48430Y151730
Y150930
Y150130
X41300Y162360
X40857Y162817
X40900Y163460
X40800Y164160
X40900Y164760
X41500Y164990
Y166190
X104800Y166300
X105350
X106350Y166889
X106100Y167852
X105600Y168300
X105100Y167852
X107725Y167400
Y166900
X108750
Y167400
X109775
Y166900
X110725
Y167400
X111750
Y166900
X112775
Y167400
X113725
Y166900
X114750
Y167400
X115775
Y166900
X116725
Y167400
X117750
Y166900
X118775
Y167400
X119800Y167350
Y166250
X121725Y165640
Y165140
Y164640
X122750
Y165140
Y165640
X123775
Y165140
Y164640
X124800
Y165140
Y165640
X125825
Y165140
Y164640
X126850
Y165140
Y165640
X127875
Y165140
Y164640
X118775Y164400
Y163900
X117750
Y164400
X116725
Y163900
X115775
Y164400
X114750
Y163900
X113725
Y164400
X112775
Y163900
X111750
Y164400
X110725
Y163900
X109775
Y164400
X108750
Y163900
X107725
Y164400
X133433Y162000
X135755Y162300
X136545
X136600Y161400
X135600
X135800Y163200
X136300
Y163900
X135800
X135800Y164850
X136300
Y165550
X135800
Y166150
X136300
Y166850
X135800
X135800Y167750
X136300
X138800
X139300
X139300Y166850
X138800
Y166150
X139300
Y165550
X138800
Y164850
X139300
X138300Y163900
X137800
Y163200
X138300
X139195Y161466
X138450Y160661
X139150Y158416
X140450Y158100
X140950
Y157500
X140450
Y156800
X140950
Y155800
X140450
Y155100
X140950
Y154500
X140450
Y153800
X140950
X143450
X143950
Y154500
X143450
Y155100
X143950
Y155800
X143450
Y156800
X143950
Y157500
X143450
Y158100
X143950
Y158800
X143450
X140950
X140450
X137404Y158746
X136904
Y158046
X137404
X137505Y157150
X133800Y158855
X140650Y166001
X141755Y167216
X143340Y167216
X145355Y167216
X146945
X147800Y166001
X146300Y165150
X145750
X144250Y165166
X142699Y165151
X142149
X143250Y163531
X146850
X147195Y162266
X148500Y147400
X149000Y147000
X162250Y142800
X161800Y142300
X152175Y129475
Y128975
X150675
Y129475
X148875Y129425
Y128925
X146295Y129719
X145505
X144999Y128835
X137775Y129000
Y129500
X136525
Y129000
X132003Y139999
X131003
X191821Y153371
X192379Y153929
X194197Y153754
X196977Y151033
X199997Y150654
X200397Y151154
X205935Y150118
X206535
Y149182
X205935
X204797Y158754
X202097Y160654
X201497
Y161254
X202097
X200397Y162154
X199797
X199797Y162754
X200397Y162754
X200619Y167727
Y168327
X200019
X200019Y167727
X202297Y156354
X209597Y158654
X208897Y161654
X208803Y152516
Y152016
X210053
Y152516
X214785Y150118
X215385
Y149182
X214785
X231499Y149000
Y148000
X231499Y147000
X231499Y146000
Y145000
Y144000
Y143000
Y142000
X231499Y141000
Y140000
Y139000
Y138000
Y137000
X231499Y136000
X231500Y135000
X231500Y134000
Y133000
Y132000
Y131000
Y130000
X231500Y129000
X231499Y150000
Y151000
X231499Y152000
Y153000
Y154000
Y155000
Y156000
X231500Y157000
Y158000
Y159000
X231500Y160000
X231500Y161000
X231500Y162000
Y163000
Y164000
Y165000
Y166000
X231500Y167000
Y168000
Y169000
Y170000
Y171000
X231500Y172000
Y173000
Y174000
Y175000
Y176000
X231500Y177000
Y178000
Y179000
X231500Y180000
X231500Y181000
X231500Y182000
Y183000
Y184000
Y185000
Y186000
X231500Y187000
Y188000
Y189000
Y190000
Y191000
X231500Y192000
Y193000
Y194000
X231500Y195000
X231500Y196000
X231500Y197000
Y198000
Y199000
Y200000
Y201000
X231500Y202000
X231500Y203000
Y204000
Y205000
Y206000
X231500Y207000
Y208000
X228349Y187583
X227749
Y186647
X228349
X208249
Y187583
X208337Y175314
Y174814
Y174314
X208937
Y174814
Y175314
X200417Y174100
X199817
X199217
X199597Y174654
X196897Y176054
X193708Y174328
X193397Y173654
X192497Y172835
X191797Y172654
X189897Y172054
X190593Y187586
Y188376
X190593Y189236
Y190026
X191500Y189800
X192000Y190300
X192600
X193900Y189800
X193300Y188900
X194532Y188613
X193900Y187800
X193450Y187400
X192900Y186950
X192350Y187400
X191900Y186950
X191500Y187800
X191250Y191550
X190350
Y193050
X191250
X191595Y194800
X190805
X194810Y195545
X195223Y195963
X195213Y196532
X194800Y196950
X197806Y194750
X197700Y192195
Y191405
X196400Y191705
Y192495
X198950Y190055
X199650Y189650
X200150
X199900Y190825
X200473Y190825
X201174Y190840
X201474Y194140
X200874
Y195340
X201474
X201200Y197800
X202400Y198825
Y199675
X202400Y201225
Y202075
X201474Y201990
X200874
Y203040
X201474
X201174Y205340
Y207840
X197806Y207243
X196999Y207551
X196989Y208120
X196586Y207133
X197700Y204695
Y203905
X192500Y202750
Y202250
X191700
Y202750
X190850
Y202250
X190050
Y202750
X189393Y201490
X188893
X190050Y200750
Y200250
X190850
Y200750
X191700
Y200250
X192500
Y200750
X188245Y198850
X185900Y200050
X184600Y200250
Y200750
X183800
Y200250
X182950
Y200750
X182150
Y200250
Y202250
Y202750
X182950
Y202250
X183800
Y202750
X184600
Y202250
X186850Y202275
Y202775
X184400Y208000
X183600
X182700
X181900
X170625Y197440
Y196940
Y196440
X169600
Y196940
Y197440
X168575
Y196940
Y196440
X187650Y191600
X188050Y191200
Y190650
X187650Y190250
X207649Y187583
Y186647
X205625Y198100
Y198600
X205625Y199300
Y199800
X205625Y201100
Y201600
X203300Y201945
X203350Y198955
X167550Y197440
Y196940
Y196440
X166525
Y196940
Y197440
X165500
Y196940
Y196440
X164475
Y196940
Y197440
X162550Y198050
Y199150
X161525Y199200
Y198700
X160500
Y199200
X159475
Y198700
X158525
Y199200
X157500
Y198700
X156475
Y199200
X155525
Y198700
X154500
Y199200
X153475
Y198700
X152525
Y199200
X151500
Y198700
X150475
Y199200
X150475Y200350
Y200850
X151500
Y200350
X152525
Y200850
X153475
Y200350
X154500
Y200850
X155525
Y200350
X156725Y200300
Y200800
Y201300
X156800Y202000
Y202500
Y203500
Y204000
X156900Y204875
X157850Y205706
X158750Y203800
X159250
X160100
X160600
X160600Y202350
X160100
X159294Y202329
X158794
X158000Y202300
X157725Y201300
Y200800
Y200300
X158725Y200300
Y200800
Y201300
X159725Y201300
Y200800
Y200300
X160725Y200300
Y200800
Y201300
X161650Y201092
X162600Y203800
Y204300
X162455Y205308
X162450Y205800
X162900Y205550
X161975Y206750
X161100Y207625
X160250Y207625
X155525Y203850
Y203350
X154500
Y203850
X153475
Y203350
X152525
Y203850
X151500
Y203350
X150475
Y203850
X150475Y196200
Y195700
X151500
Y196200
X152525
Y195700
X153475
Y196200
X154500
Y195700
X155525
Y196200
X156475
Y195700
X157500
Y196200
X158525
Y195700
X159475
Y196200
X160500
Y195700
X161525
Y196200
X142125Y196440
Y196940
Y197440
X141100
Y196940
Y196440
X140075
Y196940
Y197440
X139050
Y196940
Y196440
X138025
Y196940
Y197440
X137000
Y196940
Y196440
X135975
Y196940
Y197440
X134050Y198050
Y199150
X133025Y199200
Y198700
X132000
Y199200
X130975
Y198700
X130025
Y199200
X129000
Y198700
X129225Y200300
Y200800
Y201300
X130225Y201300
Y200800
Y200300
X131225Y200300
Y200800
Y201300
X132225Y201300
Y200800
Y200300
X133150Y201092
X132100Y202350
X131600
X130794Y202329
X130294
X129500Y202300
X130250Y203800
X130750
X131600
X132100
X134100
Y204300
X133955Y205308
X133950Y205800
X134400Y205550
X133475Y206750
X132600Y207625
X131750Y207625
X129350Y205706
X129000Y196200
Y195700
X130025
Y196200
X130975
Y195700
X132000
Y196200
X133025
Y195700
X135800Y169750
X136300
Y169050
X135800
Y168450
X136300
X138800
X139300
Y169050
X138800
Y169750
X139300
X118900Y169292
X117975Y169500
Y169000
Y168500
X116975Y168500
Y169000
Y169500
X115975Y169500
Y169000
Y168500
X114975Y168500
Y169000
Y169500
X113975Y169500
Y169000
Y168500
X112775Y168550
Y169050
X111750
Y168550
X110725
Y169050
X109775
Y168550
X108750
Y169050
X107725
Y168550
X106100Y168748
X105100
X105850Y169714
X106350
X105595Y170752
X104805Y170750
X107725Y171550
Y172050
X108750
Y171550
X109775
Y172050
X110725
Y171550
X111750
Y172050
X112775
Y171550
X114050Y171700
Y172200
X114150Y173075
Y173925
X115100Y173906
X116000Y172000
X116500
X117350
X117850
X117850Y170550
X117350
X116544Y170529
X116044
X115250Y170500
X114050Y170700
Y170200
X119850Y172000
Y172500
X119705Y173508
X119700Y174000
X120150Y173750
X119225Y174950
X118350Y175825
X117500Y175825
X117325Y177650
X100750Y177757
Y178547
X100700Y181307
Y182097
X99485Y180202
Y176602
X95802Y176755
X95802Y177545
X95802Y180350
X95802Y181140
X95525Y195700
Y196200
X96475
Y195700
X97500
Y196200
X98525
Y195700
X99475
Y196200
X100500
Y195700
X101525
Y196200
X102475
Y195700
X103500
Y196200
X104525
Y195700
Y198700
Y199200
X103500
Y198700
X102475
Y199200
X101525
Y198700
X100500
Y199200
X99475
Y198700
X98525
Y199200
X97500
Y198700
X96475
Y199200
X95525
Y198700
X94500
Y199200
X93475
Y198700
X93475Y200350
Y200850
X94500
Y200350
X95525
Y200850
X96475
Y200350
X97500
Y200850
X98525
Y200350
X99725Y200300
Y200800
Y201300
X99800Y202000
Y202500
Y203500
Y204000
X99900Y204875
X100850Y205706
X101750Y203800
X102250
X103100
X103600
X103600Y202350
X103100
X102294Y202329
X101794
X101000Y202300
X100725Y201300
Y200800
Y200300
X101725Y200300
Y200800
Y201300
X102725Y201300
Y200800
Y200300
X103725Y200300
Y200800
Y201300
X104650Y201092
X105550Y199150
Y198050
X107475Y197440
Y196940
Y196440
X108500
Y196940
Y197440
X109525
Y196940
Y196440
X110550
Y196940
Y197440
X111575
Y196940
Y196440
X112600
Y196940
Y197440
X113625
Y196940
Y196440
X121975Y196200
Y195700
X123000
Y196200
X124025
Y195700
X124975
Y196200
X126000
Y195700
X127025
Y196200
X127975
Y195700
X127975Y198700
Y199200
X127025
Y198700
X126000
Y199200
X124975
Y198700
X124025
Y199200
X123000
Y198700
X121975
Y199200
X121975Y200350
Y200850
X123000
Y200350
X124025
Y200850
X124975
Y200350
X126000
Y200850
X127025
Y200350
X128225Y200300
Y200800
Y201300
X128300Y202000
Y202500
Y203500
Y204000
X128400Y204875
Y205725
X127025Y203850
Y203350
X126000
Y203850
X124975
Y203350
X124025
Y203850
X123000
Y203350
X121975
Y203850
X105600Y203800
Y204300
X105455Y205308
X105450Y205800
X105900Y205550
X104975Y206750
X104100Y207625
X103250Y207625
X98525Y203850
Y203350
X97500
Y203850
X96475
Y203350
X95525
Y203850
X94500
Y203350
X93475
Y203850
X93475Y196200
Y195700
X94500
Y196200
X85125Y196440
Y196940
Y197440
X84100
Y196940
Y196440
X83075
Y196940
Y197440
X82050
Y196940
Y196440
X81025
Y196940
Y197440
X80000
Y196940
Y196440
X78975
Y196940
Y197440
X77050Y198050
Y199150
X76025Y199200
Y198700
X75000
Y199200
X73975
Y198700
X73025
Y199200
X72000
Y198700
X70975
Y199200
X70025
Y198700
X69000
Y199200
X67975
Y198700
X67025
Y199200
X66000
Y198700
X64975
Y199200
X64975Y200350
Y200850
X66000
Y200350
X67025
Y200850
X67975
Y200350
X69000
Y200850
X70025
Y200350
X71225Y200300
Y200800
Y201300
X71300Y202000
Y202500
Y203500
Y204000
X71400Y204875
X71400Y205725
X72350Y205706
X73250Y203800
X73750
X74600
X75100
X75100Y202350
X74600
X73794Y202329
X73294
X72500Y202300
X72225Y201300
Y200800
Y200300
X73225Y200300
Y200800
Y201300
X74225Y201300
Y200800
Y200300
X75225Y200300
Y200800
Y201300
X76150Y201092
X77100Y203800
Y204300
X76955Y205308
X76950Y205800
X77400Y205550
X76475Y206750
X75600Y207625
X74750Y207625
X70025Y203850
Y203350
X69000
Y203850
X67975
Y203350
X67025
Y203850
X66000
Y203350
X64975
Y203850
X64975Y196200
Y195700
X66000
Y196200
X67025
Y195700
X67975
Y196200
X69000
Y195700
X70025
Y196200
X70975
Y195700
X72000
Y196200
X73025
Y195700
X73975
Y196200
X75000
Y195700
X76025
Y196200
X48430Y174590
Y173790
Y172990
X47800Y173390
X47700Y174200
X43760Y174190
Y173390
Y172590
X43130Y172190
Y172990
Y173790
X501Y174000
Y173000
X501Y172000
Y171000
X501Y170000
Y169000
X501Y175000
X501Y176000
X501Y177000
Y178000
X501Y179000
X500Y180000
X500Y181000
Y182000
Y183000
Y184000
Y185000
X500Y186000
Y187000
Y188000
X500Y189000
X500Y190000
X500Y191000
Y192000
Y193000
Y194000
Y195000
X500Y196000
X500Y197000
Y198000
Y199000
X500Y200000
X500Y201000
Y202000
Y203000
X500Y204000
X500Y205000
X500Y206000
X500Y207000
Y208000
Y209000
Y210000
X500Y211000
X500Y212000
Y213000
X500Y214000
X500Y215000
X500Y215974
X500Y233713
X500Y234739
X500Y235765
X500Y236792
X500Y237818
X500Y238844
X501Y239870
X501Y240896
X501Y241922
X501Y242948
X500Y243974
X500Y245000
X586Y245878
X843Y246722
X1258Y247500
X12325Y230370
X19550Y229700
Y228700
Y226700
Y225700
Y223700
Y222700
Y220700
X19550Y219700
X16400Y217200
Y216700
X15300
Y217200
X12995Y218100
X28970Y219700
X28970Y220700
Y222700
Y223700
Y225700
Y226700
Y228700
Y229700
X31445Y230700
Y227700
Y224700
Y221700
X50725Y227500
Y228000
X51750
Y227500
X52775
Y228000
X53725
Y227500
X54750
Y228000
X55775
Y227500
X56725
Y228000
X57750
Y227500
X58775
Y228000
X59725
Y227500
X60750
Y228000
X61775
Y227500
Y230500
Y231000
X60750
Y230500
X59725
Y231000
X58775
Y230500
X57750
Y231000
X56725
Y230500
X55775
Y231000
X54750
Y230500
X53725
Y231000
X52775
Y230500
X51750
Y231000
X50725
Y230500
X50725Y232150
Y232650
X51750
Y232150
X52775
Y232650
X53725
Y232150
X54750
Y232650
X55775
Y232150
X56975Y232100
Y232600
Y233100
X57050Y233800
Y234300
Y235300
Y235800
X57150Y236675
Y237525
X58250Y237450
X59000Y235600
X59500
X60350
X60850
X60850Y234150
X60350
X59544Y234129
X59044
X58250Y234100
X57975Y233100
Y232600
Y232100
X58975Y232100
Y232600
Y233100
X59975Y233100
Y232600
Y232100
X60975Y232100
Y232600
Y233100
X61900Y232892
X62800Y230950
Y229850
X64725Y229240
Y228740
Y228240
X65750
Y228740
Y229240
X66775
Y228740
Y228240
X67800
Y228740
Y229240
X68825
Y228740
Y228240
X69850
Y228740
Y229240
X70875
Y228740
Y228240
X79225Y228000
Y227500
X80250
Y228000
X81275
Y227500
X82225
Y228000
X83250
Y227500
X84275
Y228000
X85225
Y227500
X86250
Y228000
X87275
Y227500
X88225
Y228000
Y230500
Y231000
X87275
Y230500
X86250
Y231000
X85225
Y230500
X84275
Y231000
X83250
Y230500
X82225
Y231000
X81275
Y230500
X80250
Y231000
X79225
Y230500
X79225Y232150
Y232650
X80250
Y232150
X81275
Y232650
X82225
Y232150
X83250
Y232650
X84275
Y232150
X85475Y232100
Y232600
Y233100
X85550Y233800
Y234300
Y235300
Y235800
X85650Y236675
X86600Y237506
X87500Y235600
X88000
X88850
X88850Y234150
X88044Y234129
X87544
X86750Y234100
X86475Y233100
Y232600
Y232100
X87475Y232100
Y232600
Y233100
X88475Y233100
Y232600
Y232100
X84275Y235150
Y235650
X83250
Y235150
X82225
Y235650
X81275
Y235150
X80250
Y235650
X79225
Y235150
X89000Y239425
X88825Y241250
X60325Y241250
X60500Y239425
X61350Y239425
X62225Y238550
X62700Y237600
X62705Y237108
X63150Y237350
X62850Y236100
Y235600
X55775Y235650
Y235150
X54750
Y235650
X53725
Y235150
X52775
Y235650
X51750
Y235150
X50725
Y235650
X57455Y241450
X58245
X57455Y242350
X74575Y209450
X99400Y211550
X103075Y209450
X102652Y215400
X103548
X103100Y215900
X103548Y216400
X102652
X104514Y216150
Y215650
Y215150
X105552Y215905
X105550Y216695
X100752Y216650
Y216100
X101689Y215150
X103350Y221850
X103850
X104350
Y222875
X103850
X103350
Y223900
X103850
X104350
Y224925
X103850
X103350
Y225950
X103850
X104350
Y226975
X103850
X103350
Y228000
X103850
X104350
X104850Y229450
X105350
X105850
Y230475
X105350
X104850
Y231500
X105350
X105850
Y232525
X105350
X104850
Y233550
X105350
X105850
Y234575
X105350
X104850
Y235600
X105350
X105850
X110300Y235250
X110650Y234900
X111100Y235350
X110750Y235700
X112164Y234286
X112514Y233936
X111714Y233836
X112064Y233486
X109150Y233300
X108800Y233650
X108350Y233200
X108700Y232850
X107900Y232750
X108250Y232400
X112081Y230369
X112431Y230019
X111631Y229919
X111981Y229569
X111181Y229469
X111531Y229119
X111150Y223650
Y223150
Y222650
X112175
Y223150
Y223650
X113200
Y223150
Y222650
X114225
Y223150
Y223650
X115250
Y223150
Y222650
X116275
Y223150
Y223650
X117300
Y223150
Y222650
X122300Y222700
Y223200
Y223700
X123325
Y223200
Y222700
X124350
Y223200
Y223700
X125375
Y223200
Y222700
X126400
Y223200
Y223700
X127425
Y223200
Y222700
X128450
Y223200
Y223700
X99375Y228240
Y228740
Y229240
X98350
Y228740
Y228240
X97325
Y228740
Y229240
X96300
Y228740
Y228240
X95275
Y228740
Y229240
X94250
Y228740
Y228240
X93225
Y228740
Y229240
X91300Y229850
Y230950
X90275Y231000
Y230500
X89250
Y231000
X89475Y232100
Y232600
Y233100
X90400Y232892
X89350Y234150
X89350Y235600
X91350
Y236100
X91205Y237108
X91200Y237600
X91650Y237350
X90725Y238550
X89850Y239425
X90275Y228000
Y227500
X89250
Y228000
X103400Y240000
Y240500
Y241000
X104425
Y240500
Y240000
X105450
Y240500
Y241000
X106475
Y240500
Y240000
X107500
Y240500
Y241000
X136225Y235650
Y235150
X137250
Y235650
X138275
Y235150
X139225
Y235650
X140250
Y235150
X141275
Y235650
X142550Y235800
Y235300
Y234300
Y233800
X142475Y233100
Y232600
Y232100
X143475Y232100
Y232600
Y233100
X144475Y233100
Y232600
Y232100
X145475Y232100
Y232600
Y233100
X146475Y233100
Y232600
Y232100
X146250Y231000
Y230500
X147275
Y231000
X148300Y230950
Y229850
X150225Y229240
Y228740
Y228240
X151250
Y228740
Y229240
X152275
Y228740
Y228240
X153300
Y228740
Y229240
X154325
Y228740
Y228240
X155350
Y228740
Y229240
X156375
Y228740
Y228240
X164725Y228000
Y227500
X165750
Y228000
X166775
Y227500
X167725
Y228000
Y230500
Y231000
X166775
Y230500
X165750
Y231000
X164725
Y230500
X164725Y232150
Y232650
X165750
Y232150
X166775
Y232650
X167725
Y232150
Y235150
Y235650
X166775
Y235150
X165750
Y235650
X164725
Y235150
X148350Y235600
Y236100
X148205Y237108
X148200Y237600
X148650Y237350
X147725Y238550
X146850Y239425
X146000Y239425
X145825Y241250
X145850Y235600
X146350
X145000
X144500
X144544Y234129
X145044
X145850Y234150
X146350
X147400Y232892
X145225Y231000
Y230500
X144275
Y231000
X143250
Y230500
X142225
Y231000
X141275
Y230500
X140250
Y231000
X139225
Y230500
X138275
Y231000
X137250
Y230500
X136225
Y231000
X136225Y232150
Y232650
X137250
Y232150
X138275
Y232650
X139225
Y232150
X140250
Y232650
X141275
Y232150
X141275Y228000
Y227500
X142225
Y228000
X143250
Y227500
X144275
Y228000
X145225
Y227500
X146250
Y228000
X147275
Y227500
X140250
Y228000
X139225
Y227500
X138275
Y228000
X137250
Y227500
X136225
Y228000
X143750Y234100
X143600Y237506
X142650Y236675
X131575Y209450
X160075Y209450
X181900Y210000
Y210500
X182700
Y210000
X183600
Y210500
X184400
Y210000
Y208500
X183600
X182700
X181900
X181265Y211800
X180100Y212905
Y213695
X184900Y212145
Y211355
X185700Y212145
X185675Y209750
X186825
X186810Y210337
X188000Y210450
X188045Y211400
X188950Y211600
Y211100
X189750
Y211600
X190650
Y211100
X191450
Y211600
Y209600
Y209100
X190650
Y209600
X189750
Y209100
X188950
Y209600
X188000Y208900
X196576Y208538
X201174Y210340
X200874Y212840
X201474
X207649Y215897
Y216833
X208000Y224500
X207000
X206000
X205000Y224500
X204000Y224500
X203000
X202000
X201000Y224500
X200000Y224500
X199000
X198000
X197000Y224500
X195927Y224606
X194895Y224919
X193944Y225427
X193111Y226111
X192427Y226944
X191919Y227895
X191606Y228927
X191500Y230000
X191499Y230896
X191499Y231922
X191500Y232948
X191500Y233974
X191500Y235000
X191500Y236026
X191500Y237052
X191501Y238078
X191501Y239104
X191501Y240130
X191501Y241156
X191502Y242182
X191502Y243209
X191500Y243974
X191500Y245000
X191413Y245878
X191157Y246722
X190742Y247500
X174325Y241250
X174500Y239425
X175350Y239425
X176225Y238550
X176700Y237600
X176705Y237108
X177150Y237350
X176850Y236100
Y235600
X174850
X174350
X173500
X173000
X173044Y234129
X173544
X174350Y234150
X174850
X174975Y233100
Y232600
Y232100
X173975Y232100
Y232600
Y233100
X172975Y233100
Y232600
Y232100
X171975Y232100
Y232600
Y233100
X170975Y233100
Y232600
Y232100
X169775Y232150
Y232650
X168750
Y232150
X168750Y231000
Y230500
X169775
Y231000
X170725
Y230500
X171750
Y231000
X172775
Y230500
X173725
Y231000
X174750
Y230500
X175775
Y231000
X176800Y230950
Y229850
X178725Y229240
Y228740
Y228240
X179750
Y228740
Y229240
X180775
Y228740
Y228240
X181800
Y228740
Y229240
X182825
Y228740
Y228240
X183850
Y228740
Y229240
X184875
Y228740
Y228240
X175775Y228000
Y227500
X174750
Y228000
X173725
Y227500
X172775
Y228000
X171750
Y227500
X170725
Y228000
X169775
Y227500
X168750
Y228000
X168750Y235150
Y235650
X169775
Y235150
X171050Y235300
Y235800
X171150Y236675
X172100Y237506
X172250Y234100
X171050Y234300
Y233800
X175900Y232892
X209000Y224500
X210000Y224500
X211000Y224500
X212000Y224500
X213000
X214000
X215000
X216000Y224500
X217000Y224500
X218000
X219000
X220000
X221000Y224500
X222000
X223000
X224000
X225000
X226000
X227000Y224500
X227878Y224414
X228722Y224157
X229500Y223742
X230182Y223182
X230742Y222500
X231157Y221722
X231413Y220878
X231500Y220000
X231500Y219000
Y218000
X231500Y217000
X231500Y216000
Y215000
Y214000
Y213000
Y212000
X231500Y211000
Y210000
Y209000
X228349Y215897
X227749
Y216833
X228349
X208249
Y215897
X190182Y248182
X189500Y248742
X188722Y249157
X187878Y249414
X187000Y249500
X186000Y249500
X185000
X184000
X183000
X182000
X181000
X180000
X179000
X178000
X177000
X176000
X175000
X174000
X173000
X172000
X171000
X170000
X169000
X168000
X167000
X166000
X165000
X164000
X163000
X162000
X161000
X160000
X159000
X158000
X157000
X156000
X155000
X154000
X153000
X152000
X151000
X150000
X149000
X148000
X147000
X146000
X145000
X144000
X143000
X142000
X141000
X140000
X139000
X138000
X137000
X136000
X135000
X134000
X133000
X132000
X131000
X130000
X129000
X128000
X127000
X126000
X125000
X124000
X123000
X122000
X121000
X120000
X119000
X118000
X117000
X116000
X115000
X114000
X113000
X112000
X111000
X110000
X109000
X108000
X107000
X106000
X105000
X104000
X103000
X102000
X101000
X100000
X99000
X98000
X97000
X96000
X95000
X94000
X93000
X92000
X91000
X90000
X89000
X88000
X87000
X86000
X85000
X84000
X83000
X82000
X81000
X80000
X79000
X78000
X77000
X76000
X75000
X74000
X73000
X72000
X71000
X70000
X69000
X68000
X67000
X66000
X65000
X64000
X63000
X62000
X61000
X60000
X59000
X58000
X57000
X56000
X55000
X54000
X53000
X52000
X51000
X50000
X49000
X48000
X47000
X46000
X45000
X44000
X43000
X42000
X41000
X40000
X39000
X38000
X37000
X36000
X35000
X34000
X33000
X32000
X31000
X30000
X29000
X28000
X27000
X26000
X25000
X24000
X23000
X22000
X21000
X20000
X19000
X18000
X17000
X16000
X15000
X14000
X13000
X12000
X11000
X10000
X9000
X8000
X7000
X6000
X5000
X4122Y249414
X3278Y249157
X2500Y248742
X1818Y248182
T02
X66200Y9400
X71200Y4600
X77100Y8500
X148200Y8200
X151800Y4800
X210500Y38200
X215000Y37000
X215200Y35400
X216500Y34000
X197300Y35700
X196500Y36600
X193600Y30000
X192200Y30800
X187100Y34500
Y36000
X184000Y45200
X182500
X193300Y45400
X161600Y43500
X159600Y46500
X145900Y43200
X144800Y42100
X131050Y41750
X130450Y42250
X129850Y41750
X129250Y42250
X132900Y46000
X131350Y33550
X130750Y34050
X130150Y33550
X129550Y34050
X156000Y31300
X157400
X127750Y34050
X127150Y33550
X125950
X125350Y34050
X124750Y33550
X124150Y34050
X123550Y33550
X122350Y34050
X121750Y33550
X121150Y34050
X120550Y33550
X118750Y34050
X117550
X115750Y34050
X113950
X112150
X110350
X107497Y33002
X105900Y32600
Y31700
X104100
Y32600
X104350Y34050
X102550
X101950Y33550
X102300Y32600
Y31700
X100500
Y32600
X100150Y33550
X98700Y32600
Y31700
X96900
Y32600
X97150Y34050
X95300Y34300
X94800Y33700
X95100Y32600
Y31700
X93300
Y32600
X91500
Y31700
X89350Y34050
X89950Y37650
X90550Y38150
X91800Y38100
X91200Y37500
X89350Y38250
X92600Y39200
X95100Y40400
X95900Y41100
X96625Y42250
X97500Y42500
X100100
X100900Y42200
X102850Y42250
X103825Y42250
X104100Y41400
X102600
X105625Y42250
X107700Y41400
X106300Y38100
X105500Y37600
X103800Y37500
X100800Y37600
X96600Y37800
X93500Y34300
X93850Y42250
X93500Y45900
Y46800
X95300
Y45900
X97100
Y46800
X100702
Y45900
X102502
Y46800
X104302
Y45900
X106100
Y46800
X110650Y46450
X111250Y45950
X111850Y46450
X113050
X114250
X114850Y45950
X115450Y46450
X113650Y45450
X112450
X116050Y42250
X116650Y41750
X117250Y42750
X119050Y42250
X119650Y41750
X120850
X120300Y42600
X120200Y38500
X119300
X118200
X117100
X117550Y37750
X116300Y37800
X115700Y37200
X115100Y37700
X114300Y38200
X113900Y37450
X112200Y37400
X110900
X111500Y38000
X110000Y37900
X118826Y37811
X120550Y37750
X122950Y37750
X126500Y34300
X127500Y40400
X128700
X128050Y42250
X126800Y41900
X126000Y42000
X125650Y45950
X125050Y46450
X124450Y45450
X122650
X122050Y46450
X121450Y45950
X90850
X90250Y46450
X89650Y45450
X91450Y46950
X87500Y46700
X87850Y45950
X85977Y46950
X84900Y46500
X84454Y47229
X83754Y47229
X83393Y47866
X84807
X83400Y46400
X82944Y45700
X84023Y45448
X81850Y45950
X80623
X80050Y46450
X79450Y45950
X77650
X77325Y46800
X75850Y46950
X75250Y45950
X74650Y46450
X74100Y45900
X72700Y45800
X72100Y46400
X71050Y46450
X70500Y45600
X69200
X69100Y46600
X72700Y47300
X73554Y47929
X74254Y47929
X74607Y48566
X73193
X72400Y42500
X71600
X70100Y41600
Y41000
X68500Y40800
X67900Y40400
Y39500
X68500Y39100
X70100Y38900
Y38300
X70500Y37500
X71300Y37600
X71900Y38100
X73046Y38171
X73746Y38171
X74107Y37534
X74900Y38100
X75500Y37600
X76000Y38500
X76750Y37950
X77350Y37450
X78550
X79750
X80350Y37950
X80950Y37450
X81550Y37950
X82150Y37450
X82893Y37534
X83246Y38171
X83946Y38171
X84307Y37534
X85150Y37450
X85750Y37950
X86350Y37450
X86950Y38150
X87550Y37650
X88150Y38250
X88750Y37650
X88150Y34050
X86350Y33550
X84550Y34050
X82750
X80950Y33550
X79150Y34050
X77950
X76150Y33550
X74350Y34050
X72550
X70750Y33550
X70150Y34050
X69550Y33550
X68950Y34050
X71500Y31600
Y30900
X74900
Y31600
X78300
Y30900
Y29600
Y28900
X75900Y25650
X75100
X74300
Y24650
X75100
X75900
X76700Y23500
Y22700
X74400Y22400
X73528Y23750
X72693Y37534
X77950Y38250
X79150Y38250
X76400Y41000
Y41900
X82800
X82400Y42600
X84500Y42100
X86800Y42000
Y40900
X81200Y47100
X57000Y48200
X53600
X49755Y46100
X49730Y45200
X49755Y44300
X55600Y43500
X53100Y40900
X52000Y36700
Y34600
X52200Y24500
X57700Y18200
X62300Y13600
X48000Y20800
X47100Y27100
X41700Y27300
X39400Y29300
X35200Y29200
X30200
X31550Y33100
X32500Y33100
X31500Y40400
X33100Y41500
Y44500
X34475Y44475
X33200Y46800
Y48400
X35800Y48000
X37900Y48800
Y46400
Y44000
X37900Y41600
X41100
X41100Y43600
Y46800
X41100Y48800
X44000Y47800
X45000
X46000
X46800Y47200
X46800Y43200
X46000Y42600
X45000
X44000
X30100Y42800
X29500Y43600
X30100Y44400
X29500Y45200
X30100Y46000
X29500Y46800
X30100Y47600
X29500Y48400
X28100Y48500
X29500Y42000
Y41200
X22900Y33400
X14700Y33700
X12000Y31800
X4100Y60700
X9200Y79200
X19300Y79400
X28900
X29500Y73400
X30100Y72600
X29500Y71800
X30100Y71000
X29500Y70200
X30100Y69400
X29500Y68600
X30100Y67800
X29500Y67000
Y66200
X31500Y65400
X33100Y66500
Y69500
X34475Y69475
X33200Y71800
Y73400
X35800Y73000
X37900Y73800
Y71400
Y69000
X37900Y66600
X41100
X41100Y68600
Y71800
X41100Y73800
X44000Y72600
X45000Y72800
X46000
X46800Y72200
X46800Y68200
X46000Y67600
X45000
X44000Y67400
X40100Y59100
X35700Y60900
X45000Y54200
X38500Y79400
X28100Y73500
X18800Y60700
X14900
X12700
X14900Y85600
X51500Y88600
X54100
X54000Y79600
X51400Y81400
X50200Y76200
X49755Y71100
X49730Y70200
X49755Y69300
X50950Y64113
X54200Y66700
X57100Y65300
X57300Y69200
X59500Y67700
X59600Y71400
X61500Y69900
X70100Y69800
X70200Y67400
X65800Y62800
X61000Y57200
X57200Y57900
X53800
X51300
X49400Y56400
X61050Y50550
X98800Y77100
X99600
X100400
Y80100
X99600
X98800
X157400Y70300
X160400Y72000
X159900Y67700
X162800Y69500
X166400Y66100
X162900Y60000
X159900Y60100
X169200Y72000
X173900Y72200
X174000Y70200
X176700Y70300
Y66100
X182500Y62900
X184000
Y53900
X182500
X193500Y53000
X198254Y59170
X202300Y59600
X202900Y62100
X205600
X198900Y68700
X197200Y68800
X199600Y79700
X202700Y81800
X197300Y83000
X202000Y88800
X189100Y85900
X184100Y79400
X182500Y78000
Y72500
X184000
X176600Y76200
X209400Y75100
Y73400
Y71800
X218000Y74100
X213800Y62400
X219500Y88500
X228500Y86000
X222800Y89300
X223100Y91300
X214300Y106300
X214400Y110100
X210800Y112000
X208939Y112900
Y114100
Y115300
Y116500
Y117700
Y118900
Y120100
Y121300
Y122500
X208900Y123700
X212900Y117000
X221100Y118100
X221900Y115900
X208900Y110500
X206400
Y111700
Y109300
Y108100
X206900Y107220
X203800Y104700
X199200Y104900
X193200Y103800
X193800Y98600
X191900Y98200
X197300Y98600
X197400Y91500
X189600Y91800
X208091Y112900
Y114100
Y115300
Y116500
Y120100
Y121300
Y122500
Y123700
Y124900
X206200Y125800
X177500Y127700
X171000
X149000Y125800
X141000Y117600
X136400
X128900Y126200
X129900Y93800
X130700
X131500
Y90800
X130700
X129900
X146400Y93100
X148934Y93985
X147800Y96100
X150757Y92101
X152000Y89600
X142300Y105500
X87200Y106400
Y104400
Y101500
Y99900
Y97900
X86310Y96084
X86300Y108300
Y113600
X81300Y112200
X81500Y116500
X78000
X77900Y114000
X73100
X71100Y114100
X71067Y115983
X73000Y116000
X74100Y127625
X75000Y127600
X75900Y127625
X86200Y121400
X88400Y119400
X68500Y102000
Y98000
X64500Y104400
X59200Y100400
X51600Y98700
Y95900
X49755Y96100
X49730Y95200
X49755Y94300
X51500Y90800
X54100
X62678Y92519
X56600Y112000
X53800Y111600
X49755Y119300
X49730Y120200
X49755Y121100
X52000Y124600
X56100Y127625
X57000Y127600
X57900Y127625
X46800Y122200
X46000Y122800
X45000
X44000
X41100Y123800
X41100Y121800
Y118600
X41100Y116600
X37900
X37900Y119000
Y121400
Y123800
X35800Y123000
X33200Y123400
Y121800
X33100Y119500
X34475Y119475
X33100Y116500
X31500Y115400
X29500Y116200
Y117000
X30100Y117800
X29500Y118600
X30100Y119400
X29500Y120200
X30100Y121000
X29500Y121800
X30100Y122600
X29500Y123400
X28100Y123500
X11900Y120000
X14800Y112600
X19200Y104100
X28700
X30400
X29500Y98400
X30100Y97600
X29500Y96800
X30100Y96000
X29500Y95200
X30100Y94400
X29500Y93600
X30100Y92800
X29500Y92000
Y91200
X31500Y90400
X33100Y91500
Y94500
X34475Y94475
X33200Y96800
Y98400
X35800Y98000
X37900Y98800
Y96400
Y94000
X37900Y91600
X41100
X41100Y93600
Y96800
X41100Y98800
X44000Y97800
X45000
X46000
X46800Y97200
X46800Y93200
X46000Y92600
X45000
X44000
X47700Y101600
X41300Y104900
X38600Y110700
X44000Y117600
X45000
X46000
X46800Y118200
X28100Y98500
X9300Y104200
X5300Y105600
X5800Y112600
X9100Y119700
Y129300
Y137200
X5500Y138000
Y147600
Y157200
Y166800
X14400Y164000
X14200Y157300
Y150100
X13800Y136900
X11900Y138100
X13900Y129000
X41800Y137300
X41205Y144525
X41202Y145728
X41205Y146925
Y148125
X41200Y149330
X37700Y151100
X37300Y142700
X32800Y146700
X32600Y155600
X35800Y158700
X37800Y164900
X41205Y167385
X34800Y167800
X47800Y167800
X47800Y166600
Y165400
Y164200
Y163200
X45400Y159400
X47800Y149400
Y148540
Y147340
Y146140
X47800Y144940
X47800Y143740
Y142540
Y141340
Y140340
X51600Y138200
X57900Y140500
X59100
X60250Y140450
X64250
X65750
X67250
X68750
X70250
X71750
X74900Y140500
X76100
X76500Y142325
X81800Y136800
X75900Y130625
X75000Y130600
X74100Y130625
X57900
X57000Y130600
X56100Y130625
X57300Y143600
X66400
X69500Y147900
X67725Y159425
X57100Y159400
X57000Y166100
X62500Y164900
X51400Y160700
X77875Y165000
X85175Y157650
X93775Y149100
X100011Y165023
X121200Y134700
X126100Y130000
X137200Y146600
X146300Y146400
X142100Y151700
X133000Y153500
X132700Y168100
X145900Y160400
X153400Y156300
X155900Y158500
X160300Y163100
X162300Y165200
X165300Y163400
Y161300
Y159100
X165292Y156967
X165300Y154800
X165400Y152800
X165413Y150712
X165400Y148500
X165500Y144800
X165400Y138200
X166700Y135955
Y134544
Y133133
Y131687
Y130400
X162700Y139600
X168500Y141800
X169400Y144600
Y149600
X181300Y148800
Y151700
Y154300
X180300Y155900
X180310Y157191
X180300Y158800
Y160300
Y161800
Y163300
X180272Y164850
X189700Y163500
X192663Y160247
X193724Y161308
X194963Y158978
Y157564
X196377
X197792
X197085Y156857
X195670
X194963Y156150
X196377
X195670Y155443
Y158271
X196377Y158978
X195670Y159685
X197085Y158271
X194256
X193549Y157564
X194256Y156857
X191497Y157554
X191197Y155454
X191056Y154212
X193017Y154625
X194197Y153054
X196597
X197206Y153563
X198797Y155354
X199897Y155854
X200187Y156754
X200497Y154054
X201797Y153454
X203200Y154900
X205125Y160200
X198497Y160154
X196871Y162015
X197914Y164596
X197697Y166954
X198596Y167954
X199397Y167654
X195636Y168343
X194397Y166110
X204400Y167900
X199000Y149600
X192800Y151700
X189300
Y148600
X189200Y154900
X178200Y136100
X177500Y130600
X181100
X170082Y131689
X169446Y132043
Y132743
Y133457
Y134157
Y134871
Y135571
X170082Y135932
Y134518
Y133104
X169400Y131100
X170100Y128800
X221099Y155687
X229200Y155700
X226022Y167912
X216422
X212097Y177254
X208497Y180154
X204897Y178654
X203400Y176700
X206397Y173554
X206797Y173254
X202499Y169293
X200019Y171733
X197757Y170464
X197050Y169757
X196343Y169050
X194929
X194222Y169757
X193515Y170464
X194222Y171171
X194929Y171878
X195636Y172585
X196343Y171878
X197050Y171171
X196343Y170464
X195636Y169757
X194929Y170464
X195636Y171171
X191197Y171454
X192497Y168454
X193970Y176354
X196547Y179254
X197897Y173854
X198100Y184500
X196100Y187000
X201900Y181400
X206000Y185300
X183600Y184800
X180800Y182200
X180827Y175077
X175000Y169200
X183600Y194400
X183100Y204600
X183830Y206268
X192800Y204700
X195600Y204100
X196600Y199000
X143900Y182900
X142700Y181400
X132300Y179000
X134100Y176300
X147900Y168700
X93421Y171519
X88100Y177300
X82600Y182500
X78695Y182553
X72525Y177425
X76325Y171950
X58475Y168500
X60350Y186300
X49775Y186425
X46675Y189550
X46900Y197200
Y206800
X42000Y182675
X39900Y176900
X37700Y173960
X41200Y172190
X41205Y170985
Y169785
X41202Y168588
X47800Y169000
Y170200
Y171400
Y172260
X31900Y171600
X32000Y177400
X20500Y177500
X15900Y172800
X13000Y182500
X18800Y186575
X28400
X38000
X6700Y176300
X9075Y213650
X15200Y211300
X24800
X34400
X35550Y219050
X39900Y214875
X45500Y217900
X38625Y225350
X34325Y229950
X29975Y234225
X24975
X20500
X106000Y246300
X202200Y219600
X199200Y210700
X193600
T03
X213777Y79554
X214932
X216087
X217242Y79554
X218398Y79554
X219552
X220708Y79554
X221863Y79554
X223018
X222440Y80554
X221286
X220130
X218975
X217819
X216665
X215510
X214354
X213199
X223596
X223017Y160554
X221862Y160554
X220707
X219552
X218397
X217242
X216087
X214932
X213777
X214354Y161554
X215509
X216664Y161554
X217819Y161554
X218975
X220130
X221285Y161554
X222440Y161554
X223595
X213199
X213777Y175554
X214932Y175554
X216087Y175554
X217242
X218397Y175554
X219552Y175554
X220707
X221862Y175554
X223017Y175554
X222440Y176554
X221285Y176554
X220130
X218975Y176554
X217819
X216664Y176554
X215509
X214354Y176554
X213199
X223595
T05
X35090Y32930
Y34200
X36360
X36360Y32930
X37630Y32930
Y34200
X38900Y34200
X40170
Y32930
X38900
X216234Y58148
X217734Y58648
X219434Y58148
X220934Y58648
Y61148
Y63148
Y65648
X219434Y66148
Y64148
Y62148
Y60148
X217734Y61148
Y63148
Y65648
X216234Y66148
Y64148
Y62148
Y60148
T06
X105713Y157313
X108187Y159787
X116241Y160300
Y156800
X126769Y157313
X124295Y159787
X169519Y189113
X167045Y191587
X158991Y192100
Y188600
X150937Y191587
X148463Y189113
X141019Y189113
X138545Y191587
X130491Y192100
Y188600
X122437Y191587
X119963Y189113
X112519Y189113
X110045Y191587
X101991Y192100
Y188600
X93937Y191587
X91463Y189113
X84019
X81545Y191587
X73491Y192100
Y188600
X65437Y191587
X62963Y189113
X48713Y220913
X51187Y223387
X59241Y223900
Y220400
X67295Y223387
X69769Y220913
X77213
X79687Y223387
X87741Y223900
Y220400
X95795Y223387
X98269Y220913
X134213Y220913
X136687Y223387
X144741Y223900
Y220400
X152794Y223387
X155269Y220913
X162713
X165187Y223387
X173241Y223900
Y220400
X181294Y223387
X183769Y220913
T07
X109700Y176500
X106164Y180036
X126336
X122800Y176500
X5219Y222450
Y224490
Y226530
X5219Y228570
X3439Y227550
Y225510
Y223470
Y221430
X10019Y220430
Y218140
Y229570
Y231860
X49164Y243636
X52700Y240100
X65800
X69336Y243636
X77664Y243636
X81200Y240100
X83586Y211836
X80050Y208300
X66950
X63414Y211836
X91914Y211836
X95450Y208300
X108550
X112086Y211836
X112086Y219682
X108550Y223218
X120414Y223218
X123950Y219682
X120414Y211836
X123950Y208300
X97836Y243636
X94300Y240100
X134664Y243636
X138200Y240100
X151300
X154835Y243636
X163164Y243636
X166700Y240100
X165550Y208300
X152450
X148914Y211836
X140586Y211836
X137050Y208300
X169085Y211836
X179800Y240100
X183335Y243636
T09
X180690Y4000
X183230Y4000
X185770Y4000
X188310
X188310Y12000
X185770
X183230
X180690
X110777Y240579
X106323Y237821
X191240Y221000
X193780
X196320
X198860
T10
X45095Y7190
X212500Y40180
Y42720
Y45260
Y47800
X155200Y29090
Y26550
Y24010
Y21470
X45095Y14810
Y12270
Y9730
X39600Y37870
X29600
X24600Y41050
X24600Y46450
X19600Y37870
X9600
X4600Y43550
X4600Y52130
X9600Y62870
X4600Y68550
X4600Y77130
X9600Y87870
X19600
X29600
X39600
X34600Y77130
X24600
Y71450
Y66050
X29600Y62870
X39600
X34600Y52130
X24600
X14600
X19600Y62870
X14600Y77130
X24600Y91050
X24600Y96450
Y102130
X34600
X29600Y112870
X24600Y116050
X24600Y121450
Y127130
X34600
X39600Y112870
X19600
X14600Y102130
Y127130
X4600
Y118550
X9600Y112870
X4600Y102130
Y93550
T11
X4459Y216800
Y233200
X118600Y233900
X122800Y233900
X127000Y233900
X127000Y228400
X122800
X118600
T12
X217254Y55578
X222934
Y68718
X217254
T13
X17000Y146140
X51000
Y169000
Y191860
X17000
Y169000
T14
X67000Y56100
Y76100
X175000Y96000
X208000Y96000
X67000Y94100
X175000Y144000
X208000Y144000
T15
X212000Y30000
X17500Y10000
X93000Y68000
X137000
Y112000
X93000
X25000Y150000
X120000Y145000
X212000Y138000
X17500Y244500
X212000Y220000
M30
