M48
;Layer_Color=9474304
;FILE_FORMAT=4:3
METRIC,TZ
;TYPE=NON_PLATED
T16F00S00C0.750
T17F00S00C1.000
T18F00S00C1.050
T19F00S00C1.100
T20F00S00C1.150
T21F00S00C1.200
T22F00S00C1.600
T23F00S00C1.650
T24F00S00C1.750
T25F00S00C1.800
T26F00S00C3.200
%
T16
X56793Y12344
T17
X228500Y33858
Y45358
X41700Y45000
Y40200
X37100Y37870
X32100Y37870
X27400Y37870
X27400Y52130
X32100Y52130
X37100Y52130
X41700Y49800
Y65200
Y70000
X41700Y74800
X37100Y77130
X32100Y77130
X27400Y77130
Y87870
X32100
X37100
Y62870
X32100Y62870
X27400Y62870
X227975Y99500
X227975Y107500
X41700Y99800
Y95000
Y90200
X37100Y102130
X32100
X27400
X27400Y112870
X32100
X37100
X41700Y115200
Y120000
Y124800
X37100Y127130
X32100
X27400
T18
X54106Y9656
T19
X180690Y1770
Y9770
X57000Y134600
X198860Y223230
T20
X66600Y40000
T21
X163100Y8900
X173100
X220900Y33858
Y45358
T22
X35500Y40200
Y49800
Y65200
Y74800
Y90200
Y99800
Y115200
Y124800
X77000Y134600
T23
X133400Y40000
T24
X204189Y189390
Y212190
T25
X212245Y78054
X225495Y81554
X225495Y162554
X212245Y159054
X212245Y174054
X225495Y177554
T26
X899Y218650
X899Y231350
M30
