G04*
G04 #@! TF.GenerationSoftware,Altium Limited,Altium Designer,22.10.1 (41)*
G04*
G04 Layer_Color=32896*
%FSLAX43Y43*%
%MOMM*%
G71*
G04*
G04 #@! TF.SameCoordinates,B9F26087-2B66-42AB-B32E-372D1BB95FEE*
G04*
G04*
G04 #@! TF.FilePolarity,Positive*
G04*
G01*
G75*
%ADD10C,0.250*%
%ADD11C,0.200*%
%ADD18R,0.200X1.600*%
%ADD19R,0.200X0.600*%
%ADD23R,1.600X0.200*%
%ADD24R,0.300X0.750*%
%ADD25R,0.750X0.300*%
%ADD28R,0.600X0.200*%
%ADD358R,0.100X0.950*%
G04:AMPARAMS|DCode=359|XSize=0.25mm|YSize=1.55mm|CornerRadius=0mm|HoleSize=0mm|Usage=FLASHONLY|Rotation=315.000|XOffset=0mm|YOffset=0mm|HoleType=Round|Shape=Rectangle|*
%AMROTATEDRECTD359*
4,1,4,-0.636,-0.460,0.460,0.636,0.636,0.460,-0.460,-0.636,-0.636,-0.460,0.0*
%
%ADD359ROTATEDRECTD359*%

G04:AMPARAMS|DCode=360|XSize=0.75mm|YSize=0.3mm|CornerRadius=0mm|HoleSize=0mm|Usage=FLASHONLY|Rotation=135.000|XOffset=0mm|YOffset=0mm|HoleType=Round|Shape=Rectangle|*
%AMROTATEDRECTD360*
4,1,4,0.371,-0.159,0.159,-0.371,-0.371,0.159,-0.159,0.371,0.371,-0.159,0.0*
%
%ADD360ROTATEDRECTD360*%

%ADD361R,0.200X0.400*%
%ADD362R,0.400X0.200*%
G04:AMPARAMS|DCode=363|XSize=0.2mm|YSize=0.6mm|CornerRadius=0mm|HoleSize=0mm|Usage=FLASHONLY|Rotation=135.000|XOffset=0mm|YOffset=0mm|HoleType=Round|Shape=Rectangle|*
%AMROTATEDRECTD363*
4,1,4,0.283,0.141,-0.141,-0.283,-0.283,-0.141,0.141,0.283,0.283,0.141,0.0*
%
%ADD363ROTATEDRECTD363*%

G36*
X201538Y153246D02*
X200442Y152150D01*
X200106Y153582D01*
X201538Y153246D01*
D02*
G37*
G36*
X200265Y151973D02*
X199169Y150877D01*
X198833Y152309D01*
X200265Y151973D01*
D02*
G37*
D10*
X141550Y165985D02*
G03*
X141550Y165985I-125J0D01*
G01*
X145150D02*
G03*
X145150Y165985I-125J0D01*
G01*
X54000Y50850D02*
G03*
X54000Y50850I-50J0D01*
G01*
X34860Y123625D02*
G03*
X34860Y123625I-125J0D01*
G01*
Y98625D02*
G03*
X34860Y98625I-125J0D01*
G01*
Y73625D02*
G03*
X34860Y73625I-125J0D01*
G01*
Y48625D02*
G03*
X34860Y48625I-125J0D01*
G01*
D11*
X141750Y163990D02*
Y165090D01*
Y163990D02*
X142525D01*
X144750D02*
Y165090D01*
X143975Y163990D02*
X144750D01*
X145350D02*
Y165090D01*
Y163990D02*
X146125D01*
X148350D02*
Y165090D01*
X147575Y163990D02*
X148350D01*
X32740Y123300D02*
X33840Y123300D01*
X32740Y122525D02*
Y123300D01*
Y120300D02*
X33840Y120300D01*
X32740Y120300D02*
Y121075D01*
Y98300D02*
X33840Y98300D01*
X32740Y97525D02*
Y98300D01*
Y95300D02*
X33840Y95300D01*
X32740Y95300D02*
Y96075D01*
Y73300D02*
X33840Y73300D01*
X32740Y72525D02*
Y73300D01*
Y70300D02*
X33840Y70300D01*
X32740Y70300D02*
Y71075D01*
Y48300D02*
X33840Y48300D01*
X32740Y47525D02*
Y48300D01*
Y45300D02*
X33840Y45300D01*
X32740Y45300D02*
Y46075D01*
D18*
X112900Y170300D02*
D03*
X110600D02*
D03*
X109900D02*
D03*
X107600D02*
D03*
X116600Y165650D02*
D03*
X118900D02*
D03*
X113600Y165650D02*
D03*
X115900D02*
D03*
X107600Y165650D02*
D03*
X109900D02*
D03*
X110600Y165650D02*
D03*
X112900D02*
D03*
X136100Y229250D02*
D03*
X138400D02*
D03*
X139100D02*
D03*
X141400D02*
D03*
X142100D02*
D03*
X144400D02*
D03*
X145100D02*
D03*
X147400D02*
D03*
X138400Y233900D02*
D03*
X136100D02*
D03*
X141400Y233900D02*
D03*
X139100D02*
D03*
X150350Y197450D02*
D03*
X152650D02*
D03*
X153350D02*
D03*
X155650D02*
D03*
X156350D02*
D03*
X158650D02*
D03*
X159350D02*
D03*
X161650D02*
D03*
X152650Y202100D02*
D03*
X150350D02*
D03*
X155650Y202100D02*
D03*
X153350D02*
D03*
X167600Y233900D02*
D03*
X169900D02*
D03*
X164600Y229250D02*
D03*
X166900D02*
D03*
X167600D02*
D03*
X169900D02*
D03*
X170600D02*
D03*
X172900D02*
D03*
X173600Y229250D02*
D03*
X175900D02*
D03*
X166900Y233900D02*
D03*
X164600D02*
D03*
X121850Y197450D02*
D03*
X124150D02*
D03*
X124850D02*
D03*
X127150D02*
D03*
X127850D02*
D03*
X130150D02*
D03*
X130850D02*
D03*
X133150D02*
D03*
X124150Y202100D02*
D03*
X121850D02*
D03*
X127150Y202100D02*
D03*
X124850D02*
D03*
X95650Y197450D02*
D03*
X93350D02*
D03*
X96350Y197450D02*
D03*
X98650D02*
D03*
X99350Y197450D02*
D03*
X101650D02*
D03*
X102350D02*
D03*
X104650D02*
D03*
X95650Y202100D02*
D03*
X93350D02*
D03*
X98650Y202100D02*
D03*
X96350D02*
D03*
X79100Y229250D02*
D03*
X81400D02*
D03*
X82100D02*
D03*
X84400D02*
D03*
X85100D02*
D03*
X87400D02*
D03*
X88100D02*
D03*
X90400D02*
D03*
X81400Y233900D02*
D03*
X79100D02*
D03*
X84400D02*
D03*
X82100D02*
D03*
X64850Y197450D02*
D03*
X67150D02*
D03*
X67850D02*
D03*
X70150D02*
D03*
X70850D02*
D03*
X73150D02*
D03*
X73850Y197450D02*
D03*
X76150D02*
D03*
X67150Y202100D02*
D03*
X64850D02*
D03*
X70150Y202100D02*
D03*
X67850D02*
D03*
X50600Y229250D02*
D03*
X52900D02*
D03*
X53600D02*
D03*
X55900D02*
D03*
X56600D02*
D03*
X58900D02*
D03*
X59600D02*
D03*
X61900D02*
D03*
X52900Y233900D02*
D03*
X50600D02*
D03*
X55900Y233900D02*
D03*
X53600D02*
D03*
X100750Y78600D02*
D03*
X98450Y78600D02*
D03*
X129050Y106600D02*
D03*
X126750Y106600D02*
D03*
X129550Y92300D02*
D03*
X131850Y92300D02*
D03*
X210947Y161254D02*
D03*
X208647Y161254D02*
D03*
D19*
X67675Y38300D02*
D03*
X68725D02*
D03*
X67675Y41600D02*
D03*
X68725D02*
D03*
D23*
X142200Y158950D02*
D03*
Y156650D02*
D03*
Y155950D02*
D03*
Y153650D02*
D03*
X137550Y167000D02*
D03*
Y164700D02*
D03*
X137550Y169900D02*
D03*
Y167600D02*
D03*
X98901Y41550D02*
D03*
Y39250D02*
D03*
D24*
X113801Y88500D02*
D03*
X100100Y100499D02*
D03*
D25*
X116250Y171200D02*
D03*
X117600Y171200D02*
D03*
X144750Y234800D02*
D03*
X146100Y234800D02*
D03*
X159000Y203000D02*
D03*
X160350D02*
D03*
X173250Y234800D02*
D03*
X174600Y234800D02*
D03*
X131850Y203000D02*
D03*
X130500D02*
D03*
X103400Y203000D02*
D03*
X102000D02*
D03*
X87750Y234800D02*
D03*
X89100Y234800D02*
D03*
X73500Y203000D02*
D03*
X74850Y203000D02*
D03*
X59250Y234800D02*
D03*
X60600Y234800D02*
D03*
X101500Y89700D02*
D03*
X101700Y93800D02*
D03*
X107700Y104900D02*
D03*
D28*
X138150Y157875D02*
D03*
Y158925D02*
D03*
X137050Y164075D02*
D03*
Y163025D02*
D03*
X98800Y37575D02*
D03*
X98800Y38625D02*
D03*
D358*
X204950Y198350D02*
D03*
X204950Y199550D02*
D03*
X204950Y201350D02*
D03*
X33800Y117400D02*
D03*
X33800Y118600D02*
D03*
X33800Y93600D02*
D03*
X33800Y92400D02*
D03*
Y68600D02*
D03*
X33800Y67400D02*
D03*
X33800Y42400D02*
D03*
X33800Y43600D02*
D03*
D359*
X198745Y152398D02*
D03*
X200017Y153670D02*
D03*
D360*
X191498Y154654D02*
D03*
X193176Y156269D02*
D03*
D361*
X50050Y50550D02*
D03*
X50050Y54650D02*
D03*
X54350Y54650D02*
D03*
Y50550D02*
D03*
D362*
X50150Y50450D02*
D03*
X50150Y54750D02*
D03*
X54250Y54750D02*
D03*
X54250Y50450D02*
D03*
D363*
X191869Y157283D02*
D03*
X191126Y158025D02*
D03*
M02*
