G04*
G04 #@! TF.GenerationSoftware,Altium Limited,Altium Designer,22.10.1 (41)*
G04*
G04 Layer_Color=128*
%FSLAX43Y43*%
%MOMM*%
G71*
G04*
G04 #@! TF.SameCoordinates,B9F26087-2B66-42AB-B32E-372D1BB95FEE*
G04*
G04*
G04 #@! TF.FilePolarity,Positive*
G04*
G01*
G75*
%ADD39R,0.480X0.380*%
%ADD41R,0.380X0.480*%
%ADD42R,0.650X0.950*%
%ADD45R,2.500X1.000*%
%ADD52R,0.950X0.650*%
%ADD53R,1.250X1.000*%
%ADD63R,1.000X2.500*%
%ADD65R,0.360X0.410*%
%ADD68R,0.630X0.800*%
%ADD75R,0.410X0.360*%
%ADD80R,0.750X0.800*%
%ADD90R,1.000X1.250*%
G04:AMPARAMS|DCode=135|XSize=0.48mm|YSize=0.38mm|CornerRadius=0mm|HoleSize=0mm|Usage=FLASHONLY|Rotation=45.000|XOffset=0mm|YOffset=0mm|HoleType=Round|Shape=Rectangle|*
%AMROTATEDRECTD135*
4,1,4,-0.035,-0.304,-0.304,-0.035,0.035,0.304,0.304,0.035,-0.035,-0.304,0.0*
%
%ADD135ROTATEDRECTD135*%

G04:AMPARAMS|DCode=136|XSize=0.48mm|YSize=0.38mm|CornerRadius=0mm|HoleSize=0mm|Usage=FLASHONLY|Rotation=135.000|XOffset=0mm|YOffset=0mm|HoleType=Round|Shape=Rectangle|*
%AMROTATEDRECTD136*
4,1,4,0.304,-0.035,0.035,-0.304,-0.304,0.035,-0.035,0.304,0.304,-0.035,0.0*
%
%ADD136ROTATEDRECTD136*%

%ADD138R,0.800X0.630*%
%ADD329R,2.500X2.500*%
%ADD342R,0.650X0.900*%
G04:AMPARAMS|DCode=343|XSize=0.91mm|YSize=1.22mm|CornerRadius=0mm|HoleSize=0mm|Usage=FLASHONLY|Rotation=315.000|XOffset=0mm|YOffset=0mm|HoleType=Round|Shape=Rectangle|*
%AMROTATEDRECTD343*
4,1,4,-0.753,-0.110,0.110,0.753,0.753,0.110,-0.110,-0.753,-0.753,-0.110,0.0*
%
%ADD343ROTATEDRECTD343*%

G04:AMPARAMS|DCode=344|XSize=0.55mm|YSize=1mm|CornerRadius=0mm|HoleSize=0mm|Usage=FLASHONLY|Rotation=225.000|XOffset=0mm|YOffset=0mm|HoleType=Round|Shape=Rectangle|*
%AMROTATEDRECTD344*
4,1,4,-0.159,0.548,0.548,-0.159,0.159,-0.548,-0.548,0.159,-0.159,0.548,0.0*
%
%ADD344ROTATEDRECTD344*%

%ADD345R,0.250X0.600*%
%ADD346R,0.600X0.250*%
G04:AMPARAMS|DCode=348|XSize=0.8mm|YSize=0.63mm|CornerRadius=0mm|HoleSize=0mm|Usage=FLASHONLY|Rotation=315.000|XOffset=0mm|YOffset=0mm|HoleType=Round|Shape=Rectangle|*
%AMROTATEDRECTD348*
4,1,4,-0.506,0.060,-0.060,0.506,0.506,-0.060,0.060,-0.506,-0.506,0.060,0.0*
%
%ADD348ROTATEDRECTD348*%

G04:AMPARAMS|DCode=349|XSize=1mm|YSize=1.25mm|CornerRadius=0mm|HoleSize=0mm|Usage=FLASHONLY|Rotation=225.000|XOffset=0mm|YOffset=0mm|HoleType=Round|Shape=Rectangle|*
%AMROTATEDRECTD349*
4,1,4,-0.088,0.795,0.795,-0.088,0.088,-0.795,-0.795,0.088,-0.088,0.795,0.0*
%
%ADD349ROTATEDRECTD349*%

G36*
X117750Y144600D02*
X117787Y144430D01*
X117899Y144101D01*
X118060Y143792D01*
X118266Y143512D01*
X118512Y143266D01*
X118792Y143060D01*
X119101Y142899D01*
X119430Y142787D01*
X119600Y142750D01*
X119600Y141550D01*
X119600Y141550D01*
X119310Y141584D01*
X118750Y141746D01*
X118226Y142000D01*
X117750Y142338D01*
X117338Y142750D01*
X117000Y143226D01*
X116746Y143751D01*
X116584Y144310D01*
X116550Y144600D01*
X117750Y144600D01*
Y144600D01*
D02*
G37*
G36*
X123450Y144600D02*
Y144600D01*
X123416Y144310D01*
X123254Y143750D01*
X123000Y143225D01*
X122662Y142750D01*
X122250Y142338D01*
X121774Y142000D01*
X121249Y141746D01*
X120690Y141584D01*
X120400Y141550D01*
Y142750D01*
X120400D01*
X120570Y142787D01*
X120899Y142899D01*
X121208Y143060D01*
X121488Y143266D01*
X121734Y143512D01*
X121940Y143792D01*
X122101Y144101D01*
X122213Y144430D01*
X122250Y144600D01*
X123450Y144600D01*
D02*
G37*
G36*
X211600Y140250D02*
X211600D01*
Y140250D01*
X211430Y140213D01*
X211101Y140101D01*
X210792Y139940D01*
X210512Y139734D01*
X210266Y139488D01*
X210060Y139208D01*
X209899Y138899D01*
X209787Y138570D01*
X209750Y138400D01*
X208550Y138400D01*
X208550D01*
X208584Y138690D01*
X208746Y139250D01*
X209000Y139774D01*
X209338Y140250D01*
X209750Y140662D01*
X210226Y141000D01*
X210751Y141254D01*
X211310Y141416D01*
X211600Y141450D01*
X211600Y140250D01*
D02*
G37*
G36*
X212690Y141416D02*
X213250Y141254D01*
X213774Y141000D01*
X214250Y140662D01*
X214662Y140250D01*
X215000Y139774D01*
X215254Y139249D01*
X215416Y138690D01*
X215450Y138400D01*
X214250D01*
Y138400D01*
X214250Y138400D01*
X214213Y138570D01*
X214101Y138899D01*
X213940Y139208D01*
X213734Y139488D01*
X213488Y139734D01*
X213208Y139940D01*
X212899Y140101D01*
X212570Y140213D01*
X212400Y140250D01*
X212400Y141450D01*
X212690Y141416D01*
D02*
G37*
G36*
X209750Y137600D02*
X209787Y137430D01*
X209899Y137101D01*
X210060Y136792D01*
X210266Y136512D01*
X210512Y136266D01*
X210792Y136060D01*
X211101Y135899D01*
X211430Y135787D01*
X211600Y135750D01*
X211600Y134550D01*
X211600Y134550D01*
X211310Y134584D01*
X210750Y134746D01*
X210226Y135000D01*
X209750Y135338D01*
X209338Y135750D01*
X209000Y136226D01*
X208746Y136751D01*
X208584Y137310D01*
X208550Y137600D01*
X209750Y137600D01*
Y137600D01*
D02*
G37*
G36*
X215450Y137600D02*
Y137600D01*
X215416Y137310D01*
X215254Y136750D01*
X215000Y136226D01*
X214662Y135750D01*
X214250Y135338D01*
X213774Y135000D01*
X213249Y134746D01*
X212690Y134584D01*
X212400Y134550D01*
Y135750D01*
X212400D01*
X212570Y135787D01*
X212899Y135899D01*
X213208Y136060D01*
X213488Y136266D01*
X213734Y136512D01*
X213940Y136792D01*
X214101Y137101D01*
X214213Y137430D01*
X214250Y137600D01*
X215450Y137600D01*
D02*
G37*
G36*
X211600Y32250D02*
X211600D01*
Y32250D01*
X211430Y32213D01*
X211101Y32101D01*
X210792Y31940D01*
X210512Y31734D01*
X210266Y31488D01*
X210060Y31208D01*
X209899Y30899D01*
X209787Y30570D01*
X209750Y30400D01*
X208550Y30400D01*
X208550D01*
X208584Y30690D01*
X208746Y31250D01*
X209000Y31774D01*
X209338Y32250D01*
X209750Y32662D01*
X210226Y33000D01*
X210751Y33254D01*
X211310Y33416D01*
X211600Y33450D01*
X211600Y32250D01*
D02*
G37*
G36*
X212690Y33416D02*
X213250Y33254D01*
X213774Y33000D01*
X214250Y32662D01*
X214662Y32250D01*
X215000Y31774D01*
X215254Y31249D01*
X215416Y30690D01*
X215450Y30400D01*
X214250D01*
Y30400D01*
X214250Y30400D01*
X214213Y30570D01*
X214101Y30899D01*
X213940Y31208D01*
X213734Y31488D01*
X213488Y31734D01*
X213208Y31940D01*
X212899Y32101D01*
X212570Y32213D01*
X212400Y32250D01*
X212400Y33450D01*
X212690Y33416D01*
D02*
G37*
G36*
X209750Y29600D02*
X209787Y29430D01*
X209899Y29101D01*
X210060Y28792D01*
X210266Y28512D01*
X210512Y28266D01*
X210792Y28060D01*
X211101Y27899D01*
X211430Y27787D01*
X211600Y27750D01*
X211600Y26550D01*
X211600Y26550D01*
X211310Y26584D01*
X210750Y26746D01*
X210226Y27000D01*
X209750Y27338D01*
X209338Y27750D01*
X209000Y28226D01*
X208746Y28751D01*
X208584Y29310D01*
X208550Y29600D01*
X209750Y29600D01*
Y29600D01*
D02*
G37*
G36*
X215450Y29600D02*
Y29600D01*
X215416Y29310D01*
X215254Y28750D01*
X215000Y28226D01*
X214662Y27750D01*
X214250Y27338D01*
X213774Y27000D01*
X213249Y26746D01*
X212690Y26584D01*
X212400Y26550D01*
Y27750D01*
X212400D01*
X212570Y27787D01*
X212899Y27899D01*
X213208Y28060D01*
X213488Y28266D01*
X213734Y28512D01*
X213940Y28792D01*
X214101Y29101D01*
X214213Y29430D01*
X214250Y29600D01*
X215450Y29600D01*
D02*
G37*
G36*
X17100Y12250D02*
X17100D01*
Y12250D01*
X16930Y12213D01*
X16601Y12101D01*
X16292Y11940D01*
X16012Y11734D01*
X15766Y11488D01*
X15560Y11208D01*
X15399Y10899D01*
X15287Y10570D01*
X15250Y10400D01*
X14050Y10400D01*
X14050D01*
X14084Y10690D01*
X14246Y11250D01*
X14500Y11774D01*
X14838Y12250D01*
X15250Y12662D01*
X15726Y13000D01*
X16251Y13254D01*
X16810Y13416D01*
X17100Y13450D01*
X17100Y12250D01*
D02*
G37*
G36*
X18190Y13416D02*
X18750Y13254D01*
X19274Y13000D01*
X19750Y12662D01*
X20162Y12250D01*
X20500Y11774D01*
X20754Y11249D01*
X20916Y10690D01*
X20950Y10400D01*
X19750D01*
Y10400D01*
X19750Y10400D01*
X19713Y10570D01*
X19601Y10899D01*
X19440Y11208D01*
X19234Y11488D01*
X18988Y11734D01*
X18708Y11940D01*
X18399Y12101D01*
X18070Y12213D01*
X17900Y12250D01*
X17900Y13450D01*
X18190Y13416D01*
D02*
G37*
G36*
X15250Y9600D02*
X15287Y9430D01*
X15399Y9101D01*
X15560Y8792D01*
X15766Y8512D01*
X16012Y8266D01*
X16292Y8060D01*
X16601Y7899D01*
X16930Y7787D01*
X17100Y7750D01*
X17100Y6550D01*
X17100Y6550D01*
X16810Y6584D01*
X16250Y6746D01*
X15726Y7000D01*
X15250Y7338D01*
X14838Y7750D01*
X14500Y8226D01*
X14246Y8751D01*
X14084Y9310D01*
X14050Y9600D01*
X15250Y9600D01*
Y9600D01*
D02*
G37*
G36*
X20950Y9600D02*
Y9600D01*
X20916Y9310D01*
X20754Y8750D01*
X20500Y8226D01*
X20162Y7750D01*
X19750Y7338D01*
X19274Y7000D01*
X18749Y6746D01*
X18190Y6584D01*
X17900Y6550D01*
Y7750D01*
X17900D01*
X18070Y7787D01*
X18399Y7899D01*
X18708Y8060D01*
X18988Y8266D01*
X19234Y8512D01*
X19440Y8792D01*
X19601Y9101D01*
X19713Y9430D01*
X19750Y9600D01*
X20950Y9600D01*
D02*
G37*
G36*
X17100Y246750D02*
X17100D01*
Y246750D01*
X16930Y246713D01*
X16601Y246601D01*
X16292Y246440D01*
X16012Y246234D01*
X15766Y245988D01*
X15560Y245708D01*
X15399Y245399D01*
X15287Y245070D01*
X15250Y244900D01*
X14050Y244900D01*
X14050D01*
X14084Y245190D01*
X14246Y245750D01*
X14500Y246274D01*
X14838Y246750D01*
X15250Y247162D01*
X15726Y247500D01*
X16251Y247754D01*
X16810Y247916D01*
X17100Y247950D01*
X17100Y246750D01*
D02*
G37*
G36*
X18190Y247916D02*
X18750Y247754D01*
X19274Y247500D01*
X19750Y247162D01*
X20162Y246750D01*
X20500Y246274D01*
X20754Y245749D01*
X20916Y245190D01*
X20950Y244900D01*
X19750D01*
Y244900D01*
X19750Y244900D01*
X19713Y245070D01*
X19601Y245399D01*
X19440Y245708D01*
X19234Y245988D01*
X18988Y246234D01*
X18708Y246440D01*
X18399Y246601D01*
X18070Y246713D01*
X17900Y246750D01*
X17900Y247950D01*
X18190Y247916D01*
D02*
G37*
G36*
X15250Y244100D02*
X15287Y243930D01*
X15399Y243601D01*
X15560Y243292D01*
X15766Y243012D01*
X16012Y242766D01*
X16292Y242560D01*
X16601Y242399D01*
X16930Y242287D01*
X17100Y242250D01*
X17100Y241050D01*
X17100Y241050D01*
X16810Y241084D01*
X16250Y241246D01*
X15726Y241500D01*
X15250Y241838D01*
X14838Y242250D01*
X14500Y242726D01*
X14246Y243251D01*
X14084Y243810D01*
X14050Y244100D01*
X15250Y244100D01*
Y244100D01*
D02*
G37*
G36*
X20950Y244100D02*
Y244100D01*
X20916Y243810D01*
X20754Y243250D01*
X20500Y242726D01*
X20162Y242250D01*
X19750Y241838D01*
X19274Y241500D01*
X18749Y241246D01*
X18190Y241084D01*
X17900Y241050D01*
Y242250D01*
X17900D01*
X18070Y242287D01*
X18399Y242399D01*
X18708Y242560D01*
X18988Y242766D01*
X19234Y243012D01*
X19440Y243292D01*
X19601Y243601D01*
X19713Y243930D01*
X19750Y244100D01*
X20950Y244100D01*
D02*
G37*
G36*
X211600Y222250D02*
X211600D01*
Y222250D01*
X211430Y222213D01*
X211101Y222101D01*
X210792Y221940D01*
X210512Y221734D01*
X210266Y221488D01*
X210060Y221208D01*
X209899Y220899D01*
X209787Y220570D01*
X209750Y220400D01*
X208550Y220400D01*
X208550D01*
X208584Y220690D01*
X208746Y221250D01*
X209000Y221774D01*
X209338Y222250D01*
X209750Y222662D01*
X210226Y223000D01*
X210751Y223254D01*
X211310Y223416D01*
X211600Y223450D01*
X211600Y222250D01*
D02*
G37*
G36*
X212690Y223416D02*
X213250Y223254D01*
X213774Y223000D01*
X214250Y222662D01*
X214662Y222250D01*
X215000Y221774D01*
X215254Y221249D01*
X215416Y220690D01*
X215450Y220400D01*
X214250D01*
Y220400D01*
X214250Y220400D01*
X214213Y220570D01*
X214101Y220899D01*
X213940Y221208D01*
X213734Y221488D01*
X213488Y221734D01*
X213208Y221940D01*
X212899Y222101D01*
X212570Y222213D01*
X212400Y222250D01*
X212400Y223450D01*
X212690Y223416D01*
D02*
G37*
G36*
X209750Y219600D02*
X209787Y219430D01*
X209899Y219101D01*
X210060Y218792D01*
X210266Y218512D01*
X210512Y218266D01*
X210792Y218060D01*
X211101Y217899D01*
X211430Y217787D01*
X211600Y217750D01*
X211600Y216550D01*
X211600Y216550D01*
X211310Y216584D01*
X210750Y216746D01*
X210226Y217000D01*
X209750Y217338D01*
X209338Y217750D01*
X209000Y218226D01*
X208746Y218751D01*
X208584Y219310D01*
X208550Y219600D01*
X209750Y219600D01*
Y219600D01*
D02*
G37*
G36*
X215450Y219600D02*
Y219600D01*
X215416Y219310D01*
X215254Y218750D01*
X215000Y218225D01*
X214662Y217750D01*
X214250Y217338D01*
X213774Y217000D01*
X213249Y216746D01*
X212690Y216584D01*
X212400Y216550D01*
Y217750D01*
X212400D01*
X212570Y217787D01*
X212899Y217899D01*
X213208Y218060D01*
X213488Y218266D01*
X213734Y218512D01*
X213940Y218792D01*
X214101Y219101D01*
X214213Y219430D01*
X214250Y219600D01*
X215450Y219600D01*
D02*
G37*
G36*
X24600Y152250D02*
X24600D01*
Y152250D01*
X24430Y152213D01*
X24101Y152101D01*
X23792Y151940D01*
X23512Y151734D01*
X23266Y151488D01*
X23060Y151208D01*
X22899Y150899D01*
X22787Y150570D01*
X22750Y150400D01*
X21550Y150400D01*
X21550D01*
X21584Y150690D01*
X21746Y151250D01*
X22000Y151774D01*
X22338Y152250D01*
X22750Y152662D01*
X23226Y153000D01*
X23751Y153254D01*
X24310Y153416D01*
X24600Y153450D01*
X24600Y152250D01*
D02*
G37*
G36*
X25690Y153416D02*
X26250Y153254D01*
X26774Y153000D01*
X27250Y152662D01*
X27662Y152250D01*
X28000Y151774D01*
X28254Y151249D01*
X28416Y150690D01*
X28450Y150400D01*
X27250D01*
Y150400D01*
X27250Y150400D01*
X27213Y150570D01*
X27101Y150899D01*
X26940Y151208D01*
X26734Y151488D01*
X26488Y151734D01*
X26208Y151940D01*
X25899Y152101D01*
X25570Y152213D01*
X25400Y152250D01*
X25400Y153450D01*
X25690Y153416D01*
D02*
G37*
G36*
X22750Y149600D02*
X22787Y149430D01*
X22899Y149101D01*
X23060Y148792D01*
X23266Y148512D01*
X23512Y148266D01*
X23792Y148060D01*
X24101Y147899D01*
X24430Y147787D01*
X24600Y147750D01*
X24600Y146550D01*
X24600Y146550D01*
X24310Y146584D01*
X23750Y146746D01*
X23226Y147000D01*
X22750Y147338D01*
X22338Y147750D01*
X22000Y148226D01*
X21746Y148751D01*
X21584Y149310D01*
X21550Y149600D01*
X22750Y149600D01*
Y149600D01*
D02*
G37*
G36*
X28450Y149600D02*
Y149600D01*
X28416Y149310D01*
X28254Y148750D01*
X28000Y148225D01*
X27662Y147750D01*
X27250Y147338D01*
X26774Y147000D01*
X26249Y146746D01*
X25690Y146584D01*
X25400Y146550D01*
Y147750D01*
X25400D01*
X25570Y147787D01*
X25899Y147899D01*
X26208Y148060D01*
X26488Y148266D01*
X26734Y148512D01*
X26940Y148792D01*
X27101Y149101D01*
X27213Y149430D01*
X27250Y149600D01*
X28450Y149600D01*
D02*
G37*
G36*
X119600Y147250D02*
X119600D01*
Y147250D01*
X119430Y147213D01*
X119101Y147101D01*
X118792Y146940D01*
X118512Y146734D01*
X118266Y146488D01*
X118060Y146208D01*
X117899Y145899D01*
X117787Y145570D01*
X117750Y145400D01*
X116550Y145400D01*
X116550D01*
X116584Y145690D01*
X116746Y146250D01*
X117000Y146774D01*
X117338Y147250D01*
X117750Y147662D01*
X118226Y148000D01*
X118751Y148254D01*
X119310Y148416D01*
X119600Y148450D01*
X119600Y147250D01*
D02*
G37*
G36*
X120690Y148416D02*
X121250Y148254D01*
X121774Y148000D01*
X122250Y147662D01*
X122662Y147250D01*
X123000Y146774D01*
X123254Y146249D01*
X123416Y145690D01*
X123450Y145400D01*
X122250D01*
Y145400D01*
X122250Y145400D01*
X122213Y145570D01*
X122101Y145899D01*
X121940Y146208D01*
X121734Y146488D01*
X121488Y146734D01*
X121208Y146940D01*
X120899Y147101D01*
X120570Y147213D01*
X120400Y147250D01*
X120400Y148450D01*
X120690Y148416D01*
D02*
G37*
D39*
X136400Y102305D02*
D03*
Y103095D02*
D03*
X135400D02*
D03*
Y102305D02*
D03*
X101350Y104555D02*
D03*
Y105345D02*
D03*
X135600Y107095D02*
D03*
Y106305D02*
D03*
X129900Y108695D02*
D03*
Y107905D02*
D03*
X110485Y93584D02*
D03*
Y94374D02*
D03*
X115500Y94295D02*
D03*
Y93505D02*
D03*
X116543Y85666D02*
D03*
Y86456D02*
D03*
X134650Y107095D02*
D03*
Y106305D02*
D03*
X129900Y106255D02*
D03*
Y107045D02*
D03*
X125500Y106295D02*
D03*
Y105505D02*
D03*
X108500Y92395D02*
D03*
X108500Y91605D02*
D03*
X198950Y190845D02*
D03*
Y190055D02*
D03*
X203300Y201155D02*
D03*
Y201945D02*
D03*
X203350Y199745D02*
D03*
Y198955D02*
D03*
X65400Y42295D02*
D03*
Y41505D02*
D03*
Y38395D02*
D03*
Y37605D02*
D03*
X111500Y87605D02*
D03*
X111500Y88395D02*
D03*
X117500Y76605D02*
D03*
Y77395D02*
D03*
X115700Y84395D02*
D03*
Y83605D02*
D03*
X107500Y76605D02*
D03*
Y77395D02*
D03*
X106500Y79605D02*
D03*
Y80395D02*
D03*
X118500Y93705D02*
D03*
Y94495D02*
D03*
X116600Y101495D02*
D03*
Y100705D02*
D03*
X112500Y103395D02*
D03*
Y102605D02*
D03*
X124500Y85705D02*
D03*
Y86495D02*
D03*
X113500Y86395D02*
D03*
X112500Y77605D02*
D03*
X35700Y46405D02*
D03*
X35700Y71405D02*
D03*
Y96405D02*
D03*
Y121405D02*
D03*
X67000Y42295D02*
D03*
X66200D02*
D03*
X122300Y35805D02*
D03*
X169695Y49824D02*
D03*
Y49034D02*
D03*
X68700Y31705D02*
D03*
X69500Y31705D02*
D03*
X110500Y80395D02*
D03*
X110500Y79605D02*
D03*
X70300Y32495D02*
D03*
Y31705D02*
D03*
X122300Y36595D02*
D03*
X68700Y32495D02*
D03*
X69500D02*
D03*
X67000Y41505D02*
D03*
X66200D02*
D03*
X67000Y38395D02*
D03*
Y37605D02*
D03*
X66200Y38395D02*
D03*
Y37605D02*
D03*
X35700Y122195D02*
D03*
Y97195D02*
D03*
Y72195D02*
D03*
X35700Y47195D02*
D03*
X112500Y78395D02*
D03*
X113500Y85605D02*
D03*
D41*
X139645Y105300D02*
D03*
X138855D02*
D03*
X135545Y96050D02*
D03*
X134755D02*
D03*
X135545Y94012D02*
D03*
X134755D02*
D03*
X98745Y93300D02*
D03*
X97955D02*
D03*
X98745Y91550D02*
D03*
X97955D02*
D03*
X98795Y89850D02*
D03*
X98005D02*
D03*
X98745Y88400D02*
D03*
X97955D02*
D03*
X116385Y89491D02*
D03*
X115595D02*
D03*
X96355Y88400D02*
D03*
X97145D02*
D03*
X139645Y104350D02*
D03*
X138855Y104350D02*
D03*
X96355Y89850D02*
D03*
X97145D02*
D03*
X96355Y94700D02*
D03*
X97145D02*
D03*
X97145Y93300D02*
D03*
X96355D02*
D03*
X97145Y91550D02*
D03*
X96355Y91550D02*
D03*
X100105Y96400D02*
D03*
X100895D02*
D03*
X100105Y95600D02*
D03*
X100895D02*
D03*
X142550Y167200D02*
D03*
X143340D02*
D03*
X146155Y167200D02*
D03*
X146945D02*
D03*
X217005Y103600D02*
D03*
X217795D02*
D03*
X122605Y92500D02*
D03*
X123395D02*
D03*
X57995Y51500D02*
D03*
X57205Y51500D02*
D03*
X110605Y92500D02*
D03*
X111395D02*
D03*
X114395Y92500D02*
D03*
X113605D02*
D03*
X116395D02*
D03*
X115605D02*
D03*
X111605Y91500D02*
D03*
X112395Y91500D02*
D03*
X109395Y93500D02*
D03*
X108605D02*
D03*
X111605Y93500D02*
D03*
X112395D02*
D03*
X109605Y91500D02*
D03*
X110395D02*
D03*
X114395Y90500D02*
D03*
X113605D02*
D03*
X113605Y93500D02*
D03*
X114395D02*
D03*
X115395Y87500D02*
D03*
X114605D02*
D03*
X110605Y90500D02*
D03*
X111395D02*
D03*
X116395Y90500D02*
D03*
X115605D02*
D03*
Y88500D02*
D03*
X116395D02*
D03*
X115505Y91500D02*
D03*
X116295D02*
D03*
X114605Y86500D02*
D03*
X115395D02*
D03*
X109605Y87500D02*
D03*
X110395D02*
D03*
X109505Y89500D02*
D03*
X110295D02*
D03*
X113395Y87500D02*
D03*
X112605Y87500D02*
D03*
X111605Y89500D02*
D03*
X112395Y89500D02*
D03*
X110395Y88500D02*
D03*
X109605D02*
D03*
X106605Y96500D02*
D03*
X107395D02*
D03*
X108395Y98500D02*
D03*
X107605D02*
D03*
X107395Y91500D02*
D03*
X106605D02*
D03*
X101605Y82500D02*
D03*
X102395D02*
D03*
X112295Y95800D02*
D03*
X111505D02*
D03*
X108605Y101500D02*
D03*
X109395D02*
D03*
X116605Y87500D02*
D03*
X117395D02*
D03*
X124605Y93500D02*
D03*
X125395D02*
D03*
X128495Y87500D02*
D03*
X127705D02*
D03*
X123995Y82500D02*
D03*
X123205D02*
D03*
X128395Y97500D02*
D03*
X127605D02*
D03*
X214195Y126400D02*
D03*
X113605Y84500D02*
D03*
X120395Y83500D02*
D03*
X105395Y95500D02*
D03*
X106605Y90500D02*
D03*
X105395Y91500D02*
D03*
X102605Y92500D02*
D03*
X105395Y101500D02*
D03*
X102605Y96500D02*
D03*
Y100500D02*
D03*
X106605Y94500D02*
D03*
X105395Y99500D02*
D03*
X106605Y92500D02*
D03*
X108395Y100500D02*
D03*
X57205Y52500D02*
D03*
Y55500D02*
D03*
X57995Y53500D02*
D03*
X170290Y54129D02*
D03*
X171100Y54329D02*
D03*
X172300Y51829D02*
D03*
X172290Y53329D02*
D03*
X171490Y47829D02*
D03*
X107395Y90500D02*
D03*
X59495Y55500D02*
D03*
Y51500D02*
D03*
X59495Y52500D02*
D03*
X59495Y50700D02*
D03*
X59495Y54700D02*
D03*
Y53900D02*
D03*
X57205Y53500D02*
D03*
X171890Y54329D02*
D03*
X170700Y47829D02*
D03*
X214195Y127300D02*
D03*
X28105Y42800D02*
D03*
Y42000D02*
D03*
Y43600D02*
D03*
Y44400D02*
D03*
Y45200D02*
D03*
Y46000D02*
D03*
Y46800D02*
D03*
Y47600D02*
D03*
Y72600D02*
D03*
Y69400D02*
D03*
Y70200D02*
D03*
Y71000D02*
D03*
Y68600D02*
D03*
Y67800D02*
D03*
Y71800D02*
D03*
Y67000D02*
D03*
Y92800D02*
D03*
Y94400D02*
D03*
Y92000D02*
D03*
Y97600D02*
D03*
Y95200D02*
D03*
Y93600D02*
D03*
Y96000D02*
D03*
Y96800D02*
D03*
Y117800D02*
D03*
Y119400D02*
D03*
Y118600D02*
D03*
Y117000D02*
D03*
Y122600D02*
D03*
Y121000D02*
D03*
Y121800D02*
D03*
Y120200D02*
D03*
X173090Y51829D02*
D03*
X171500Y53329D02*
D03*
X107395Y94500D02*
D03*
X107605Y100500D02*
D03*
X107395Y92500D02*
D03*
X104605Y95500D02*
D03*
Y101500D02*
D03*
X103395Y92500D02*
D03*
Y96500D02*
D03*
X104605Y99500D02*
D03*
X103395Y100500D02*
D03*
X104605Y91500D02*
D03*
X57995Y52500D02*
D03*
X58705Y51500D02*
D03*
X58705Y50700D02*
D03*
Y54700D02*
D03*
X57995Y55500D02*
D03*
X58705Y53900D02*
D03*
X58705Y52500D02*
D03*
X58705Y55500D02*
D03*
X107395Y95500D02*
D03*
X106605D02*
D03*
X107395Y97500D02*
D03*
X106605Y97500D02*
D03*
X107395Y93500D02*
D03*
X106605D02*
D03*
X169500Y54129D02*
D03*
X28895Y120200D02*
D03*
Y121800D02*
D03*
Y121000D02*
D03*
Y122600D02*
D03*
Y117000D02*
D03*
Y118600D02*
D03*
Y119400D02*
D03*
Y117800D02*
D03*
Y96800D02*
D03*
Y96000D02*
D03*
Y93600D02*
D03*
Y95200D02*
D03*
Y97600D02*
D03*
Y92000D02*
D03*
Y94400D02*
D03*
Y92800D02*
D03*
Y67000D02*
D03*
Y71800D02*
D03*
Y67800D02*
D03*
Y68600D02*
D03*
Y71000D02*
D03*
Y70200D02*
D03*
Y69400D02*
D03*
Y72600D02*
D03*
Y47600D02*
D03*
Y46800D02*
D03*
Y46000D02*
D03*
Y45200D02*
D03*
Y44400D02*
D03*
Y43600D02*
D03*
Y42000D02*
D03*
Y42800D02*
D03*
X119605Y83500D02*
D03*
X114605Y85500D02*
D03*
X115395D02*
D03*
X114395Y84500D02*
D03*
X105395Y86500D02*
D03*
X104605D02*
D03*
X213405Y126400D02*
D03*
X213405Y127300D02*
D03*
D42*
X142300Y165985D02*
D03*
X144200D02*
D03*
X143250Y163515D02*
D03*
X145900Y165985D02*
D03*
X147800D02*
D03*
X146850Y163515D02*
D03*
D45*
X111750Y171800D02*
D03*
Y168800D02*
D03*
X108750Y171800D02*
D03*
Y168800D02*
D03*
X117750Y164150D02*
D03*
Y167150D02*
D03*
X114750Y164150D02*
D03*
Y167150D02*
D03*
X108750Y164150D02*
D03*
Y167150D02*
D03*
X111750Y164150D02*
D03*
Y167150D02*
D03*
X137250Y227750D02*
D03*
Y230750D02*
D03*
X140250Y227750D02*
D03*
Y230750D02*
D03*
X143250Y227750D02*
D03*
Y230750D02*
D03*
X146250Y227750D02*
D03*
Y230750D02*
D03*
X137250Y235400D02*
D03*
Y232400D02*
D03*
X140250Y235400D02*
D03*
Y232400D02*
D03*
X151500Y195950D02*
D03*
Y198950D02*
D03*
X154500Y195950D02*
D03*
Y198950D02*
D03*
X157500Y195950D02*
D03*
Y198950D02*
D03*
X160500Y195950D02*
D03*
Y198950D02*
D03*
X151500Y203600D02*
D03*
Y200600D02*
D03*
X154500Y203600D02*
D03*
Y200600D02*
D03*
X168750Y232400D02*
D03*
Y235400D02*
D03*
X165750Y227750D02*
D03*
Y230750D02*
D03*
X168750Y227750D02*
D03*
Y230750D02*
D03*
X171750Y227750D02*
D03*
Y230750D02*
D03*
X174750Y227750D02*
D03*
Y230750D02*
D03*
X165750Y235400D02*
D03*
Y232400D02*
D03*
X123000Y195950D02*
D03*
Y198950D02*
D03*
X126000Y195950D02*
D03*
Y198950D02*
D03*
X129000Y195950D02*
D03*
Y198950D02*
D03*
X132000Y195950D02*
D03*
Y198950D02*
D03*
X123000Y203600D02*
D03*
Y200600D02*
D03*
X126000Y203600D02*
D03*
Y200600D02*
D03*
X94500Y198950D02*
D03*
Y195950D02*
D03*
X97500D02*
D03*
Y198950D02*
D03*
X100500Y195950D02*
D03*
Y198950D02*
D03*
X103500Y195950D02*
D03*
Y198950D02*
D03*
X94500Y203600D02*
D03*
Y200600D02*
D03*
X97500Y203600D02*
D03*
Y200600D02*
D03*
X80250Y227750D02*
D03*
Y230750D02*
D03*
X83250Y227750D02*
D03*
Y230750D02*
D03*
X86250Y227750D02*
D03*
Y230750D02*
D03*
X89250Y227750D02*
D03*
Y230750D02*
D03*
X80250Y235400D02*
D03*
Y232400D02*
D03*
X83250Y235400D02*
D03*
Y232400D02*
D03*
X66000Y195950D02*
D03*
Y198950D02*
D03*
X69000Y195950D02*
D03*
Y198950D02*
D03*
X72000Y195950D02*
D03*
Y198950D02*
D03*
X75000Y195950D02*
D03*
Y198950D02*
D03*
X66000Y203600D02*
D03*
Y200600D02*
D03*
X69000Y203600D02*
D03*
Y200600D02*
D03*
X51750Y227750D02*
D03*
Y230750D02*
D03*
X54750Y227750D02*
D03*
Y230750D02*
D03*
X57750Y227750D02*
D03*
Y230750D02*
D03*
X60750Y227750D02*
D03*
Y230750D02*
D03*
X51750Y235400D02*
D03*
Y232400D02*
D03*
X54750Y235400D02*
D03*
Y232400D02*
D03*
X99600Y80100D02*
D03*
Y77100D02*
D03*
X127900Y108100D02*
D03*
Y105100D02*
D03*
X130700Y90800D02*
D03*
Y93800D02*
D03*
X209797Y162754D02*
D03*
Y159754D02*
D03*
D52*
X34735Y45850D02*
D03*
Y70850D02*
D03*
Y95850D02*
D03*
Y120850D02*
D03*
Y122750D02*
D03*
X32265Y121800D02*
D03*
X34735Y97750D02*
D03*
X32265Y96800D02*
D03*
X34735Y72750D02*
D03*
X32265Y71800D02*
D03*
X34735Y47750D02*
D03*
X32265Y46800D02*
D03*
D53*
X68200Y42600D02*
D03*
Y39300D02*
D03*
Y37300D02*
D03*
Y40600D02*
D03*
D63*
X140700Y157800D02*
D03*
X143700D02*
D03*
X140700Y154800D02*
D03*
X143700D02*
D03*
X136050Y165850D02*
D03*
X139050D02*
D03*
X136050Y168750D02*
D03*
X139050D02*
D03*
X97400Y40400D02*
D03*
X100400D02*
D03*
D65*
X199900Y189975D02*
D03*
Y190825D02*
D03*
X202400Y198825D02*
D03*
Y199675D02*
D03*
X202400Y202075D02*
D03*
Y201225D02*
D03*
X214334Y57823D02*
D03*
Y58673D02*
D03*
X223897Y82879D02*
D03*
X211997Y81254D02*
D03*
X214334Y60473D02*
D03*
X222134Y63473D02*
D03*
Y60823D02*
D03*
X211897Y176479D02*
D03*
X223997Y177529D02*
D03*
X211897Y161479D02*
D03*
X223797Y163879D02*
D03*
X211897Y160629D02*
D03*
X223997Y178379D02*
D03*
X211897Y175629D02*
D03*
X223797Y163029D02*
D03*
X222134Y61673D02*
D03*
Y62623D02*
D03*
X214334Y59623D02*
D03*
X211997Y80404D02*
D03*
X223897Y82029D02*
D03*
D68*
X113125Y88500D02*
D03*
X114475D02*
D03*
X99425Y100500D02*
D03*
X100775D02*
D03*
D75*
X225175Y36800D02*
D03*
X226025D02*
D03*
X223425Y48300D02*
D03*
X224275D02*
D03*
X225175D02*
D03*
X226025D02*
D03*
X216975Y99000D02*
D03*
X217825D02*
D03*
X216975Y100100D02*
D03*
X217825D02*
D03*
X216975Y102300D02*
D03*
X217825D02*
D03*
X216975Y104500D02*
D03*
X217825D02*
D03*
X216975Y105600D02*
D03*
X217825D02*
D03*
X216975Y106700D02*
D03*
X217825D02*
D03*
X212872Y162954D02*
D03*
X213722D02*
D03*
X220898Y81954D02*
D03*
X222522Y78254D02*
D03*
X219972Y78254D02*
D03*
X218272Y81954D02*
D03*
X213723Y81954D02*
D03*
X215423Y78254D02*
D03*
X214673Y81954D02*
D03*
X221972Y81954D02*
D03*
X219022Y78254D02*
D03*
X216372D02*
D03*
X217322Y81954D02*
D03*
X224275Y36800D02*
D03*
X213722Y177954D02*
D03*
X215547Y174254D02*
D03*
X214672Y177954D02*
D03*
X217322D02*
D03*
X216472Y174254D02*
D03*
X219122D02*
D03*
X218272Y177954D02*
D03*
X220897Y177954D02*
D03*
X220072Y174254D02*
D03*
X222722D02*
D03*
X221972Y177954D02*
D03*
X214672Y162954D02*
D03*
X217322D02*
D03*
X215622Y159254D02*
D03*
X216572D02*
D03*
X222072Y162954D02*
D03*
X222822Y159254D02*
D03*
X220897Y162954D02*
D03*
X220172Y159254D02*
D03*
X219222D02*
D03*
X218272Y162954D02*
D03*
X222822Y177954D02*
D03*
X221872Y174254D02*
D03*
X216472Y177954D02*
D03*
X214697Y174254D02*
D03*
X215522Y177954D02*
D03*
X212872D02*
D03*
X218272Y174254D02*
D03*
X217322D02*
D03*
X220922D02*
D03*
X220047Y177954D02*
D03*
X219122Y177954D02*
D03*
Y162954D02*
D03*
X218372Y159254D02*
D03*
X221022D02*
D03*
X220047Y162954D02*
D03*
X215522Y162954D02*
D03*
X217422Y159254D02*
D03*
X214772D02*
D03*
X216472Y162954D02*
D03*
X221972Y159254D02*
D03*
X222922Y162954D02*
D03*
X223425Y36800D02*
D03*
X216472Y81954D02*
D03*
X217222Y78254D02*
D03*
X218172D02*
D03*
X222822Y81954D02*
D03*
X215523Y81954D02*
D03*
X214572Y78254D02*
D03*
X212872Y81954D02*
D03*
X219122Y81954D02*
D03*
X220822Y78254D02*
D03*
X221672Y78254D02*
D03*
X220048Y81954D02*
D03*
D80*
X116250Y170450D02*
D03*
Y171950D02*
D03*
X117600Y170450D02*
D03*
Y171950D02*
D03*
X144750Y234050D02*
D03*
Y235550D02*
D03*
X146100Y234050D02*
D03*
Y235550D02*
D03*
X159000Y202250D02*
D03*
Y203750D02*
D03*
X160350Y202250D02*
D03*
Y203750D02*
D03*
X173250Y234050D02*
D03*
Y235550D02*
D03*
X174600Y234050D02*
D03*
Y235550D02*
D03*
X131850Y203750D02*
D03*
Y202250D02*
D03*
X130500D02*
D03*
Y203750D02*
D03*
X103400Y202250D02*
D03*
Y203750D02*
D03*
X102000Y202250D02*
D03*
Y203750D02*
D03*
X87750Y234050D02*
D03*
Y235550D02*
D03*
X89100Y234050D02*
D03*
Y235550D02*
D03*
X73500Y202250D02*
D03*
Y203750D02*
D03*
X74850Y202250D02*
D03*
Y203750D02*
D03*
X59250Y234050D02*
D03*
Y235550D02*
D03*
X60600Y234050D02*
D03*
Y235550D02*
D03*
D90*
X137150Y158400D02*
D03*
X139150D02*
D03*
X138050Y163550D02*
D03*
X136050D02*
D03*
X99800Y38100D02*
D03*
X97800D02*
D03*
D135*
X96071Y103329D02*
D03*
X96629Y102771D02*
D03*
X126071Y123679D02*
D03*
X126629Y123121D02*
D03*
X124729Y117371D02*
D03*
X124171Y117929D02*
D03*
X120829Y121271D02*
D03*
X120271Y121829D02*
D03*
X96171Y101679D02*
D03*
X96729Y101121D02*
D03*
X96171Y105029D02*
D03*
X96729Y104471D02*
D03*
X108858Y95087D02*
D03*
X109416Y94528D02*
D03*
X107279Y87721D02*
D03*
X106721Y88279D02*
D03*
X113079Y81921D02*
D03*
X112521Y82479D02*
D03*
X109079Y83921D02*
D03*
X108521Y84479D02*
D03*
X119979Y81021D02*
D03*
X119421Y81579D02*
D03*
X196567Y154151D02*
D03*
X196008Y154710D02*
D03*
X197981Y155565D02*
D03*
X197422Y156124D02*
D03*
X197132Y154717D02*
D03*
X196574Y155276D02*
D03*
X197169Y167829D02*
D03*
X196610Y168388D02*
D03*
X198442Y169102D02*
D03*
X197883Y169660D02*
D03*
X197876Y168536D02*
D03*
X197317Y169095D02*
D03*
X192933Y172065D02*
D03*
X193492Y171506D02*
D03*
X194068Y173192D02*
D03*
X194627Y172634D02*
D03*
X192155Y171287D02*
D03*
X192714Y170728D02*
D03*
X121921Y103379D02*
D03*
X122479Y102821D02*
D03*
X109279Y86721D02*
D03*
X108721Y87279D02*
D03*
X110721Y86279D02*
D03*
X111279Y85721D02*
D03*
D136*
X128282Y102197D02*
D03*
X127723Y101639D02*
D03*
X194735Y154434D02*
D03*
X195294Y154993D02*
D03*
X192379Y153929D02*
D03*
X191821Y153371D02*
D03*
X196284Y161074D02*
D03*
X195725Y160515D02*
D03*
X199219Y171145D02*
D03*
X198661Y170587D02*
D03*
X197240Y173125D02*
D03*
X196681Y172567D02*
D03*
X194918Y166975D02*
D03*
X195477Y167533D02*
D03*
X193004Y168890D02*
D03*
X193563Y169448D02*
D03*
X127254Y102301D02*
D03*
X126695Y101742D02*
D03*
X106279Y85279D02*
D03*
X105721Y84721D02*
D03*
D138*
X101500Y89025D02*
D03*
Y90375D02*
D03*
X101700Y94475D02*
D03*
Y93125D02*
D03*
X107700Y105575D02*
D03*
Y104225D02*
D03*
D329*
X52200Y52600D02*
D03*
D342*
X205625Y198350D02*
D03*
X204275D02*
D03*
X205625Y199550D02*
D03*
X204275D02*
D03*
X204275Y201350D02*
D03*
X205625D02*
D03*
X33125Y117400D02*
D03*
X34475D02*
D03*
Y43600D02*
D03*
Y42400D02*
D03*
Y67400D02*
D03*
Y68600D02*
D03*
Y92400D02*
D03*
Y93600D02*
D03*
Y118600D02*
D03*
X33125D02*
D03*
Y93600D02*
D03*
Y92400D02*
D03*
Y68600D02*
D03*
Y67400D02*
D03*
Y42400D02*
D03*
Y43600D02*
D03*
D343*
X200353Y150789D02*
D03*
X198020Y153122D02*
D03*
X199293Y154395D02*
D03*
X201626Y152062D02*
D03*
D344*
X191056Y154212D02*
D03*
X191939Y155096D02*
D03*
D345*
X53450Y50688D02*
D03*
X52950D02*
D03*
X52450Y50688D02*
D03*
X51950D02*
D03*
X51450D02*
D03*
X50950Y50688D02*
D03*
Y54513D02*
D03*
X51450D02*
D03*
X51950Y54513D02*
D03*
X52450D02*
D03*
X52950D02*
D03*
X53450D02*
D03*
D346*
X50287Y51350D02*
D03*
Y51850D02*
D03*
Y52850D02*
D03*
X50287Y53350D02*
D03*
Y53850D02*
D03*
X54113D02*
D03*
Y53350D02*
D03*
X54113Y52350D02*
D03*
Y51850D02*
D03*
Y51350D02*
D03*
Y52850D02*
D03*
X50287Y52350D02*
D03*
D348*
X192699Y155792D02*
D03*
X193653Y156746D02*
D03*
D349*
X190790Y156947D02*
D03*
X192205Y158361D02*
D03*
M02*
